<mxfile host="app.diagrams.net" modified="2023-03-06T15:59:28.655Z" agent="5.0 (X11; Linux x86_64) AppleWebKit/537.36 (KHTML, like Gecko) Chrome/110.0.0.0 Safari/537.36" etag="VmOlWKBh144NTI57tXI8" version="21.0.2" type="github">
  <diagram name="第 1 页" id="pEvT6UUcuENUAvADm80o">
    <mxGraphModel dx="1050" dy="570" grid="1" gridSize="10" guides="1" tooltips="1" connect="1" arrows="1" fold="1" page="1" pageScale="1" pageWidth="827" pageHeight="1169" math="0" shadow="0">
      <root>
        <mxCell id="0" />
        <mxCell id="1" parent="0" />
        <mxCell id="L741VaMt_AiiYlTWoruj-3" value="" style="shape=image;verticalLabelPosition=bottom;labelBackgroundColor=default;verticalAlign=top;aspect=fixed;imageAspect=0;image=data:image/png,iVBORw0KGgoAAAANSUhEUgAAAw8AAADKCAYAAADjEXxMAAAABHNCSVQICAgIfAhkiAAAABl0RVh0U29mdHdhcmUAZ25vbWUtc2NyZWVuc2hvdO8Dvz4AAAAtdEVYdENyZWF0aW9uIFRpbWUATW9uIDA2IE1hciAyMDIzIDExOjU4OjIyIFBNIENTVAfWYGIAACAASURBVHic7N15XJTV/sDxzyzMDMsgu8okBlKopJABamouqaGlpJU3y8qbXktbbbF+aXVL7ZrZdi1Nb5peTbtmerFu4pJaYpl4DTQXugpFgQurDMvs8/sD0AFBhkXN/L5fL18vgTPnPM/MM+c53+dsCovF4kQIIYQQQgghGqG81AcghBBCCCGEuDxI8CCEEEIIIYRwiwQPQgghhBBCCLdI8CCEEEIIIYRwiwQPQgghhBBCCLdI8CCEEEIIIYRwiwQPQgghhBBCCLdI8CCEEEIIIYRwiwQPQgghhBBCCLdI8CCEEEIIIYRwiwQPQgghhBBCCLdI8CCEEEIIIYRwiwQPQgghhBBCCLdI8CCEEEIIIYRwywUJHpw2G/aiIhzlZRci++oyKrFXnsJpq7xgZZRajZwy5WN12C5YGUIIIYQQQlwu1K2ZWfnyJVh/2IeisgIVTpxKJXalGmW7dng9MAF1WMcW5e8wF1O+fy62kkMonSaUCjsOJzgU3qj9r8O72zMotf4tKuPH04d59+hifqn4lQpMOBXg4VTho/Smd2A80ztPbVH+QgghhBBCXK4UFovF2dJMrLt3Uf7xCvQWE7p6ntLb7XZKdN6oul6H96NPNquMysxFmH5Jxk9bikZpOufvFhuUWNui6zgKz6iJzSpj+sHZfF+yjxPaEhSqcztl2ti88TFreDRyIre1G9qsMoQQQgghhLhctTh4sH6XSsXypQTZLY2mNWo9sYZ3Qv/0800qo+LIBzhyN+CvOdVo2mJzEMrQ2/Dq+miTyng8/f/YZzrIaW3jw6CCy3yYHjWVm0NualIZQgghhBBCXM5aNufB6aR81Qq3AgcAvbkSVXYW5s+T3S7CVvQDlpxktwIHAH9tAZbfvsRWfMjtMlbkfMph01G3AgeAfJ8y5mbOx+F0uF2GEEIIIYQQl7sWBQ/lS/+B3ty0CcttzBVUbt3kdvqyA38nwM3AoUaA5iRlB+a5nX51zmec0JY0qYw8j0JmHnmzSa8RQgghhBDictai4MG6Px1dM56+a+w2rMeONp7QacdpOoFKpWhS/iqVAmdlHjjtjabdV5xBeT1zKBqlVfF94X+b/johhBBCCCEuU80OHpw2G4rKima9VltagvVI48OKrCWZaFXNaNgDWqURa0lmo+n2lewnX1HcrDLKHZVYHdZmvVYIIYQQQojLTfODh/JyVIqm9QjUUCmVOIsbb7A7LEZUzuYFKCpsOCzGRtOVWo31rqzkDofSgdF24fayEEIIIYQQ4vek2cGDwtsbezODB7tajdLHp9F0So0eu7JN88pQeKPU6BtN56nyxGlv3sRntVOFXt34eQghhBBCCPFH0PzgQa3GqdU167VmjQ5199hG03n4RWG2Ne8QzXYPPPyiGk3XP6g3AQ7fZpXhqdDhofRo1muFEEIIIYS43LRowrTHdd2o1DQ9gLB4aPCI6NR4QoUKha4ddnvTtqKw250odKGgUDWatmubzvg6vZuUP4DOqiYu4Pomv04IIYQQQojLVYuCB++JD1OmbLyB7uq0hw7PxOFup/fpPo0ic1CTyiiyhOBz/Ytup3+g458INjWt98Hf7MNfuzzbpNcIIYQQQghxOWvZJnEKBd5j7qFArXUrudHLB0d4J7TDbnO7CLV/VzQdRlBsaedW+mJLCJqrElH7Rrhdxp86jKKrZySBlsbnSACElOmZeu3DKBUte/uEEEIIIYS4nCgsFkvTxgTVw7I3jYrlS9CXnUanPrcnwm63U6L1QtUtBu8pjzerjMrMDzH9sg4/j1No1PUcg9VBia0duvAxeF4zvlllvHjwb+wqTuOU7nS9KzB5WjUEWLyZeu1kbgkZ2KwyhBBCCCGEuFy1SvBQo3zpP7DuT0dhqkSlVOBEgV2pRBnSFq97H0DdKbJF+TvMxZTv/xu2kkyUWFBixeFU4VDoUPt1wfu6p1B6hrSojP+WZLDg6FJ+rczDrLCAApQOJd5KHQkBN/BSl2dalL8QQgghhBCXq1YNHmo4bTYcpaUotBqU3hdmKVOnrRKH1YjSQ49C7XlByii1GjHZTfhr/PFQ1tPdIYQQQgghxBXkggQPQgghhBBCiD8emfErhBBCCCGEcIsED0IIIYQQQgi3SPAghBBCCCGEcIsED0IIIYQQQgi3SPAghBBCCCGEcIsED0IIIYQQQgi3SPAghBBCCCGEcIsED0IIIYQQQgi3SPAghBBCCCGEcIsED0IIIYQQQgi3SPAghBBCCCGEcIsED0IIIYQQQgi3SPAghBBCCCGEcIsED0IIIYQQQgi3SPAghBBCCCGEcIsED0IIIYQQQgi3SPAghBBCCCGEcIsED0IIIYQQQgi3SPAghBBCCCGEcIsED0IIIYQQQgi3SPAghBBCCCGEcIsED0IIIYQQQgi3SPAghBBCCCGEcIsED0IIIYQQQgi3SPAghBBCCCGEcIsED0IIIYQQQgi3SPAghBBCCCGEcIsED0IIIYQQQgi3SPAghBBCCCGEcIsED0IIIYQQQgi3SPAghBBCCCGEcIsED0IIIYQQQgi3XNLgwW60tn6mRit2N5KVvPsf1sb8h/1HWv8QrniZC0nqEc/ENYUXr0y7EaP54hXXXEc3mxn6VzPLci/1kbQWJ2v/YWLoHCt7HI2ntpicF/6QXMs7YOG2l8y890tjKZ2kLDcx9KWz/2b8t6FjdbBqgYmhC2zkNOFYspY9SNywWeysOH868+fvkPfMPE7/2oTML5o8St+YTt6C3W7Vs5cD6+b3yXtq+pl/x1dmcjGvUtOaOeRNW0WF7SIWeiHZDlL0f2ffz7xn3sdYcKkP6hL4bhYDY+IZtyLvUh+J++xpvHZzPHHPbm/Gi42seySebjFn/035t7HVD/GicuRxes508j7YS2O3t0tdjzgzVnH8qZcpyrg4FcklCh5M5Lz4H754KgtTK+ZaunYnG4fvJteNu5r9nP+Iy9bBpYwbNo75+y/1gbjPcqkP4KJzsu0zM3evtlN0qQ+lXgoSbvFg7n0ezBquJKC1sy9IYf5HmcTe/yD9vBpL/EdpRV4eVHEjCPjL/QRMGILW81IfzR+AuhM+EyYQ8Jf7adMr+FIfzaVjh8vgeVYr0nPT4wv48IMFLJieSNClPpyL7EqrR9SXpthKjIfLsfq2bq6mw8WUV/i7lTbwiVsZ9SioVK17DOISyD3CkZNmul7q43BD5FAtmwdxyb55rU/BnRN03AmNPIpwknPcSdnvuFINaKcioB3g5cCnlR+rZK1byVZ7H16/LbTRtNoRz9B+GCj+MNfI75syIAxdAOCAShnI2wp0aCIjALCd2MEVGwz3ncG3+2bAFdTGCIqKrwoafPfiewWdN1x59cgVcIoNk8BBXBJ/tEahkiu8JmmE/QCfrM9E33sYN+vde4kEDkL8AUgbQ/xBtd4t6uRxDr75IznflVJeakfl640+JoROT8cTHl6VxLp+B8kvnnJ5UQZfXJdR/X8Vhndvp/fNNd82E6c+PsBPmwopyS7HVGpH1c6f4KGRXDcpHL+am3DOYbaOOEDJmeFHx9kTs4Y91T/p7h3Abf8XcqbE8o+2sPHN4uoivem06lauj27gnOzlnPjnAQ5vOEVJjgm7SodvwlV0mtyNTtEezXuf8nax+P2P+U9qBllGCAqPZ8h9k3n69ii0rukyF5I09lM6v53M+OKFvLlsG+k5RvA3kDB+JgvuizqTtGD1FAa+reGVL6fhu+odFn+xi6wS0ARGMfbVD3gsXnM234IDrP5wCeu/3k/WSSPow4m9eSR/mTKOnq79jCfTWPz2QtZ9l0luzXHeM5nH7oiiVvvHXsjOD15nfvIuskq0BPVI4vExDZx7RTZbP1zIso17OXLSjCYonJ63TeCZhwZi0DbwmobYDzDv9gdZ7jLofPXEeFbX/BA1meQ1DxLRxGwptTHtLRtlN2lYMOhsi9hywMLoT50k/lnLo9XXc3qymWnHlMy6Q0HqZjupx51YNApie3nw/AAlPi7ZnvjGwv1bq0dNKhXcOUHLpA51yjbZee8DKymeat6ZoCay5ttpc7BqiYVl5SpmPexBQqPDXqo5HLz3joWU9h6sG6tCU1+aIhtT/m7DJ1HL3F4KcNh5a56V9O4a3uniYFnNeSkVtLtGxaw/qWkHgJOUFWbe+l91PjoVs573IKFOEFH2Xwujk11Hi9q4+6WzTyL7/knHS67fP4uDbTtsrP3RSU6pE3wUJHRXM36QirCW1FaldpatsLEhu/ozilXz6GAV7VqtBnSy50sLr+6BhCQPXrre5Y04uI1vTmqInRjH+S5z61fvk/+f6vHRSn+8H3uGNh3rT+vITuX0F7sx/1qMAx2qDlF4DRuGPtLN6KTeTIsxbd9CWVoW1gIjTg896ohovBKH4NNBd05y28EtlHz5XywnjSgCIvAcMQbfbnoUNQnMeZSl7MD0Ux62omIcVjXKtmFoew2hTb8wl3gzj9I33qe8/RgCO+dQujkda5Gp3jydGas4saIYn0eGwTcbKT+ShwM96ugBtLmrF9o6b7D9aCqlm/di/jUfh12HqsN1eN02DH34uedzIThy92Lc/D2VWadwVILSLxRN3AB8h0ahrvNdceZnUJK8BVNWMU5tMJp+I/EfGuHyPhkxfb2DivRjWAqKcVTaUPiGoonpiX5oHBqXXj3TmjkU/RSN/73BVG5IxZLbQJ4luymY9TmK0Y/gVbgV495j2MpB2SEW/dgReIfU/oI4izIp+3IHFZl52CtBGRSGbsAwfHuF/n6eH2yeRtyz+xm9LIUXrj/76+9fTWTixnjeTp3JYBVANovHjGHZNTNZ0ns/b36YQnqOGY0hhtHPzOSZ/oG18z25i8VvL6m+J1rQ6kOJiOnD+KnTGB7uku7guyTet/LM8OmYqcmsHN9Aj6O9kJ1LXmf+v3aRZdRiiE/isYdC+WT8XDTTt7Hgjqrv8/ezE5m4exgLZoey9a2VbDmUh8UznH73P8urE+Jr35MxcvjfS5m/aiPpPxdi0YTSuW8SD019kH5tXdNZyNq4kHkfbmTPr0b0Hfow9vFBF3GolYWsfy9k3oqN7Pm1EGqO8/EH6ef6dm2eRtzzeUxa8gTaf73LstRsCux6ugyawCvT76KLV+08czcvZPaCZPbkmdFf3YexU+/C/PYUlkfMZe+cgc08VhOWb9dg3HoQW5kahSEK75EjW1SPNKUOb0o94sp5fDdFH3yOxW8A/g8PQdeKPf+tdOss5uDj33I4x5ewB66js0GDo6CYU1uPk59lJzy8KiDw6BfDTUutQCk//3UfOV6RJEy7ipq3X3eNS5huLyX3498wdmyP4d6O+AZ5YPnfb/y8Ko3tRywM/UcU3gBtw4j7KBCLzU7hx7s5uMOXLh90I7g6K1W72sOYdMPjuCnaivW7DL5bep6R5/Zyjj2xmR92OPC9JZzO9/qiMVdSsiOHYykd6RQd2PBrG5KTzJQ/z2KnKp6x9z/JA35mcndvYPnLk8myrOTDMXUrGCPZa55jao4Pt45/jgdCNRiP7mJLcem5edvy+HLGZH5jEA9MnUuE3kLW7mSyi13SFGzn5fumsa4klH5J4xh1TSCUZLLz85WsOziOnv1rik3jtYemsPpkOIPHPskkg5kjW1ay+tXJZFUs4cP7ampKCxlvT2bqilwihk3g6Xg9xn3JzHolD4sdao12NWeyfMpk5h3S02/Mg7wQrseYvZ3VK6cx7teZfPpGE8dIqqIYO2cB/SqAHz5i4vtHGPzM69zduerPOq8IDE3Jr7lKHbz1uYLEgR7M9XNy6Fsbi7dZea+9huejzjSjCIhVM9fgxHLMzoxvG5hGpVMxaZSD9OU25mxTsmCoEg1Oju6wsuq4gpEPqN0PHACUCmLbw4aTDo46VHStp5KxHHeQg4KRBkWt3xf9auPVH52066HiqQEKKHOS+hOUOajuZVCQcIuGuTc6OZRqbXACuE+UmrkPOAEnKck2tmlUvDSsOrBSKghwvZnZHKxabmHZcQUJcSoS24LlpIMNu61MK4YFf1I1cy6Ck23/sRHQUcn4RAVlv9pZ+62VaZWwYJSqVpDXPE7SGwocgNx9GeRi4Nbrzt+wV98wioAOJpyZWyj+uuGJhs5ft1CwcAd23wg8h/VFTTHm73ZjXJyH45FHadOxGdW6o5iyJe9RehjU3eLwuSkYhbUY68EMyvfF4N0hjFpXSMFuSpI90cT1xYd8TDv3Ur5qPeoX7se75jRP/0TF7hwU0dF49QhG6WnDnrmXivVLsJY/RHBiaK08nZkbKS6OxmfMBHxV+VSsW3dungCOU5Sv2ICm3zD8B+txHNnK6Y2fU6IPJSTp7HHaM9aQvyIDDDF4JfZFSTGWvbsxLszD+dhD+Ha4sN07jp82UvBhKjafMDz7DMHDT43zZBaV332PqX8UPq43ckceZcvzUEfF4d3FinXvbkwpaygxPENAdPVxOoox7UzHGhSFrk8caj81zt8OUr5rPYW5NoKm9KLWI62SdE6v7YjX0DH4BNiwfL2O0rp5VrNsWoW9S198Jw5GUXQQ49odlH7sj2bqgDN5Ogt2U/Tu55g9wvDsNwwPn+rPc80SbNZHCeznX/sauUwYU9/h+ZPDeGj6Qp5WZ7P+jZksnz6TiH+/w+gzN6VsFk+dxvyccEbf/yQxoXooyOT7r7bxfTa1g4fwu3h70Y2UFmzntemfnqdkCxnvT2bqklwMQ8fxdK8gjPuTmf1MAWY7xNZNnpvMS690Z+xDs1jS0cThf77Ba39/kXmRG3ilf82jISPfvz2ZR5blETH0Lh76Uyiakky++tdCpkws4MNV0+hZ/V0ybpvJhOkpmKOTmPRMN/QndvHJS3PJr2yFN9UNuWueZNzsNLTxd/HYPVFoTuxl/eqFTMnIY8GaGfRz/c7bs1n93LvE3jeZBX8OouC7Jbz097lMDepMytRuZ5IZU+cy4flkSjtXn1P+Lj6Z8SKlFdD0J4kuft1OyfEQtDcNw1NZjHlXKsbFxfD4Q+jbNz27ptThTapHXMs4deECB2it4CH3FKeO2PGdHEfCwzWN9XA6/ZnaE5KD/AkJAvAg3wvw9SYkIYR6YzeVP9d+dBvXt3WtDiNp75/C1oXZ/Py/KKKvAbTe+PXwrvrzJhWoNegTQghpoLtQ1dafkLZgP6njfNNWrZv28eMOB36PDmDgw4Fnex/v7YqpwI1lZc5h5Mu332WnrQ+vrHqH0TWNpjuS6EQSzy1ayvdJM+hZ58nZ4R99eH3NXIbXpO/dh+H1ZW/PJt32BGsWjSOi+mB79nWNsi18v+h11p0MZez7K3mh99lv5tjxEyhwaavkfrGQddl6Bs9eyNu3VQdJt/ch6L4xzF/2MTvvmFE16bNgI4vWZKPpP4MFc5KqGv93JHLVs0k8t7n24eWue535+/WMfnslr/SvKTuJwWFTSJqzlNWZiTwWRRNoMETHVwUIxZ+iRUNw53h6xjclj1bggK4DPRgfXXXbjBwB6ZlW9hxyQNTZi1DjqyTWFyxl9vp7AGrSdfTg+ZucPLnDyuJOGiapbcxJdRLWV8Ok8KbemhVEdlBCppOjFdDVB7A5KTJBgE9VXjm/OrFolHStUwFafnUSdq+Gp1wCoL7X104TEKIkIAQs6ecZ0+yjJNYHwEG6BvBU0LVT/UHAiT02VuUqSBxbp9wACxNTbGzIVTG+mRGhpb2KuWPVVeUmqAhzWHg1w07KQBV3+jUvTwAcTtI3W5jRQOAAkJX9M6i706mR6Q4Kv1B0fuAo9QQaCh5MVGzdjY0w9A9PQF/duPGJ8afgjc+p2JyOz1/imjxawpG+kbLDNtRDHyIo0eUpcv+B2I22cxuFpaB7YgJtqhvg3kGVnFqZiSnThndc9W2lzQ0EzBiA2tvldTfGoFwwD+N332MeOgqd69tlDsbrvhF4+wGE4jEiC9MH6bXzBMAGXUfiN7D6CbphFLZDczAePohlRBhaJWDOpDQ5A2eHIQQ+NgBNTTm9OlH8xhLKNx/EZ0LMhXta7sjDuC4Vm2c0fo/fg9eZa6wX+sFG7HW7oBxGVL2fJLB/9f0zRk/Ba59jOXAMZ3RU1fuvDMHn0f/Dz8/1veiF1ucdCrbupvJ4Lzxcv8cO0Awdg29M1R1Wc8cQLAfX1M6zmtMnBr8xvarepw6hKH47SMH2TExFA/AIADBRkbwFM1G0efz+6s8IuDEOj4/eoGTrDsy9R6G7HIfbVUZw9+wnqu+xUUQ8tp8tDyezM83C6GHVtXXeLr45YqHLwzN5ZVJNpJDI6PFPnLvoilcoXeJDIS+T8z4uKNnIotXZaPrOYMkbZ++fEc8nMXVjPentkPDQTCYNrcq1y/MPsnPbi3zzdQb0r77xZa7ktRWZGMYvZcXUbmd6Osf21TNm7ErmfzGOnmNDgWxWf5hCQVASCxbUNNSTuCl4Cklz0pr2/jWHOY3FH6ZhjHyQJe9Ppou2qvzbroGRzyaz6LMH6Vert8aCdtATzLkvvuqcop5jUup2Xvs6lcOPd6OLCiCPdYuSyfVP5O1FMxjsek6zW7jyo9kT3cQJ+IVX13edPcl/cwvlX2fic3dUE4PmJtThTa1HqjlP7abo/QsXOEBrjVT2UqFSQ2XGKUrq3vOaPebPA2/XwMEOdrMd785+eNjLKXdnSaVms3L8q1NYvULodG9gnVNQoQtqxpAl4y627Dai75vEED8LZnPNPy0JvbqjLd7Pnp/PfVnQzXdxc9tzf38uDf3uSDoTOJzDnsFX2wqh+1080LtOlaYKJOjMRWkkY08mZq84bh3k0ruiCufWod2gII3vM6t+Zd63lz1mDT2HDXLpNdBz85A+dYZnFPLNpgOYDYMYHa91OXcLQfE30plsvt93EZd1bU1KBQmujXqNgnY+UFbqpKyZWUbepGZ8Bycb1luZ9pmdEwY1zw9QnjfoaEi7Dgra4eRodc/AoRQLd8+zsqEEwMmh405oq6Br3Zt+kJKR11zM54hOUg86sPgpSQxXYLFx5l9AhJIwnKT/0vyF72K7uwYsChKuU+LjcJCe3YLF9BxO0lMszPgWYofXHziAEWOxGTR69E3pNWqI7RfMWSboEIOXa1ddQCyeEWqcP2dhafL8VBumjEwc2k549687/ESNSl/P45220Xi6PLlXhoWiUtpwnHa5AWj1tQMHhw2nzRMPgx7Ki7DXHR/RthM6l0BOERR8bp4A6NBEuQ570uMRqAOjEUf1cx1n1iHMJWo0PW/Aw2HDaav+pwpFd7Wu6n1qzjMgNzmPH8RUAKq4AXjWDU699ajqXirKULQxLr3kvqF4+IGjxOiy3KMOtWvg4ACnzYa6QyhKhxFbUZ0PXhmKJtLls9MGo9LXzbM6aWQUHi7HpG4bAA4j9pq3vjIT81ETyqgb8PRxeT9tarRdQqH8F8zH3Xhjfo8i47jJ5R6r7RiKQWUh/6TL+rJeenzV8FvGXrJaqY1j3reX9Ipz75/9hvapP+hQdadngstfvMKJaAsFJ/POPGo4vGk7WXRj9O1R4HKfNXfoS4LBwpE9+6uGJRXsZ88RCOp7S60n/IYhA4m9GPM0ju4lvQC63JJYHThU0fdP5CY/OJKWVufxiZ6Y3jEu7YpArjLooSCPM59SSVXbJKh/YnXgUMUw6JaWn1NANJ4uvQGK9tF4tgdHVjPqkSbU4U2uRwBO7qX4g88xe/a6YIEDtFbPg39HOv85m+8+yGDrgEN4R/vj1yWQdiOvITy6+WPCTPsyOfiPbI7/txRTrbXRVefeeFpVJcbf7GDwxb81bvgAJ/PINYPxi2nc+EV9CQIx1rOGpeEaw3nHSZ+hMhARcZ7nHMY8fiuGoP5RjQznMZJ/0gJBhnPmIRjCgtCSSW6+BdBgLCzETBCGdrXL1RqCMLh+We15ZOcBJ1cyrvfKekuNKCoAmjEU7FJTgk+dVr1GCThasByrUsmdd6jZ856NdIeSSfermz/ev72SSLWdo7kOiII9P4OPxsGeX5yM9HFw9CS063Hu0qSaQCVhF3MQs8PJidNAqZ0nZ9X/YCCswgnNGhihoJ1f7ddpfCFACUWnm5sncMrOe9V3rpzjVcFig0OgWmvZRrMRZyUoA/3rNPJ1qPw9IbMYWxnQpN6UYuxFNmjTHg935x5562u3mdRVF6jT6tqANWHZvQXjroNYjhtxut5klf446wY5nrra51T9Q+08ATxQetb5QigBq+1Mo9hRXIQDG+Y1czi+pp7jV1cHGhfqGi8qxuFQozWEuHd1KfWoal086qpjc9hqNfTt2amUbtqL+Zd8HOY66eu+TUpPlHU/z3ryrErqWfs4lQA2qNmKqeQUNis49q3ixL76TkCP4yINd2l1voG177EqLTqg1OLyBvsN46EHkpm8eC5JNy8komt3OnfuTv8RSQxvzhBmwHiyECNBBBvq3D/bhp4Zdl2LWoNv3Vu8ijN1ix4LuXm5YLcw7/Y+zKuv0LZGjIC2MI98INhQZ7CwfygGPaQ364yaoCCPfLuG2NA65WtDMbQFc34h+eASRGlo41v7RqtRaWrXqyfzyLVBsKFOF69/UMvPyc+/ztwCf5R+wNFm1CNNqcObWo9gw5TyedXxeORhNfI7Dx7wIOTRIQy/9Ti/7TxFUUYBx9cfJveTbE7MHUrvW5oRQBw5QOpfDlMeGca1L16Hv8ETDxXYfzzEd387ddluzxAxZiavjqiv+a4hKPLc3+pU7t7NNWh/7ys7dH+QBc/2pb4VevVtw+v57e/IBXxKWZ+ibAdHLQBO9mQ5uTOomQ1cjZKubWHPcSdlJU7SyxTcmaBgw08OLO2dHDUp6NqhnrzVNKuno8UMKmYlqupdKlXT5nc2olqpYNAdHgzKsjLjBxvvXavk+S51j1GP3l8LZmPVuNsWzGe+kC7EZka2nR9TuD4HZbe+6Id2Qu2jRqEE2641nN5nw3nBK3E9ujvvwbvepyWeeFxmQ2ycuVsoahcRDgAAIABJREFUXLgDR9sYvEcNwyPYE4USnD/voCT52EU5BlWvMbTpWd/cBjWqdhflEC4RDTGPLGXT8DR2pu4lfX8a3yQv5Ms1a/h6zse8PrT5D77OrWcbeOzkbltAG88ziybX+7Rdow+94vZfuNIow4fgd7uasg82UrZ6B1rXYZutqFWrT4/w9oSHtyccIDeb1LvTyF37G6ZbIuuf13AehZtyKLEF0v39XlzrcrVbs+yNt+NsNN6VWB2x178EtSf6q1Sws5TiCs6u7NQSbUMxaOF7i57O3bu515vQmvShXOUPO7N+poD481QgeoLbaiA7l1wztVYyyM0pqOppCK6q7vRtA9GTQe4JI66tInNuAbmuE6ZVoYSHAoUWfKO7EfN7DnKqvxF1uyKLjK24sVtjF3CRjTkbHWii1TyqtPPeZitrr9ZwZ0gjr6uXgq4GBZZDDtKPOclpr+SlLk62/ctB+q9OclCQaGhho7ymYmrJk1ylgnZtgHLw6aCsd3J38zk5UVK7h8FSCkUO6Opfz7lXX5+Nft4hKu7ppiQsyoOR2RY2fG6lbwcNfet0P0SEXw3kkZsHuDuvx9FAg16rR+EJjsJiHLhWcybsxZWgjUDd5Bng/qgD1PDTcaxmaq3a03zFVO7Lwtl+AP4PDHG5edlw7KrkQkdRSv8AlOTgVIag7eju3admOGor7EsQ4I9SacOaewpnj9BWmUhs2ZeBzRGGfsIY9C49S46T1dfKhQzG/EJQe4DFpkPTMcz9r7lr3XCxqKvuruZaO9BaKCxu+W7H+vB4hofHM5zJvJCXzNSxs/hyXSrPDk06957aSGP/zP0z1wjXu9w/TxaQb6cZC35oMIQawGaCwG7EhJ0nadtQgtVwLLcAcHlwV5xHbmtsCt1YyzIolGCVhYK8AmrVBeY8ck+C9rpAmry94JlzyqP2ORW0/JxKirE5cBkmVIyjBNDrUZ7zZWikHmlKHd7kekSN5qa+6DqoUd+aScHa7ZRsvvacxSlaQ+vcos1W7HUrrna+tVfIqEWDhxdQbGl4h+mavijXfO3FHF1biB37ua07QOWrApsFkxsXiipIhw4T5TnWev7qQcjNIXhUnOLY8sI6dbIda3F9r2mEvg9DeukxfvUxn2Sf+2djXmGDUyRbhSqGm/sHwv5PWfxdnZLsRoxnfqUnJiEKbcVe/rPNZR6CPZv/bD4Aft3pWd0A0naPI9bLwvcbt50dd4iRr7bsqjNEI5CbbumGNmcjyzbWM7ehJI+CinN/7TYvXzQYyS9uhea9RkE7HZzIdZzdCdnhIPVw69z9ND4KfHCSU9TAs16bg1Wf2UjXqHh0hJqRI9QkejlYttbG0Wa2aSI7KtCUOdiQ7iSsk4qA9ipicbA23YnFT1E1kboFAvSAxUnOeSd5KPDRApU0MBdEQd9oJZoiB2sP1PPeVDgpasHHm77fdWdrJ3t+dFCmVBLbsZ4q1UdBAHAi383n8Rolk0apCKtw8FbyuTtoG3rEYCCXjB/dm9ej8NWjxIg9v57aUd0R7dVq+DWDCpch2RSlU5llQ9EhAk2THwmp0XWLQmk+Rvm2vDrtPBuO8uZceLb6751Fe6k4aDqT5EJRRHRF62fDvGs75nPGi9mwFdXz3ir1qHzBWVjc4na4on00uiCw791BZUmdP1aazszNaIpzhnkB2PIp/+4YTmz1/721eEahjdThOLCD8uPnFuQoKq43PlD66VE4irDmN3ZwVcuGvjZ7KTtPtvBY24ZiUBVy+JDLjbZgG1vSWlCBmC2Y614UbSMw+EKDjxn0QQRrITcnu94hi9oe1ffPzbXvnzs372p2W6DLLQOJ4ACrl9WTh7mQ3JqC/OLpFwUFqZvY6bpYypbtpLdGEBoYRDCQm51X/98j44gNgsObUjjs8uYYv07hmxKI6NG96Y8XzpzT9lrnVPD1ppafU9FBKn85ew07jx+k8jgoIyLOfarfWD3ShDq8JfWI+sbR+HRRY9u6htJf6v/+GfcnM2/2XJb/0PQrrnV6Ho4e4qvHT+E1oB0hXXzwwETJV1kcy/Eg5MH29fQ6eBMY4w0fHWX/u55cHeONRgW669rjVz1nzG9ACN4fZ3P48d1Y72qLl72M/A1HyclR4oEdU0El1F6YDr+YQDzsORybeQCPkf54alQorwoiJLyeCc4xV9HekE32O7v4ofQq/HxVqCLaE1Y9R0N3Sw+u27SZHz7YwVfZ4XTo7YvGXknJzlwKw+MZ+nRTuyn1DJ/6BF/8eRbzxo/j0B2J9DRoMZ7I5tAPu9iZO4iFXzxxAZ/Ka+g55TlGp01j9VPj+C0piX6dA9GW/MzOzdvwfSiZV6qXajXcNpnR/5rC6tmTmfrLXfRrV71U60E9PZ95sGqlJYCgYTw09mMmLJnLlOcLGVW9VOuyPec+VzSMfo7HNk1m3kv3Mm7fGG6NDoSSPLKPpLEl1cLYVSuZ1NyRS527EeuVzM5FM1luTyRCD/iGk9A9tOk9PGolCZ0UpBywM+MzSGwPOf+zc8jcSnF7ByUJvnZSNllZXK4k0lOBJkhJ3w4KwMmhbdaqFYfuVdPXC0DFo0kO0lfYmLNZyYLhTZ84rTEoicRG+q8K7rlVAUpI6AgbMpz4dGv53IbILirCUm2s+tQKPZQEqKFduIqutcanVQ+P+tbOe5thZEcFGiUEtFcRWR28tEtQc89BC8vWW3gyS8UgA1BRtTN16jEnIx/Wck8z+9w1x+1MW+1kZKfqpVoPOGl3g5rE+uYG+Kjo29HGe3utzPFSkaBXgI+Cvtc0/N5rOqp56kYH01JtvLVHyawEl+slehCDDSv5ZHcaxjsSG70pKjrGoPXbS+XnH3O6PAa1pweKthF4ddQDOryG9qU8cwdlH/wTR59rUSmLMe/ajcUejPctsc2av6nsMQyfjBxKv1pC/qk4vKKCUdjLsB1JxxIymuCksCY+uQpGGx1K2eZUileAVxd/FMbjmHbtxabUnZ2Me6HGUGij8E2KwbwilaK38/GMvxa1pw3HyTwshzOxho2m3bjoOucUjC4mlLKU7RSvBa8wHSgD0MZFNP1GqQxFf2dfzItTKXl7Eebe0VVLLObnYMow4fn0/Q0usdgQTXQUyl27Kf9oDfSMQGkvxrx3N6YiNUps2I3F0PTntW7S4ZU0DNO76zEuWIQ1IQZNoBpncT7WrEzMp6Pwf2FE7dWzAOW1MWi9D2Jav4rS011RqT1QGqLwNNRpFZRsZN7LS9lphi+M4WyfM7D5vfOd+9LPsJTlHz7Hc6a7iPUtYM+/t5PbVg8NtGUbdXQJ903dhaH/IGI7hxJMAYe2fconOXr6je9T/2XsFceQvnq2fvEuzwfm0a+jHp0+in79w6vqAL+z988JzxfyQN/AqvvnPk3z++WixvHCfbt4ZNk07jqZxOj+UQTZC8n63372fJVG0OMp1XtHhDJ6YhKrpybz3BQYf3s39Lm7+OSzI2i8WqGXPWgQwxPe4eU1M3nO/y76B2khsDs3966+J2vjmTQxni2zlzLlESPjh9Us1ZpCQWgSr97RnMZA7XN66I449IW7+GRtFnqvhtevc4tnJaZlSyi5KQZ19VKtNo8w9IPqW2mpsXqkCXV4i+oRf3zuGonlzTWUr96IduoIdLW+VHmsmzOL5QeBVIj9YlqT2p+tEzyEtqdDv1JyvzvKwbVW7KjQXRNIp5k3ct0o73pfEjipF90L9vHTJxns+YedupvEqRJ60GeWivTFv/DTzJyqPGPCSFh6FfkP7yTnxxKs+NYKH1QDYun5qJX9n/7Ef7+qivnqbhJ3hrY93d+KwfJqJj/P3YfdDro/DTgTPKDyptNbQ/H+5wEOr/uFIzusVZvE3dCeqwfXN2rfDWFJLFgRxPJFH7MueSFfFlvQeoUSEdOdsY8kNrxSUmsJGsgrHy2l86IlrN+2kjfXVG8S1zeJu1036tLH88KiBQS9vZB1q99hawUEhcUw9qUneKzWl1pDzCMLeVv3OvP/tYTXtmkx9EhkxjtJrJswt3bZ2igeWLQEw4dLWZaykjf/bcSs1mOI7M5NE5MY3Mgyluc/rySmz/6Z2e9vZP70lKonRM3dJA4FfW9VM95kY+1BG4v/pyC2h5qXbnTw5Met0PugUTHpT04sn9vZsNmGxQEBN3jQt4OKsmM25nzrJCDOg0kuKx1pOql5vpeDJ3dbea9T7WVM3eKrpKsvHEJJQkjVOXa9VoEmw0lkh+at4lSLQc1LSU7e+srO4uSq713fP6lqb/4GdB3gwSSjjQ17bbyayrnp1ErueUBD2Dc21v5oZ3FG9eZ0bRUk9FXTt5lfO5RK7vyTCkuqjWUpVZvEdb3Rg6cGN7THg4KRd3hw4jMbKdtsbHMAHdV8cs25E8tdX9N1kAd3HrWwaquVDREaRta0KFRVq58s/2gbO0sSGd7YZGZtBG0eGIZzbSoVn6/H6QBlrwl4dqzaLE3RYQhBkz05/cVuKjdmVm0wZIhGP2YY+vBmVulKf3z+/BDq7VsoS8ug7GDVJnGqjlF4xbo7Wa82zdB78LN+jnFvKsYMG6h1qLsPw7+PkdPv78D2mxHCL9zwJVXMGIJ9wyjdtBvTto1Vm6rpg/GIiMOnV/3BkGbQGNqUrMP4342c/hZQRuMXG1EzH7xJlJHDCHosmNLN32PauYVKMyj9QtDEDDhnMzu38rt2GIF3w+nN6ZSty8CJGmWHOPymXIvlH/+kMicPB8EXbA64IiiOgKl6ylJSqdi7BVO5rWpFrQ4ReA29of5x1Z7R+D0whOK1Oylfm4kTUN/8CDpDnWEU+u707BHInu8KMebkUkBzhu1UU3XjsTnTyH9lCV8teYedhhhue+h1JuW9yJiPmpmnIY5b+2ayZfca5n9WiBk9QZHdGf3KZB67vaGbl57h01/nN9sbLFs+l61mqu5LNcFDzf1T9Trz1i3h5W1aIuLvYvp0mD91aTNXcdLTc+pCVoQvZfGabSyb9ylGm4agsChih01mtMtKi/r+01gyR8/sRcksnr0RTXg8Y199He37U1jcnKJrCWT0K3PJenku6/4+iy/tQPw0tve+60xQaBjzDks07zB/xTbmz/4UvEKJ6P0gC6ZOpl8zl8/W95/GktlV5zT/1Y3oI/sw9qUnyZ3xIltUzb/TKbuMxP/qTEq3bqSiFJSGGPT3jkTfwFDixuqRptThLapH/GJoM+oglpW7OZ18LZoxUS71QxCxfbqhP3IA48k8jlVATBOqY4XFYrkQc+WEEELUKElhatJM8id+ysr7WhIpC/HHdfj9Mdx36F62v5/0e11b4MJLm8vAiSkk/H0br/dvPLlohHk7UwdM4/AdS0l5plvj6a80aXMZ+IyRVzfPpF8THmr8bnaUF0KIPyy/RB77cxRHVi1lZ0vm9wjxR2VMY31KAbGD+l45gUM9g+IPf7eXAm1nYjtf/MP5IzKn7SLdrCem+9WX+lB+hwrZumYb9B5EbBN7Qy+zxerEH5uRL59N4qXU86yIrwrngUUreSy64SR/eA47771lJaXB1QYAnYqXnvIg4Q/3eMDJttUW3jp2ng5TpYI779MyvsPFOyp3RIxfyt7xF6kwRybFs9ZgqjzPRFXPWPxmjMLzD3eNiMuNOTuFN1+ay5bwySy5/TLc76eZjP+exrgtvgzu040uBl9Kf0xm8cpsDEnPcptbm8OKWrJXMvG5vUQM7kPs1UFQuJ91HyZjjHyQ8f2vmJDUPcZM1s17kXlH4nn1w4FNDthl2JL4XTGXFGJsZDctbVAg+t/zcq8XQVmZs9GdLX18FZdmr4YLzFLhpKyRxVs0Pop694q4cthwGCtxnGeVEQUeKP10rb6EnxBNZfxuKfOPdmPSPfEEXUF1u3n/Sp5/awPpR3MpqAB92yh63jaBZx7uU3ujVeGekl3Mf2kJ/zmYSW6BBa1fKJ0H3MWzj40jRja4qK1gO/OXlXLTxCRimjHHRIIHIYQQQgghhFuu6GdzQgghhBBCCPdJ8CCEEEIIIYRwiwQPQgghhBBCCLdI8CCEEEIIIYRwiwQP4spSkcLUhHjipqbQyKJOTWM0tm5+lxOHCccVe/JNYLTWt6z770weq8fH063/LHY25WAzF5LUI56Jawov2JEBOPb9k7yn5lGSfYEKsOVTvmYRJ6ZPJ++p6eQ9swhjST3pzGm8NqIPY97PvEAHIoQQv18SPIgrUyu24rI+m0bibTOb1tj6g3D+soP8V97j9C+X+kh+30rX7mTj8N3kXgbXiOVSH8AlZN25jtLdxagTRtDmnjG0uWcIOp96EmrjmXRfDFmrF7Lu5EU/TCGEuKQkeBBXFq9E3v4ujb1/T6SJGyo2KP/IfnIrWymzy01JHjZjI5suCEyHiym/LHaWDuWBJWkc2DaDfpdknflCVj+cxLwfLkXZJixHc3AGxaAf0QvvuBi8e0Tg0cBWqkHD7uJm1S6Wr5LeByHElUWCB3Hlkc13hGiYikv4HTFjKTdjLL8UZVfiqAA8PVG6c2fU9+G2vnqyNn7K9zJsTwhxBWngmYoQfzD2Xbzc/0nWGat+1Pafwfa/J527JXvBp0wcOhfN9JWMzl3I/OQ0sorB0D2Jx19+kuHh1Xs256xk3O3vknFmGMp2pvaIP5ONYexSUp7v1rxjdRRj2r6FsrQsrAVGnB561BHReCUOwaeDziWhDcuejRi/PojlpBG0/qivjcFnxBA8A86mcmas4sTyHDynPI9f5Nnfmz6ZSdG+Tvi9dg9eaoA8St94n/L2YwjsnEPp5nSsRSYUARF4jhiDbzd91W7EjhxKXltERdHZvCo/mM6ZzhfDEIKfHoBH887efQWn+Okfh/h5RzHlJ6zg643fzRFEP9qFENfdRM2l5HyQwU9fFmA84YAgb4KHd6X7o2H4unQ/nZq5gW++u4ref/Mm982jHD9YjsPLl+D7e9DzLyG1z8dcSs57GRzZXED5CSt2rQfe1wRh+EsPug/wrkqTc5itIw5QcuYaOc6emDXsqf5Jd+8Abvu/kKad8/53SRy/hqumb+DDOwJr/cn47ycZ+PIRbn1/A6/0rdlb3ELWvxcyb8VG9vxaCJpQOvdN4qHHH6RfaK1Xs+7xRF7+unrQkj6JBV830PtgL2TnB68zP3kXWSVagnok8fiYpp1GLRV5HC7Q0yVMD3YzpRUWTDVjp8yFHP4VukTWPleKD3J66xYq/5ePUxuMJm4IvrdG1+olMK2ZQ9HeMJfrG3DkcXru+5T7jqDtlF6oqPl+HOTsbqlbyH9qS9V/lWHoZzyEvt4dWDXE9o1D+0UqX+2HnvH1pRFCiD8eCR7ElUHVnQfmL2C46WfWvTyXrxpJnr5gGgX9H+SFv09Gd3Ib819ZyksvhdJ5xTgiANoOY/qSKEptcGTVc8z7ujOT3v8zCdXfKF3bq5t3nI5iypa8R+lhUHeLw+emYBTWYqwHMyjfF4N3h7CqBjxg3bmcovVZEB6Hz+j2UJxFZeoOin8tg6dH4enZvENwZm6kuDganzET8FXlU7FuHeWr1qN+4X689YAyFJ/7JqAzA1lbKNp8Cu2IMXgbqpvXnv4X/sF1QQ577t1NTrE3IaM6c/U1HlBczKkN/+PnH68lZEDNEZjIeXEHe7604zcqkugYDdYfczj60W6259gZ/G443q755v7CD3/1J/zhePp3tFO4fB8/vLuLH64ZScKZPO2cencnez62E3hnZ7pfp0NpKaPo21xO7Ck/Gzy0DSPuo0AsNjuFH+/m4A5funzQjeDqbFTt/Jt+3tGDGGxYySdbUim4I4mzMZKRLdvSMLdNYni85sxvc9c8ybjZaWjj7+Kxe6LQnNjL+tULmZKRx4I1M+h3JnrWc9PjH/DhfSaOLHuOeRkNHYCFjLcnM3VFLhHDJvB0vB7jvmRmvZKHxQ7BTT8jyE5h9uNLyPKLZ8igcPJLzBSkLmXexlS2pv6MduiLLHllYK1zNa1fhyKiF96363H+/F8qvl5FYeX9hNwd1eTudEXkEPyn9AKHEVPyGiqscbS5M6bqGlbq8KhvzkM1fXRnIlTbSf8hG+LDm3P2Qghx2ZHgQVwh9ERcH0+E3Zc9Xo2nNgYmMWd6EhEqIDqKpw9vZ8ySbXx/chwRbQFtIF2ur34aulkDah+6JMTTs4WtZkf6RsoO21APfYigxNCzDaH+A7EbbWcCB2yZlG3NwhHSl8DJw9CqAXrh3X4Vp1bupezbAXje3IzGKYA5GK/7RuDtBxCKx4gsTB+kY8q04R2nBtSoO0agBpyVehQUozREobu2JWfeFHZOLEwn54Q34R8M5YbeZ/sErn3QhKnU5UM4ksmRTSZ0d/aj/1/bV/Ue3BlJsDaFbz45xE8Z4VwfUytrAh/uQ/QtVXn6vdCN41/t5viOUzCgfXWaEk7sLIeEHvR+MZKavqDwP3WrPRFf641fj+pAYpMK1Br0CSGEtOQaUXVjyKBQlq/exDcFSYyuaVGX7GJrmoWg2wYSW9ObYk5j8YdpGCMfZMn7k+miBUjitmtg5LPJLPrsQfqNP9v9EBTZjSDA8sV5yi/YyKI12Wj6z2DBnOrg5Y5Erno2iec2N/Ocoh9k5ZdJZHyxkmUrktlZYIEv1qAZNo5nViQxOLJu/6ANp2EEQX+Oq7qB3RiL2vEGJXt3UD40Cn1APWWcj3cwushgoBirBlD7o7k2wr2es7bhGLSwM+tnzIS32jwqIYT4PZM5D0LUw5AQXxU4VIvoGIrWXkjuBV1ZxYYpIxOHthPe/UPrfDnVqPRnhyw5j2dhKQd1bEx14FBF2f0GNN5g/d8xHM09jLad0LkM01AEBaNS2nCcNjY3x9ZlP0XuVyaIiaRz7zpNPJUOnUvMVL7nFKV2He2Ht3dpDKoIGd4eb8op3FNa5/X+hCS45OnljW9bsJ4sx3omjQceXkDWKY7n1Fk+6SLMFYgZOgiDLYMvvz67LKoxNYU9FYEMGRp/tgF7dC/pBdDllsTqwKGKvn8iN/nBkbQ0mvqJmvftZY9ZQ89hg1x6AvTcPKRPyxrO2kBi7hjHkGs0aIMC0RNEz3vG1RM4AKjR9LjO5cmXDs+YKBSOPCxHTS05iqZT+xDsBeaS0it6lSohxJVFggch6uHrW2esgkoDmLFc0KU2i7EX2aBNezwaa4mVGHE4QBVQ5zGrOgC1L2AsptlrIHnqalcM1T84rb+TVZVKyykvBo8I39pDjuphOmEBlSde7er8weCLDjCdqNPYVGvw8HX9hbKqf9bm2qngS/jkcHyNv/Hf4f8medRXpL64j8Obis8GGBdS50QGh1lI35ZKAQBGdm5Owxw6iFt7uKQryCPfriEoNKj267WhGNqCOb+Q/CYWbSwsxEwQhna1G/VaQxCGFgZOxm3v8MZ3ETz24ce8fpuR5bOWklXv980TVYCu9q/8/FEqbdhLLn6AK3OlhRBXGgkehPgdcTaeRDSHuw1bN9PpBsQzdNMQes/sSniMBtO32Rx8egtb/3b8wgcQqihuHRSOOW073xQAJbvYkmbB0H8YMZfrSmLGXcx7I43Y52fyQHgg/Z6Zxd3mlby0yt3d4C5RYGsro9QIWj9fNI2nFkKIPwQJHsQVyXwhehBa3H7xRx2ghtPHsTb2ONNPj1IJ9qKi2r+3FWErBfT6s8M6lGrAirNWq9aGvfx30pPQVL7eePuDNauUxlb01LXTgL2Sitw6f8gtxQTo2unqe5l7/P0xjOpC97/2Y/CXQ4hOUFG+Ppvj5/vsWukt73LLQCJsaWz9uhBj6jZ2mkMZfEud1b2CQglWWSjIK6j9e3MeuSdBGxxY7wRnTXUvW330bQPRU0DuidpP+M25BS3bAM8MEffM5NXbqucReXXjmdee4CZ9fUdSib2oTo9RiRGHQ40qwKVHxOOcLiPAiKM1l4HNyybXBhERV8t8ByHEFUOCB3FlUQURFATk5vFbKwUQvnpfsJWR3+IRE2p03aJQmo9Rvi2vzpwFGw6Xxr6ifQQab7ClZ2B2aZA69v+3ai5ERKezX24/PUqlCeuvLoNUjOmYslqhJavxREElzjI38ipIY/m8ucz7LLNlQz1UIRgG6CDjKEe+q/Oc327F5PI5eCeE4KsycfxL1x4BO6e+PE653ZvABF+azo617oZvWm982zZcnap8VWCz1Dq2FokcxOBwC3u2bWTd5l2YDYMY0r1umjhig+DwphQOu7zhxq9T+KYEInp0P3epYiA40Bcqcvmtnvk92u5xxHpZ+H7jNs6GJEa+2rKrZZ9pUB8euC++9vFEJjHp9vomIduw7PvRJQ4zUZmRiVMZiibibDCo9tOD7RSWvLMpHYcPYW7F4MF48AhZ9kBir5eVloQQVw5ZbUlcYQK56eZ43pyzkpdf1XJ3fCg6VSAxg+IxNPPRYURMd4LsySyfvZQ2I6LQa8DX0J2Y8PqaZuen7DEMn4wcSr9aQv6pOLyiglHYy7AdSccSMprgpOqlWtVR+AyOwLw+leKFNrxvqFmq9SCOgDja9Dn7TFnRPhptQCoV2z+myBqHh5cR695M7HodFDV4KG5RXNUBD+1ezJvXYXREo/ZUo/AKQRPuf86TiYxls5i3Ig9U+/HtsZJJzW5vqWj3aA/C9nxL9hObKR8VQbvOOlQlxZxKOY5qcuLZZVU7R9H5ll/Ys3Y3X9sjCYvxxPpjNkfXluNxczzXxpy/pHrZT/HDqDTKY64iJMYXL18wpf/CsS+t6IaH0b6e68gvJhAPew7HZh7AY6Q/nhoVyquCCAlv5m4YqigGDwpn8ZKFzFdbMIwddO6QJW08kybGs2X2UqY8YmT8sJqlWlMoCE3i1Tvq/wAiBg8kYslS5r8wF8uI7gRrwRCfSExb/r+9ew+vqrrzP/7OPvckJ+QkIUgioYlIYFIMQyNGhQoqjNQqg9OmWi3+2vhT66Wtzzhtp5fptLb+LLWPWqu0HamXKjrRQpHSaIMEB5QUKSXaqHEgSDQByeWE7CSw9b2nAAAgAElEQVTnfvL7IwFCyOUYTgKEz+t5eDQnO+usvffae6/vum3IWMIt1z1D6aoV3PbtFpb1LtX6xHYGDERGh5WEhnJaHveSmN+7VOtOP0bxApL6TAGyzsjHuqGCrmdWk3DxdIyuenzVjRhuRr6YwDGC/GXbDgKTruCy/oGbiMg4puBBzjjZJd/jvgM/5v7fr+QHfwAs5/OdP5/PdSMMHhyXfJX7bm/n5y88zbc29TQtj/glcYaH5C/fgrWygo43qumo6XlJnGVqPomzM48u1QrY5t9Imq0cc3MNHWuqwOHGMn0BnqWLcPWdSWzNIeVLS4iWVRKorCCYloNz8fVMaH6Glk0j2+cj3EVMuLaJQ+XVdDxXTXeUIy+J6x885J1/MXm/f566rkb21AMn0libcTZzn1pA6sq3eX/j27z5XARLShKp8/KY+cm+tWgnOfcsgOxq3n3xPd58MYIlI4X05ecz++u5w064HpAlhexlmeyp3M/uV3YTCluwnZVC+leKOe/Wswdc4tOyYDYX3BHizeff46+v9HR5jeglcX3M7K3k14WzuHzxwGUtu+RBVtkf5OHfbeLhnzwPiVnkXfgVHr3rq8wf8MVnQH4pD/yohf94ZB33/+h5wM7lP7uCBxYD2Cm8fSUPOH/Kw/+9ins3OciecwXfe3Apa0pXjHhfPhYji6QbFxCtLKfzD70vibukhJQr+73jYfI8PCVe2l7aReeGfRhT8km6/np48cGPvcrUgMzX2PCqSV7JUi7QmCUROYMkBINBzdEUkbHRVcldix8k+9F13K3WWjmNNZTdxtJf2PnO7x/kmkknOzciImNHcx5EZMw0/PF5/uK5mEX5JzsnIicg8AZP/q6avOVfVeAgImcc9TyIyBhoofqJn/Ktxxq5/GcrufvCsRshLyIiIvGjOQ8iMgba2dOcy9ee+DGfmaYV8UVERE5X6nkQEREREZGYaM6DiIiIiIjERMGDiIiIiIjERMGDiIiIiIjERMGDiIiIiIjEZHSDh8iopi4iIiIiImMo/sFDYyX331rCwgvPZ9aci/nWprh/g4iIiIiInARxfs9DkC2/vocnt2fwmX9bwTUzsjh7Wny/QURERERETo44Bw/N1NWZMO0GbrluIXnxTVxERERERE6iOA9bChAIAA47jvgmLCIiIiIiJ5lWWxIRERERkZjEN3iIBGn3AQ6Heh5ERERERMaZ+Mx5iAQJdJnU/flpNtZD9qUzyIhLwiIiIiIicqo48eAh8gb3Lr6NZ5sB7GRf+k0evW3WCScrIiIiIiKnloRgMNh9YkkEaaitpbm9mbf/uIqf/6GR+T95ngc+mx6fHIqIiIiIyCkhDsOW7GTnzyIbKDzPzrubv8GGP7+B+dkrcJ944iIiIiIicoqI74RpRxbZkyDQ3kx7XBMWEREREZGTbXSWao2MSqoiIiIiInISxT94iPM7q0VERERE5NQQ5+DBgcMOBIIE4puwiIiIiIicZHEOHjLIm+qG9zexZlsjZiAY3+RFREREROSkicNSrf3sfp677nyQjY1BwM5nHniNn14a128QEREREZGTIP7BAwBBzMYGPvQGScnJJ1trtoqIiIiInPZGKXgQEREREZHxZnSWahURERERkXFHwYOIiIiIiMREwYOIiIiIiMREwYOIiIiIiMREwYOIiIiIiMTEerIzML5ECJlgc1tOdkZOYV7Mh+7HbC4i7YfLcI6H8DVQTcv3ywjmlzCptHCYiDxM1AeGa+wuvejOpzjw9EES77yb1NyhslZD6/dX4z/8engjC/e3b8edMcC2ZhXNP1xPuPgWJn0uh4RRyHdsWlhz++e53/5NXnzgCgbKaqz8ZffRuiOH1Hu/SOI4uDN2713PRw9XET38Qdo80r+zBMcYXXOjUu5GwylTlk8f3T4/3S7n2LU+Rhs5tOIROlOXcdatRaPwvWECW9bQXllDqC0MgPOGH5I2p/+NwGTjtz/Pf7SV8vyvPk923PMhcnoYB4/IU4S5n7/dVEXT/AUsvsNzsnNzGgid7AzEVxS6o8Ns46vl0KNlBGaUMvHKrFOvkmI9h+TSUhJDISJvlXNoe/yS7jbr6CivxFdTT6QzDC4P1vwFTLihCPsgfxN9q4yDj1cTNQpIvW/gCn1g60oe3pbBdc+eWOAwHiWcNY/UW6dDJEzgz6vpNE92jgYxiuVO4i/0+lO0bLCS8sPxEWQDdO+roG1dNd0zF5DymUwSAEveQDvn5vKbSvjNF1fxi01X8NNL9RIrOTONk0v/FBBop+3dEMw/2Rk51Xlw3/kTkoGE8dDrAOAoJH1FAd2GdeiAIOAltN8PM8YqYx+XE/u0PADCBzYD4fgka9bgfWg1/nY3tvOKSMxwgs9L+MP9RKMMPHgyUE/7+hqiQ5aRFtY8XY455xtclx+frI4rLg/O6R4gTOR14FQNHkar3MmoiHzYSDSQc7KzEVfh3XVEyMG9bBHJacNsPG0p185Zxb2Pr6Ph0hvU+yBnJAUPMvYMTr1W9xM1XOBwxgrjL1+Pvz2L5NtvIWVqbLecYOV6fLYiEqdW0bVvkI32rmPtdpj97UvV6yAiIxbtCgFOElyxbJ3OoivO594fvcia2hu4Uw0XcgY684KHd6v58xfqSH1oCdO9b/Hmbz+kpT4EniTSv3IRn15+dMhRpOFD3v1lLfVb2+hsB1teOmcvL+S8ZR5sPVvQ8O8vsm19nyE4v6rghV/1/r8lk3/cvIBzepM8eM+L/M/6DOZuu4icw9MiIl7e/FwF72XM4bP/NQ3nx8xn5OUtvPhNP9Mf/yTGc39nzxYv/oiT1Mvy+cfv55Oe+PEPUXf1ag48WY/rtm+TOu3o5/7n7qF15zl9xoQ30v6zR+icXEL6jHra/7yLUKufhLQ8XFeVkDLL3adC7afzv+7h0Du9P7oK8dxTgqtfy3L3BxU0PbyZ7rmlTPxc3tFG6eYqmh9YTzhvGRmlRbEX3IObObiiAmPpt8mYP3AXc3T7U3xU1krSXd8gJRu6Gyo4+EAVti//G8lmBe2bdxFq9oPLg/3SL5K2sHfIUbSW1u8/hd/Xm9DMZZz1f/uPxw3je/r/4d3pP/rRK4+w/5Xe/zfySPlBKcl9stbdWkvHnzbTVdtIxAdGRg7OBUtIKc46sbG+3hoObazA979NdDsmYi9aRMqVBdjidRcI1NP+myfpOJiF+9YbcWdbIVBL11smxtwS3FOtEPYTjTgxHEOk01pF+xYT5w3zsL5aNehmDZs28Q653F2cPkzGwoSqKzE3VxM84CUacmJMPgfXwkW450w87ph2N1XTtq4Cf5235zjNvxrP4j5lERP/q5vp2rWHYLOXqC9MQkoW9sILcC8uwt6nAuIvu4/W9wrwXD8R34tbCTYMkmZbFc0/Xk/CNbeT2LIRc8cewp1gTJmN+7qrSMo89iSNWhkZDXEud91ttZh/3Iyvz747Pr2ECRcNsO9mPebLm/G9vY9Ie881bCsoJvnKeTiHGnEyUFkeTVEv/soKOt6oI9Rs0m1zY80rIPGKRSRPcR7dLuylq7ycjr/tIdIehhQP9sKFpFxZeMzxHHD+zuF5AylXMem2YiwQe7lr3kzTfRWEjgzNrKHtm9+lrfcn46Kxmi/iJ/h6GebGGsIdVhKy80m6+mrcuUePUczPr959Dx7Zpybav/td2nt/GnjOQw/3hRczgxVs3LiXO/OHmNATCBKw2nFoGqSMM2de8ABAiLb/rmLrPgs5X/kU07MNgv+7n3pvnwpe/W62Ld/JAUs6ucs/SaoHOrftZc/3N9MevIyFX0gBLGTefDGfXgZR74e8+c3dRD4zh39cltLzELPaSEkZ5XwCRNrZ/W/VZN74SS78igv/trf524PVbM/IYMm/DlexOnHdteV4vQUkl5SSYmmia80aOlevxfqd5SQdeUA7cX62FMslIUKbVmN+MHBaCVMWkbqkjpYNazg08w48BU6INmE+W07QUUhqyccIHAAycrAlQeCDRrrJH/DhFqxvpNuVh21S30/9hLc8Q2urDdeCa0jyWOk+8Da+jj7H3piK+6ZSEkMH6XpuPf7+CQNgxbH4RtLmhsFXQ/vvqojOXkbq3N6+ccOJLeno1t3NVbQ+tJ6ALQfX/CXYksNEanfQVbaKcOgO0ud7RviANvGvXUNCXjFJ/+ym+/2/0vXqalp8y8m8Nv/EK5yBeswBKlvdB+sJ+azYz4aOJx+k460muqNgZOaTuHQZKTP71+BMutZVEP7EEjwzXfheHXx//lK9FzxLmTHkuIEwgVdW0bqhnoQphbgWz8PiCBOpq8G3pYbEOQuO3fdoIx1PNmLNLyJpZojQjir8L5XRln03aQW9JS/qxb9lF6GMfJwXF2FNtdL9YQ2dr62lpSFMxm3FvY0Lvdp2ceiFqSQuLiE5LUzw1TW090+zV/Dl1URmziPlpstJaK3BfGEz7c94sN+14Eiao1dGRkOcy52vjkOPPkWXORHnRYtISg8T3lVF1wu/JhK4g/SFE4/uu1lD60Or8bd7cMydj+vsZGjfT3DnVrreL8Y5a5A7ySBledREvXSs+iXt74B1VhHJn55IQshLqKaazp2FJE05XCk36Xrm17RVh7AWFZP8CTfd9X+l69UyWpoho7RwxA/0Yctd6qdIuTWH7miI0JYyzHcySS5dhL23UpyQljk2Ze6DStr2Z+L49BJchpfAa1sxf+OFr92Ce/LHTCulgJRbM4lGIby9jPZdbpJuXIKjt2HDGOq8Z8xg9iR48q0dNJM7cM9n7W+5oXQl1Zbz+c4Tj3LdUIsGiJxmztDgAdr/buFTL8wn93CF8cKzOTqK08/en7/FgchkPvXffbb53FRSKWf7yrc58M/FnOUAW24mmblAs5d3ALLTOWtu/CZMD53PwyJYLp/D3OWZPa1JM+bQuWUDb27+kJZvpJM+2q0egYkkfukqklIBsrBdVYf/V7vw14ZJKjpaxCyT87BMBnYMXezsC0tw1/6S9rIXcdx9Ddbta+jY58ZVejWJH3d+mpGFPceKr6GeEPnYgW6fSRQXFpcV8BL6wITsHOz9shVusDHhX5f37hcwM59jO3Kc2HLzsEWdBIbYJSMzB2cm0HaQDgBPFo7pA02Y9tO1roIA+Uz4Wp/vvagI2+M/o23jZgIXLsM5oqs2THf2VWR8uTf4umg21ujPaNuxmc7F+biHG+c7lEAj5m+exByostVmEo1CaFMZQVc+ydcuwhJuxLdxKx2PPwVfv52UPpX/6DsbaX8njcSvF2EZJBwDINJI3d4gZGVx9lDlu7UK8+V6mHYV6bcWYztcW71oHm5zgEkAURPLhd8g/ZLea7jQTfO96wm+tYfugt7g08gk+Y5/JzW174koxpH8IM0bq/DtL8bWtyITBfviElIKe1pH7f+yiGBN2bFp9upOLiS1pBi7AUzJIuHDGpora/G3LsCWBqNbRkZDfMtdeHsFXc1OHNeWkja392ZQPB3jgUfo2FSJ/6ISXI6e7/WXr8ff5sF18x14pvdpvb98ARHfYIHDEGV5lER3ldPxThjr4lvIuKJP78klC4mY4SPlo/uDKsy3TIy5y8k4HHhdVITd+iCtVRV07itkwtSR5WHYcmd145jWe7x32QA31nPzxr6cBVw4byolNbfni5NmuGj6eQWdr9aSfO3AjUODMtzYe/cpUOsEnFim5eGMZeiSJYvsbGDfXhoikDHAPahh21aqTYA3eGWnyXW5mlwt48cp18M9VpyXTSNn0iC/NPfTsC2EbV4uZ6dGiAQO/7OReaEHvG0c3HsK5PMIC+kXpnP0/pVESrYNmn1DVb/iZ9I5OFOP/piQMRGLESZ6aKQzND0kX3s1zmg17Y+twvtyPcb8EibMdA7/p8dxYp+SCU37CfkAmjAfvY+PHqokEAUCjYQOgnVKDv3v/0bBBSSmHp/iqPHVEtjtx8j/FK7kMN3hw/+sOGZmQec+AvtHmrgV+5xP9mktcOIqzCch2khw9wmUkmA95qpVmI2ZJA9Q2eoO+OkmTCSQx4Rbl+EuKiCxeBFpX56HNdpI16u1R5cSDddjrtsFRUtIHnYWYjNmO5DiZqjOvXBNDcGwG+fCoqOBQy/D7T7+Bmhk4SjsE/ynZGFLhWibSfeRD51Y+wYOUegOh7FOycKImoRb+034NbKwT+tTdh0Tsbj7p9m76bT8Y/JpnZQGUZPI4UtpVMvIaIhnufMT2N0IjnNwFfapiBlZuGZnQWc9gcbez6L1+GpMmFKMe3q/+4bhxpLE8YYpy6MjjL+6lqjjHJIu6T/syorFfTTvkd11RKJuHHP69thYcZxfgAUvgdqmEedi2HJ3qkgrwNVn3lTC5AJckyFaV9dn+NFYcDPBY4c2k8GOevYlS7k8x4479wqumafAQcaXU6Z9aqwlnZtyXGXxiAMddAUgtP511q0faAMbIe/o5a2vIfN5hA17Sr+tLEAkSmR0snWs/ut99/7QHTqBVVNSC5mwrIamp2uIZM4j/cqcEUe61k9kYURrCTUAGXsINjtJoI5gG9jNekIhJ7a8zOP+zjJ5jLriD2s7SDgE0Z2rObBzoA3cRH0DfR4LF5a0fpWoVA+GESbSZgIjCcwguqOcDgOIHiS83wfZxz4kE2w9E8kTzi08pkUvYXI+9tTNdDXUE47mYzcgtKWcLvMcUpbkxa1VI9zsBcODdXKMtzrDjSW57wfWnvIcDR9T0Y/s3Ur7yzsI7GsiGui3ff9ib7iOn+MxQJo9m7qOLXMGQPjoysajWkZGQzzLnUm0LQxuDxbbsb+xZnhI4CBRbxhyreA7SKQTjJkTY7h/9hiuLI8OL5HWMEyYjG2oeUBAuM0Ew421X29NQpoHS+/vu5k4onvWsOXuVJHqwXrMzcGDkQrsNgdfuW20DPd4y13KA+uXjklWRMbaGRs8YB3+kZL0hWI+dXXSgA8f57nxykh06JtQDPkcn/wE32vsaZVurSPwURjHCFsCE6bkYTN2EPrAS7TtPcJZxSTZqgi+ZxKNNhIxskjKOT7tBOPkXB6W4hImXDDQuHUrlrPi+U1xWBLTnU/KTQuIlq2iY91aOvKWH7vUYVJvpSSp31gAw4XhAnz+nnPcWY25sR6jaDmOiEm4DcCkO9STz2ibScTlwpJ0+Jxk4E4B2k3agbFs1+tuqKBl5WaikwpJWrYE20QXCQZ0v7+ZtnV7xiQPY1dGRsMpuhTrcGV5lPQPIOV0YHLIDEKqm4knOysiJ8GZGzwM5axkEh3QEjRIL0yPueVqWA4gEul5dh5JNIjfBE6lB75hBUK9FbfDwj0v94pL+r3/HaKlKLJzDYd2+LBfuQzrG2vpXF2B/WtLcA7TOjcgVxb2ydBRX4/f1ojlH5aQaK2jeXcdAaMRJhZjH2gYw8dhwLDdPL3nfNDKQmomVhsEw07sU0fe0zIwH5FWP8e09LaZRKNW7GkDVL37nqMhGLMWkDQlB65dSOChCsznqnD0mVuQkDEZqwGh/m8oi/p6WshdbgwD8HmJBCCy5SkObun/LbW033sf7X1Xs7JkkZdrh5r3+TAC2YNcpNY0D0S9hPeHITU+t7vgzmrC0RzcpSW4+wxri37Ue25Hs7tvhGUkAStwfE/H6ItnuXNjpFpht5dIiJ77aa9ws5du3Bie3nPsysSSBMGPmoiQH9ODbriyPDo8WNOs8N5+QgGOWamrP2uqu6cst0LfGbrdrV4igJHaZ3U7W8/5JkKfp7xJtBOGHOd3qmvzEo6C5cg58RJtA9y99xEY/ecXQKSRhgZgav6g9x6R8eyMnfMwJPdksi+0EdpYy569x9cEQg2dx/fmJtqxWSHYfyWkPpLOckGgnZaao2mGXt/HweY45TteUt0Yhp/QB31Gc5q78NfF5+ZruN0Q8BJuH2SD1h20ra2B/CWkXlZEynULsDRt5dC62uHqsoOYiG2Km+6GKrrqnNinT8Q6PQ+jroquej/GlBxswycyOMONkQS0NfVZynAA9t4W6s5ByogrH8c0J9G3NtO5//hjHW31jnD/AcIEd/69T5uvH191Ld1GFva844eOGKluEqKthJpiO+cJ2QuY8E85sLuctlebjlZSU/NxTLHSXVuNr0/8EN1XTaANjKm9xz61EPeXv4jnmH8lJGYDRg5JN34Rz+K+EyLdXDAnH7zvUl0/eL6sswqwWU38lVXHnZtop39Ex7N7oEMSbqJz2x66CQ/8+3gZURmxYkxwQbuXyLBDmoLUla/k3p/8li0fxSPD8Sx3ThzTsiCwB19138LUiG9XIyTl4Mg6nFAOrplu+KAK851+11vUP+TQrkHLcl+RRrasWsG9v3iJusBAG8TKinNWPkZgD52bGvuduzDRPhVey7Q8LIZJYGff+2CYwBs1RKIe7OcebQO3prohfJBg49G/j77zNoHOE8lrjwSXFTCJdMSwcfMbPHn/Cu7/fS0ndJgOa63Bt+/oPnXvr8G3H4y8vJ7J3jDqzy8APqpm10cwc855g79jpquWZ3/0DW779m/5S9tgG4mcntTzMCAnuf86i4blO3lz+SZaPnc2mdkGwQPttO08yIGGyVz8pzlk9m1xSEwnfQYc+NPf+ev0EGdl2bBgx31ROkm92yXNP5vUh95iz/e2wLWTSWr3Uv9yG/ZJjM3E5hglTC7AkbaVrspnaA0VYUs0Ce2oJeJ2QuuJp287rwBr5WY6f7cWLpiCYbVhmVbYM+k62oT5zHoCFDDh870rtExdyIRL36N141ra8m8nrfDjD1KxfyKLhNdrCbqLeifj5uOwbqbzoBXHgqknOLfBjeu8HDrWVXHoOReJ05JJMNKwz847di17Rw72yRCoLqdt8jycaU4w3Njys3rH8TpJXLoE/0NrMR/9NaG5hdjTrXR7mwjV1RI4lI/nO1fhHFHIbyWhoZyWx70k5vcumbnTj1G8gKQBhmYY0wtxJNXgX7ua9kP/gMVqw8jOx5U9+Bh1+8JrSH77l5jlZXRMv6V3wqmHpCVFdP2mikOPrCZ0QR5GaD/+LTuIOPJIWZDXc+ytHpwF/Vcp8xN5ref42goKcPW7W2VfMo+Zv1jJ9qoWbs4dZEnitGIm/FMNLRvKaXmoEdfsHKyuMJH3a/E1nUPanQs+dguKvSAf47UqOh8vgwvyMCJeAjuq8LdaMQgTMb0waoMZRlZGHLMLMKqqMJ8sJ1o0EcNwYc0vwNH/Umor5/4f/JYtAfijmUvlfQsZSWffUfEtd9a5i0h8bRVda1fR2lSE3QPhXVvparBiu2phn55JK84rr8K5ezW+x39JdG4R9rOTSehsIrirBhZ/g7TBlmplsLLcx9aVfOsXL2Gyjrrs83nsX0a+JLYxZwnJ1fW0v7KKpoNFJOZPJCHSQfjdXQQzr2Hi0p6lWhOmFOOe9VfatpfRHC3GleeG96vp3O7FKFhGcp+lQK0z8rFuqKDrmdUkXDwdo6seX3UjhnvYzsRh2fJyMCqr6fz9Zoy5kzEMSJg4FWfm8feG6id+zP2/awTLm6TMeZqbT3S5UpcP/xOraPt0IdbepVrDthzclx5tWBjt5xdA87YdvEsuN14y+A4Ftq7i579/jQCvUTfpYl66S2+Tk/FDPQ+DyZnGvGfmU7DAwFz7Nn+7p5qaZ/ZjOtI5546peI7rqkxh+n+eT+7MIB+uqGLbV7ew9Y63ONC3dT13OnP/M4fUQAt7Hvo7722HnPsu4hMjXF5v1FhzSPnSEpwZJoHKCjq3NWIsvJ4Js+MzsjxhykI8JUVYDu3CLFvLodVr6NoXBsIE/lxGx14Xzs9ddXQZSqw4FpeQPMWH/4W1dI7gAWB8IgerAca503taqIwsHHluMDzYpo5ssnBf1vklpF6SQ3dNBe3PreXQcxX4j2uZ85B87TJcZ/kIrC/Du+opvKvK8fdpDUzIKCLtruW4ZzoJ7aigfc16zNdrCNtySFz8qaOtax+XkUXSjSU4wzV0/mE9ne+EsF1SQvo1g6y17yog9cZFOKz76HxhLYeeK8Pc1Tr0sBdjIsnXLcFua6TjuUoCvQ19xvSrSC9dgMNWT9eG9ZiVtUSzi0m57UaST+TV0LlLuXaunV0vl9Mw6EZW7JeVknHjAuxGPb7y9Rx6oYKuBhuOC6aPaEiiMX0J6dcWY/XV0rFmLYfWbSVozCb1thKcqRCp79+CHF8jKSMJ05bgWVqI8VEV5nNrObR6PV0DrcrkPo8L5qTjAMz6Bk64UzTe5c6Vx4TblpM8w0bw9Qra11Tgb5+I63O3HPuOBwB3AWlfvwV3kYfI25WYL6zF3FxDZFIRiVOGaTcbpCwfcW4RF2TZgSAf7m0cKIXYGR6Sv3wLaVfmY/momo41a2n/UxWByFRcszOP6W1LvP4WUhdOhd1bMV9YT8c7PmzzS0i7od/7bybPw1NShC26h84NFXTuBtf11+OKw6vYjYIlpC4uwGio5NDjT+Fd9RRt/3NwwHtD3vkXk5cIRBrZM0QPYczfPfNqPP/kIfRaOe0bqgglFeK++Ubcfde7GOXnF7RQUfEGnHc11wwRDzg+eSmX5dgBaG7cG5+eF5FTREIwGNR8LRE5LQW2rWDp7Tu48ndl3FlwsnMzfrzzSAlfevt6Kh9ZOqaT0U8vLTx709Wsnfc8Zf8na/jNz1Rdldy1+EGyH13H3eed7MzEwe6VlJSsI/eB5/npJcNdHSZrvnYFD096kMrvnj8m2RMZC+p5EJHTluPCUm6e18yzj7104q3k0sN8g7UvNTP70nkKHIYQqF3H2ppcLp+nwGEoDX98nr94LmbRuBi1Y7LxsXV8OLeUrw0bOACNL/GnN9x8el7h6GdNZAyp50FOT9FavD8uw+8bYhKcazap31uGa7yFyGfyvsuoCux9iZ//xwoqPF9l1QOfJ08ryQyo4dWV/OAnz+P/wkpWleaf4LyQ8aqF6id+yrcea+Tyn63k7gvPrFDUrF3Hj7+1guoZ3+fp+64YfGK1yGlIwaseADwAAAMiSURBVIOcpsJETR/RIZbFTMCGkeoc2xe9jYkzed9lNJnbfsvDu2dx8xfPJ0OBw6DeeXYFWybdwI2XZilwGNRe1tz/Es5/LuUz0+wnOzNjzGTjj77OhrNK+W7pxbqWZNxR8CAiIiIiIjHRoAYREREREYmJggcREREREYmJggcREREREYlJ/IKHISZvioiIiIjI6S9OwUMLz5aez6zCi7loyQ3c9cRbmPFJWEREREREThFxW22pee9bNDQ08D9Pr+A327O48/dPc3NuPFIWEREREZFTgTVeCWXkziIjdxaFkdd4dtsm9tQDCh5ERERERMaN+E+YTnTjAIKBuKcsIiIiIiInkVZbEhERERGRmMQ/eLA6cBDEbGuJe9IiIiIiInLyxD94mHYeM1PhL4/dw5Nb99JsBrWMq4iIiIjIOBC31Zb6Mt9YyVfv/i3VbT0/591cxrrbNXtaREREROR0FrfVlo6I1PLsA09T7ctifulXuObCPPJysuP+NSIiIiIiMrbiHzzsfY2N7wbJ+9IKHv1aftyTFxERERGRkyP+cx68zTRF7OTN0DAlEREREZHxZPSWarXYRy1pEREREREZe3rPg4iIiIiIxCT+wUOXSQAHdkfcUxYRERERkZMofhOmI0EC3gY2lL+JacniHzTlQURERERkXIlT8NDCs6VXcO/fAIubmSXf5Mqc+KQsIiIiIiKnhri9JK55by1NQTsTs3LJcMcjRREREREROZWMyhumRURERERk/NFqSyIiIiIiEhMFDyIiIiIiEhMFDyIiIiIiEhMFDyIiIiIiEhMFDyIiIiIiEhMFDyIiIiIiEhMFDyIiIiIiEhMFDyIiIiIiEhMFDyIiIiIiEhMFDyIiIiIiEhMFDyIiIiIiEhMFDyIiIiIiEhMFDyIiIiIiEhMFDyIiIiIiEhMFDyIiIiIiEhMFDyIiIiIiEhMFDyIiIiIiEhMFDyIiIiIiEhMFDyIiIiIiEhMFDyIiIiIiEhMFDyIiIiIiEhMFDyIiIiIiEhMFDyIiIiIiEhMFDyIiIiIiEhMFDyIiIiIiEhMFDyIiIiIiEpP/Dx+5KZuewEEZAAAAAElFTkSuQmCC;" vertex="1" parent="1">
          <mxGeometry x="80" y="60" width="393" height="101.39" as="geometry" />
        </mxCell>
        <mxCell id="L741VaMt_AiiYlTWoruj-4" value="" style="shape=image;verticalLabelPosition=bottom;labelBackgroundColor=default;verticalAlign=top;aspect=fixed;imageAspect=0;image=data:image/png,iVBORw0KGgoAAAANSUhEUgAAAloAAAEBCAYAAACg+gtDAAAABHNCSVQICAgIfAhkiAAAABl0RVh0U29mdHdhcmUAZ25vbWUtc2NyZWVuc2hvdO8Dvz4AAAAtdEVYdENyZWF0aW9uIFRpbWUATW9uIDA2IE1hciAyMDIzIDExOjU4OjQ5IFBNIENTVCmmBb4AACAASURBVHic7N17fFT1nf/x17nMJZcJmQmEQCQIRAJEBIGmiMECVg21YHGpWlyrrl20lP5qXdeHu2vbXet2ediutbvWUq0taEVrqRSoQkURa9RsRAwiYDCAhEsCCTNJZpLM5Vx+f0wgV0JuI7fP8/Hg8SAz53zPd86cy/t8z/d8R4lGozZCCCGEEGLAqWe6AkIIIYQQ5ysJWkIIIYQQCSJBSwghhBAiQSRoCSGEEEIkiAQtIYQQQogEkaAlhBBCCJEgErSEEEIIIRJEgpYQQgghRIJI0BJCCCGESBAJWkIIIYQQCSJBSwghhBAiQSRoCSGEEEIkiAQtIYQQQogEkaAlhBBCCJEgiQlato0V8GM1NCSk+BOs8HGs8PGELiMQraMmUouNndDlCCGEEOL8ow9kYU3PP0v0g/dRmhrRLBNQMBwOFK+PpHk34PzijH4vI7x/Nc2fvQxRP7pqAmBYGjh9JF18I+5RC/u9jE1Ht7Disxc4Gq2hWYkC4LB10rRUZg25kvsu+Xa/lyGEEEKI858SjUb73VRjbC0l9NzvSDFNkiNNnd63bZv6ZA+mL4O0f//PPi3DCh+n/t3v4MZPmsPf5TQNMR9hfAya8UtUd0aflnP7+0s5Yhyl2hUARen0vi+WSkrUxf15S5kzpLBPyxBCCCHEhaHfQSu24yMaf/U/DImFTztt2LQIDs4k/dHHe7UMK1JH/d/uwOc4iK51Dj9tGaaNPzaCQVetQHWl92o5f/feHVSoh7Cc3S8DYEgolZ9M+DemZ0zr1TKEEEIIceHodx+txqee7FHIAnBrKinNTQQfe7RXy6h/dwlevfK0IQtA1xS8eiX17y7p1TK+v/0havWGHoUsgJrUEP++q3efQwghhBAXln4FraYVvyG1sXcd3pPDTVjlu7ECgR5NH6l6C6d1HIfe86o6dBWndZxI1Vs9mr42cpxt9R/h14M9XgZAtR7gvz7pXeucEEIIIS4c/Qpa0Q+3kaT1vohUI0J43ZoeTdtc8Txpem2vl5Gm19Jc8XyPpn3ms1XUu5p7vQzTDW/XlvR6PiGEEEJcGPoetGwbmnsfTgDcqkqsYk+PprXCx1DVnt3Oa0tVFazwsR5Nu6NuJ6az14sAoNFqkqEfhBBCCNGlPgctqzGEpvQ9YNjRaA8XFOvzMno6b8SK9H0Rik1DrHe3HIUQQghxYehz0FJTUjGVvjeIKbqjhwvq4XT9mNeh9rE5C9BslTSHp8/zCyGEEOL81Y+kpIDL3adZw5EojvETejStmpSFZfW+5cyybNSkrB5NO9U7CTPcwxa2DlLUJBR6f2tTCCGEEOe/fnWGd142mWa194PLh5JTcc+9vkfTJo36OxrMngWmthrMLJJG/V2Ppr01ZyGZsd6NuQWQEnNyxeAv9Ho+IYQQQlwY+hW0ku9aTMjZu1atJt2JOm4CasbgHk3vyr6GqJJOzLB6vIyYYRFV0nFlX9Oj6bPcmUxLn0RqrHefJT2SwkPj/qlX8wghhBDiwtHvAUtT7vwWNY6eBZSwptOYmobn3vt7tYxB0x8jYORgWKfvc2VYDgJGDoOueKxXy/jZZQ8zzPCRbPSsv1ZmyMO/jL+3V8sQQgghxIVlQH7rMLb9Qxp/+xQpkTDJZucn/Wzbpt6dgjkkk7QfPdKnZcR/63Apbvsoac6uB0ltiKYRVoYyaMYTff6twzvf/y4HYkeocdd3+VuHqTE33mgK/zb++1yZ8cU+LUMIIYQQF4YBCVonND33O6IfbkNpbkKz48UamoaS7iXpK1/FeeVV/V5GeO8qmg+sB6MOXW1ZhqWAnk7SyHm4xyzq9zJeqd7E7w/8kdrocaKKga2AZql4tBRmDp7OP49d2u9lCCGEEOL8N6BB6yTbxqoLgKajpqUNePEnWOHjAH1uveqJQLQOwzYY7MqQpwuFEEII0SuJCVpCCCGEEKL/neGFEEIIIUTXJGgJIYQQQiSIBC0hhBBCiASRoCWEEEIIkSAStIQQQgghEkSClhBCCCFEgkjQEkIIIYRIEAlaQgghhBAJIkFLCCGEECJBJGgJIYQQQiSIBC0hhBBCiASRoCWEEEIIkSAStIQQQgghEkSClhBCCCFEgkjQEkIIIYRIEAlaQgghhBAJIkFLCCGEECJBJGgJIYQQQiSIBC0hhBBCiASRoCWEEEIIkSAStIQQQgghEkSClhBCCCFEgkjQEkIIIYRIEAlaQgghhBAJIkFLCCGEECJBJGgJIYQQQiSIBC0hhBBCiASRoCWEEEIIkSAStIQQQgghEkSClhBCCCFEgkjQEkIIIYRIEAlaQgghhBB9YZ5+kjMctExiwR7UMhFlNu2neOpLrPnefmIDXIMBZ8aIRc50JXrgTNczbBM9g4vvsQGvp83qp8NcuyxGqTWgBYtzQDRsn+kq9Mg5Uc+oyUMPh/nq8+a5cSwRZ0Tte7/i+zcVMW3KF5j4hSW8XNf99GcuaAWr+PDmdby5suGMlmkOdM4baDt38Oa1r/HR9jNdkdM4w/WsLI3yzcdilBpnZvk9da7UU5wLbDb/KcItL5j4z3RVunWu1LOF1fJPiK6Y5az4yW95vW4ci5c9ye9X/DPXeLqfRf98ataFSAN1n8Rg5hkqM3kUhaU5oGkDWIGBZx6qo+6oSdqZrshpnOl6+qtsqqPKGVp6zyWmngoL73KzEM54G7X4PNlUVtmEks50PU7nXKkn4NR45Iea7Efi1Jo+Yd9RGHzjrSy+9gs9muXMBa2zwVkesoToMTkxCDEwZF8S3TEhaoDL1fNmBSUajQ7YjfPYtnI+fKKCqo8biUU0HFkpeAtyyX8olwxXvIaH/2Ud760/Ra8oLZPLt8xijDf+p7m/kp1P7aN6e4DmozFimoOUS4dx8T9OZPwVKS0z9a5MzEOUFr5LZbDl71lf4IYnRuE41Wf6ZD8fP11BdWkDjQ3gyE4nc34el/3jRaT0KafFqFtTxkfPVnF8XxhT13DnpJMxfyLT7syM18M8zofz3mBv5SmKGDeea1dPbG09Mqv44Oq3OTbvambPruWjxyuo2tmI5XSTMnMCVz6aSwpg/vVt1v1TgJxn5zN1Smtx1f++huJXh1Lw3gxy2n6m2mPseXoXn20J0Fgdg7QU0q8eTf7S8WQO7kM9e8OwKH7dYNXHFpUhiOoKWUMV5hQ6uGN8S4uQ32DJ/xhUnKKZ31fg5MWvtjlqVsf41nKT3G+4WBgyeOodi11+G9wKEwodPFoYn7ZsbYQHtiv88F+dFJ64FLEsVjwRZZVH58U7dXxtlhOqNln1pknxAYvqMKSmqRRM1rhjlkaW2od69pjNxuciPPZpy59ujUcedFDQZVE2FR8arHjHoqzWBqdCzhiNO67TKUjv/ZJ3/SXCvfsUirw2m/fapI7QWDwZ1r1hUmEoFFzn4IdTWyoStdi42WBzhU1FnU3IAN9glcJpOndMV0k9WWp8Ha8b6uDRsRZPvWmxq87Gma5SdJ2DxePbtgTa7HrXYPVOi13HbfxhSE1VmHCpzh2zNHLd7esbrTZ44hWT4sM20WSFwhkOCmtiPPypyuP3OZigtpZb8YHBiv9rWU+6Qu4lGouu0ynosCFvfiHMsgad39ysUPxXk3V7LfyGgm+wytI7HBQm9369hg4YPPW6SXFVfD2lpirkjtJYfINObsu2GPogyo1rT31vq/BmNz/Mb/3b/26UW16D++7XSX3XYEWZRXUTONNU5i9wcseo1nW/KqXD9t1gcO9jBtGrnDw5p+2GZVO502TVuyalR1u+00yVOTN17pio4uxDPXumF/VsMHjgMQO+4mR+XfxzVzaBL1tj8QIHcwa3LdZk2bIYm8PxP52XOHjxNq3NthlXXRJlyUabgq87eTC/dXv074yy5I8WWV928nhhb/Zli1VPRlnn0ZhQb1Hqh5xJGgtTLFaUWPiTVe642cHC7JZl1ZqseNOk9KBNdcgmhEJOtsqcq3QWXdJm/+jNZ+/x/tmyDnbEeOzN+LEzdbDK/Os0on+NsXqog798XWtX7uYtBqs/tqlssCFVoeAynTvmaOS0beKxTB77WYyyy5w8Pt5ixWvx7T+qKmRdovHIzTpZvVijCVe3lm/NeYRDt/2ejd/P69EsA9eidbSC976zneNZwxjzvTw8aRDbV8vhv1ZR13QiaGlkLr6SqxaAFTjERw9UYH5lCpcvSItfROgO0toczGIf7GPvezGGXDeaEaNTcBqNHFu3j533HKdpeRFTr9B6XSbaUMb9chYXRxrY+9A2DnfzkWKl23hzaQUNngxybr2UsYM1ogeOcfCP+6m+9SLGnOa+bJdlvvE+b/3gEM6ZuYy71Ytbi9K0vYrDbx+n+UTQ0tIY+9NZZDeCtW0HxU80kPXAdMaOa9mIU1JI6aLs8PYdFL8aJuXreUz7xxSoq+Xw2zFiJtDbUFhbSemtJVQGUshcMI6LL3FAIMCxdZ/y2cdjyZyl9bmePbHrtRgPl8KEy3UW5yg4IzYVe01K99utQStN477bFUIWVJQYPPWpwqJbNSarAApOb9e36CpLYjwcgDkzdBZ6IXTUYnNT3643Qntj3Pu8SXWyypwCnQmDIFRjsXmrSdkMjSJ33+t5egoF1zl5dIbNruIYK7rZmKtLYjzwqoVzpMairyikNlisKzF46LDNI0scFLhPPe8p+W242sGTl5k89CeTZfUaD37TCe/EWPaGSdkklck60GCxbquNM09l/mUKWW6o3Guy7tUou5o6nsAhtNdgWYPKohscLFZtNr4SY/WfYuTc66ToxFHfstlcYlKRoTGnQCFrEISqLDaWxnigyubJO9scnBtMHl5hUKqqzJ+lkavabC6J8UTU7nAEtCnbGOWhd22y8jXumKbgbLLZXGrw0G9tHr3HweSO6ylo8cSzNtERGosXaKRaNrs+tglFgd4GrTqDh58z2JWmsnCORk4S+GtsindZVIQht+Wzp+bpPHq7DdhsXGuw2anxw7ktJ0RVwTe0q8JtNv8xRjUqC+c6yHJC9V6TyiYb6P32V/G3GA+8bkG2xvxZSry8AxYbSyyKJqrk9LmeA69iS4xVl2gsvVXHWWeyYr3JY39SyL1bJ+fERKrKoludFBkWG9cYFJ+irKzpDhbvjfLY+hiTRzgpSgMaTJ5YbxEdpfNgr0JWK3+VTcGtDoq2x3ioxOCJPJ1HF2tsfinGii0WRbfGQ19on8nq/VAwQaVwsILPsikrs1jxfBT/bU6Wjmn/Xfbos/di/wyVx3jgTyahTI1FRQqpIYt1a4z49t72+zQsVq2MsqJKoWCaRtFQiB61WFcS44EAPHmz1u5iFcB/0ODhj22ypmjcN0uBkE3xHghZ9KqVMRwMU21018lOJd3jJr2v6achSBhwOXs+y4AFLbO0iuNBNzm/mMllBSdezWXs99pP5xiVSeYooDbAboDsDLIKvHTFffUXmLsgBXebkDBmvpf3vlJC5erDTL4iB62XZYKDtCmZpJka1d0dCM0Au/+rgobkiyj4wwxyTl4B5DL+H8KE+3C1CnD87aPEki/i8senkONqeXFBHvntOuU7SMnPjLdCBZxoaCSNG0ZmQefy2lV5WwNpv5pLwcwT7XPDyJ7Xl1qaVP+qjMrqFEYtv5apV7S29439hzDhhhNfSN/qeVqWRekeG0bq/PCGNlet0/X2nVT1+NU+AB/He5fnjtLiJ/duVFTBg0uczDkRwC/RmNPHeq5+xaTSrfLg4jblAQuvsgmd2BH7WM+e8GWq+DIhWtZN73rDZNXfLEKDNZ683XGyZWTO0Cjf/KPJilKNgqv6cIJwqxSOV8mxbHLXm4RGqczJUolOUHHusKkIweR0IE3jkft0fG33mQKNrN9FeGKrSdkstSV0togqzP+64+T6XHydRfFKk+K9NkWTWk4kqsKib7lYmtb+xFKYHOFbfzPZeEznjsz4a7veNSgNKyy808HikfHpi3INliw38Le9XD9s8ESJTdYMJ08WxVtlAOaPU1iy3GDFNp3HZ3QIJQ0W/kInT17bOn1Br1tpWj72AYtdUYWieSdameIWXtthwlSVyakAFmVOIElhwpjOJ652LJtdls6Td+rknFjXeX3sOlFn8MQWC0bpPHm7Hm+1BSiARaE2Fyx9qWcChJI1Hryh5XNnqyyuslhSbFFaBzknW3MVckYq5FhQ2u1+qVB0g07Z8hhPrTGYfJtG2VqDYlXlwQV9b3lxZmvMyVZxRlV8JSa5l2rkZipERxus3mNRbWnkqpA6wcGzUxR8bepYNMUk+niMjVstFo/RaHv+79Fn7/H+abFxi0l1ssYP/8FBYctFR0FqlG+92v5CtbrUYNVhhaJvOLkvr3WfKfRF+dZGg3WHNe7Ibr8Oogdtcm7tMP3lvV2TUVasL+V7h7qbRufOG2ewPLeXRUeiRIKHefu5dXxiZnD1paNOP8/JJQ4Uj4ZKjEDpcWJTM3AMRPcnbwrtLiBNE9OZTvooOFzdSCMkrvP1p5VU74OUf8hrE7JO1MtNXxoAABzJTog0UFMaJnumu7WhaSDW1yUjGTvjVDdBe8E8xuE3wjBpEuOu6FCe5sZ9qgw7UFRwJgHHLcr8NnN8Srv3+suXp1E4EBvOMYtiP+TM0NuFLACSlU5N7mfMUYuyJsiZpp0MWQCp4zUKki2K91uErup8i+C03LS0TkCqE1KT4t+T0wmp2IQagXTAqeBre/Rveaord5gCB2yqo/GyThqsMrnN+nRmKGSp4K9v2/qi4Gu7zlvKzMpWSbVMqgNAZvyNsn02pGvMGdFmO8pSKRwMFeHWlyp2WlSicsc0BQxaH+/3qUxOh3X7LaIz2p/IUFXmT1fpxcXtqTkVnFhU7LUIjVRJHeC+QgXTtNaQ1Q/+Tyx2GQpFhW1CVgtn6tn3QErWaLXd584ZouC0bPxB4ttnb6VqLL3BYsnzBg//zqT6IMy52dH5GNALTjfxbSgJUlVIdcfXY6obCEPo5LKV9kHViHermJABxXU2fmgX9nr02Xu6f4YsSqsgdZJ6MmQBZF2qMmGjxa6Tr9gU77SIpmsUjVKItrkG9I1WycGg7IAN2R22lcEq8y/p7/ajU1Q4jj80djeNysXDells+a+44Ru/ZZ8JaBl88f/9lIe+1PO9fsCClnbFeMbPPMpHy99g7fMppE/24s3PZMTXR5E5tI8pItJA5dMfs+fVowQrY+3HBRtnJPQJXPNwI42mxpBL+rInnlrGrRPIfmMb+7+9jsqhaaRPTidjykVcvOAi0vrYSnZSThqegQhsDY00BsAxK63Pt/76R6VolsbmP5osezzCU4NVcrMVJo/TKMrvQyDoIGvoAJ0YAzbVFhQMO/tOLu00gN+CyR1vUeoKOakQDYIf+rRe4+tRwdn2hNvaNatFa7+nXcfs+K2Ak9O2PxAD8ZNN279PlN1hutABg6e2xPur+DsMenSyTMumOgQMUTqEgvjtRtoEreqADZbNiv+JsKKrD+uxCUH7E51bIWuAErXzEo1FYyye+luUG0sVcrMVJmTH+8pM7u9hSFXIGTww22m13wZVIfdzuvXXX6kdr4pPbJ/9GGIl9RKd+y63eOADG9/lDpaOH6BjgKrQ6Vau1Sb0GxbFWwxWfxTvT9Vus8+k09hfPfvsPdw/Qy1BruNxJDl+u/Fk0LJsquuBBpN7H+l6/KScLm5ZOzPUAbgQULk4J5OL+1tMRxffxM9XFFIT2Mcbv/sFL/zm57w857fc3sNGrYFr0XJ5Gfur+WRvO8zh0lqOf1DFoacPsf8Ph7js+VmMzTl9Ee2FqfzBG5S+4SRz0QSmzvDiTtbQaKbyx++yd8Aq/jnLHsUV64ZxvPgQ1WW1HH+vij1/rWTvuvFctWoiGf0ISpp+/jxF6ctz8Jt7NUrLLcoqLco+NXlqu8m6AgdPfrVzJ9XecA5wS4Ho3on+Yb7xOotnK+QkK6BCZWmMx3bQtzGLqg0eWGlQPVhj4fUqE3wtYe+gwUMbuyiwp9+5rnLHbXrXt3VdSufbXjoDE9pblr3wdieF+y1K91vsOmCxudhgXanF0nuczO/nPTdnXxq7z5XxpD7vekZtSg/Gb5f5D1hURDUmD9iGcCo2xX+K8fBuKJiu8eAYFZ8bsGyK18dY3cdSE7J/AmRrPFKkddky6xzURTAdkH3JoOzDStbUdzeNyuUTL+ZrGb0o1pXB6MsyGM1Evjj4M/7vtt+zqfgIt48a3qPZB3h4B42UKTmMnRJPVeEtJby5tJLPXm1g7D29bFcNVlH5Rgz316Zz5T8Na72zZh6nsglwdTNvb5xiwFItO4UUzaTp0wZggO+VudxkXJ1LxtW5QIzjv3iDN5/ez2fbJ5IxpePEAxiedA0wMduN3h6jOdBhT0pLIcULx/Y10MiwHrZqJSDkpaoUTFUpmAoYFqtXRnmqzKSsSGt9GrCDgRjN+cQJKdputdj4m4C2D0B4460klVU2TOzdFe2Ajzp94mDWVcfRNPCpLS02ba8iDZvKEDiHkcB+MzbFOyxCmTqP36y3u2INlfa91IqPTCoslaV/72B+m0NLqLZl3Z747tSWFqeW1sfcNk8XVnc4GGd5FbDAOUhlwufdkegkhaxRGvNHacwn3vl4yfMmG8ss5s9J7BWCU6VTqyGN8Va8tifArHQFLJuKoySw78ap9bSe/Sk/2m24sCl7LcZqv8KiGzTKNhg8tl7lyb/r3wXgaYUtNpbHW9B+WNTmFrZlUWzQx7N5L/bPltuWFYEODw412VS3aRlGbWktboTUEWqbJ3o/DxYluw+x7HR9tC7qZdBqa+hwhgA1geBpJz1h4FZBk9kps7hHD2rpq9VFmkl24tAhGgh3fg/AMLsM0uEtn3K4EjCszqO6n67MtrQU3EOAQw00dBW2LskhazQ0rNtN5dEO7wXD8Sf5+sBs6jijg5Sclr5aXTRla8kqKjGaA/0fwl7LSsGtxWj4uM3I+bWHOFzaoWwtk+xZbthewSfvdRg2w4wR7mL7Gsh6gk20YxLRFXLSTh1mUlsGQww19X/pvjQFDJtdVa2vhT61KO1YdqZKoQ8qyww2d/wxgnCHJvgE1LMtnweIxoNTJ0NVJidD5ccmFW22sdBuk9ImyBnZ/9uxp2YTbdmE2n2ldQbryuMH7L7cwulyHsNi3VaLKBA1TpwMVCaPVqDOYnPbpzKPWRTXtp89N18lB4t1b5l0Wo1Gyy3IRIp2/mmm1CEKqeqpgrlCqgtopnN9e00hywMct9nVsd9ah+3YN0Flgm5TXGx0ei/a1NXPS52ZevaJquBLAeotqk9RXmi3wbKtNhNmObhjqs59c1T8Owwe25Hgnxiy7C4DYKjcZLMfMLp+v3u92D9TVQqGtRwL26x7/y6LXe2Wq1CYr+L0W6zuap00db7VP3Cc3LPoKiIPdPevDx3h29LjETfSi1PdgLVoNa7ewptrNDJnDSUjxw1NDVStrqBO9zL+6i5ahJIzyBgH1a9+zAdjY2QNd6DhxDMjIz4+lXcY2VM0jv15G+8k5zJirEZ4TxWf/eEYpleD2kY6xanTldmOm+yrM9j5XxV88O9OxhS4UTU3GVcPI80FaF7G/yCX6nsqKF30BtVfv4iMoRrRyloOvxpj1OqZfRjewaTyX9bxSdMwsmZ4SR/sJHb4KJUrj2GOymXEpC5mGT+UjORKapa/z27zIrweDdLSGDIppfdtSOMuIiu7nL1Pv8t7kVFkpIU5tqaKpiwH7ce50MhaOoWc0nfZ/73XaFwwmqxxbrS6AMc2VqF9u4iCWR2WPpD1tCyeeMKgMlulYIRCVhJUV1qs22njy+/6tk7OSBVfscnq9QbOKQo+NX7Pf3If+qVkjVXJfd1g45+iOAtUfGGbzR9bpKbS/idEVJWF8zSKnzNZtjxK2TQ1PrzDcZvij22KljjjwzskqJ5t5Y7XyCk2WPXHGExR8emQNUpjQhqgayy6yqT4VZOHVsL8iQqpDTbrSixC6Rp3dD3w1gBRKRinsGqLwbI/wvyxCgQtiktNKtR4y4g/SK+b1HLzVLJKTVa8ECN0uYrPstm13WRzQCEVG3+wtfVuwgydgrIYq1+IEi3UmKBabC6x8HfsE5mts3S6xUPvxljSYFGUp+CzoPKoRWm5hW+Oi0cLEtcfr7o0xr3boGCcSu4QBWezRenW+Hq6o8tmAYUJIxR41+SJ12D+yPjtU98w7eRQED2nMHmCivNTkyeeh+p8hehRi40H6dThnXSdpbMsHnjd4N6nbebnt+6jm/0qj9zVZuiAM1nPPlEoGK/i3Gjy2BqF+aPjdZ2Qr5GlAw0mj601CY3Qua9lKIecGTqLP43xxPoYG7OdFCWqNTRZo3CkwRMfGjzssikcGh+aZt1Wi2gy0BTvi9m75pPe7J/xvrPrXjBZthIWTVNJDVqs3mqTqrcP0VkFOot2RlmxJsq9+zTmZANN8V8IKN5rM/8eF4s6PmR2HtN+8IMf/PuAFKRbNH4WoHbzQSo3HqJ6awP26OGMf/iLjL+0yw4P+C5LJvJJNYde3s+BtZVUbmzE842L8SUBOPHNHIxyuJbqVz7j4MYqag6oZCyeTsGVDRzY3EzKNblkZvSmzPac+UNJiwSo/st+Kl89QtXmRlJuGU1GywFYGzaMnJnJGJXHqX71IIc2HaWuSsH7lUsYc2VaH/r6qGh2M8Gdxzn618McfPUQtZ8aJF+Zy9Rlkxk6qItZkr1kjI5QV3qIg6sPcGB9JZW7dHJuGtp699QOUfVsJfXDLyLvukGn3s/UZDIn6wQ/rKJ601GOV1pkLP4CEzKP8tmHLrK/NYJBJ2ZOTiP7uiHoDfXUbq6k8tVD1OyKoE8aTe7XMknteJLqST17SlHQmm3KD1oUf2yx+ROLihBMnObgn7+iMaSLD6gNVsm1bXZ8avLKBxabd1h8YGssHNvmxBiKjxeTlKtzzUXdnDBTVCYOsinfZ/HWJxaHTZX583XyqkxKFZWFl6uc2Jyc+JWhoQAAIABJREFUXo05uQqm36J0p8Wm3Rbl9QqjLtW4/hKVjg9h9aiefZGmMnmQza7dJhs/sijebREaofOlliEOUi9SmZoGFXstNn9k8UE1+Ebr3HeTg4I+jAdXs8dko1/h+i9q+LApfc/kcKbGgtx469Hq7TajpuhMHQS+kRq5hs0H5SabPrIorYTUXJ0fFqns2G7RnKW1fB82ZaUmO5zt1zERi43vWZgjNa4fFV9Pmk9jqtem4lOLzTtMiiss/IM0ln5DI/UTiw9Qmd8ycCYulcJR4D9k8dZHJsVVkDvDQZFh8l6TStF0jSEKgEJWrkZBOuw/YPHWRxZvVVhURhTyxmnMv1wju01w3v+xQXFQ5ZorNLIGIH85NZuaWpsde0ze+tii+AAwWOPmBQ5uPsX2OuQilaQ6mw8+Nnnlw/h3W39R6/cO0HzQZPVemPwFnYnd9ANIylLJidqUVVi8tdcmNEhj6Y0aNaUWoZzWdQ/gG6lyRaZC9SGLt3ZYvFVucdhWuKJA40vDlE4XVz2pZ0/1uJ4Ri03vWURHtq+7eczkD7sg93KdrkYBSs2Ol//exyabPrYoLofsaRp5Dot1fzBY3aDy7dscFJw8BirkXaxQ/oHJus+g8HKVrrogdc1mx/smu1I1bp6gQqPFuvdtfBN1CgdD/X6TdYcU5hRqZCsKeZeoaAGL9z622LzTYsdxmFjo5L4xNpvKbYZM0ONDavTis/d8/wTnYI2pGTYVeyw2fWSyK6RQdL3OoD0Wh30aN+e3HJxVhYkTVUbZNrs+tdi0w+K9Sqh3KEydolOUqzLoxEZi27z3rsX+dI1Fl54DHWitz9j47JtUj/0ydxRmn356BnhkeCGEODfYrPtdhCeadX6zpGMLjBCixwyTh5fFqJji5NmvnANBqb/Mcn72tb9npXYDP//595g53IPrNK0JF8BaEUJc8Dr2XWkZE8iXo0rIEqIfovvj46rljjzLh7kZKFoe31hyA6OPruX7X5vDtCuW8HJd97NIi5YQZw2bzS9EeWxvN7ukqrDwNhd3jEjA4g8bLFnZuYNzW84xDp79RoKfrhpolsVTT8eoHqExOVuJ3+osMdlYo7B0Sf+HTRD9dB5ud9XvRlmy2erm6WKFCbNaf1/1nFFr8MCLFjkTVHKHKjjrLTYWm+xK1Xl8sd5uQOTznhnkcOURGpqcXDRuVLdjWErQEuIsEm2K/6hrd5ypyoCPGg7EO76e7rEwHXzJ59qVq83mv8RYvSf+47ZRPf5DvPOv1ZnfcXRq8fk7H7e7aPyHzrvjdCukJnzsrQEWMlmxxmTz4ZYfJk+O/+j6Hde19A0TXZKgJYQQQgiRIOdYu6UQQgghxLlDgpYQQgghRIJI0BJCCCGESBAJWkIIIYQQCSJBSwghhBAiQSRoCSGEEEIkiAQtIYQQQogEkaAlhBBCCJEgErSEEEIIIRJEgpYQQgghRIJI0BJCCCGESBAJWkIIIYQQCSJBSwghhBAiQSRoCSGEEEIkiAQtIYQQQogEuXCD1tE3+cmiImbf9ihv13Y3YZTdz91L0dU3seSF8gEqUwghhBAXggs2aAXfX8vLO49T+9FaXn4/euoJzf288tI7HK7dz9urN7PbHIAyhRBCCHFBuGCDlmdKEVfnePCMmsv1U5ynnlAbxTXzJjI4OYMvfmUOo7UBKFMIIYQQFwQlGo3aZ7oSQgghhBDnowu2RUsIIYQQItEkaAkhhBBCJIgELSGEEEKIBJGgJYQQQgiRIBK0hBBCCCESRIKWEEIIIUSCSNASQgghhEgQCVpCCCGEEAkiQUsIIYQQIkEkaAkhhBBCJIgELSGEEEKIBJGgJYQQQgiRIBK0hBBCCCESRIKWEEIIIUSCSNASQgghhEgQCVpCCCGEEAkiQUsIIYQQIkEkaAkhhBBCJIgELSGEEEKIBJGgJYQQQgiRIBK0hBBCCCESRIKWEEIIIUSCSNASQgghhEgQCVpCCCGEEAkiQUsIIYQQIkEkaAkhhBBCJIgELSGEEEKIBJGgJYQQQgiRIBK0hBBCCCESRIKWEEIIIUSCSNASQgghhEgQCVpCCCGEEAmin+kKiN4waPrdj6g7OB3fQ/Nw9zImW9uepfr3x0j+7v2kj+puMTvx/2AV4UjL3+pwPA9+B8/gLqYNllD7H+sxpt/N0IU5KL2rkuiGvXsNR5/eijbvfobM9p7p6pw51j4C//EM4dGLyLo9v9fbWPjFH+Pfnof3xzeR1M0Rz96/nqP/W4J14gVfIRn/OhdXF/uZvX0V1SvLcd3+A3yT5DAqhDg1OUKIzvQxpN51F8mxGOaODdSXnukKCZF4SlYh6feMBdMg8toqGoNnukZCiPOBBC3RBTfO3NEAGNVbAOOM1uZCpYxfwNBHF8he+nlJ8uIe6wUMzHcBCVpCiAEgh3AhzmKK7KFCCHFOk8N4N+zDmzj28xIcd/4zqcFNNGwpI1YbhiQvzjmL8M0e3tpfJFJD02ubaNy+F6MuDGnDcV0+C8/cfBxt1rKxcwvBd3cSPeTHagyDy4s+dhIp188meXD7r8M6WEL9n4uJHAxgJw3HNWsuTov+C+yk/vVNNH9ag+0agnPaNaRd376e/RKppOGplYSODcdzz+14ss/TzayuhNpH1mN9+V4yi4acfDneF+4IyUseJD03/pq9fRXVzwVI/c5c+NsGGj85goUHPX8Wg74+HZertVj7wAaO/W8xZst37bj+foZc3bGPVpCmlb+kbs8QPN+/q03/OYPw6sfxl+qkfGcpg0b2ft0bb/2aY+uTGPSjuShbNhDauhejEdT04STdcheDclvLNCuKaXhtK5GDNVimG23EpSR/dS6eUe7WAiNHCG3cQnjPEQx/ACumow7NwTX9GgbNzOnwRI5BbNsGGl4rI1proAweQ/K8Cb3+DF18Ksx9W/CvLyFS1Yziy8E1Zy6Dpg8fsCeC7KoS/MvXE02fhfeea3AnDVDBQohz2nl6BhxIYYy3n8fvd5A060ZSvDp29S6aQ+HWSYwjBJc/Q/BwEq4rZuIZ5sau2knj26s47r+JIbdPQotPSOzDt4nUjcQ1JR99iBsaqgi/t4W6X9TAA4tI9rSU6d9KYPl6IvpokucWolND+O3nCUUAV6dK9kKQ8JqXUUZPJ+VrHuzPPqDprVUcb/4mmbfk9f+kE6kkeNaFLIujgTDN3U6jk+V14u52mv5W4xiNz63DOXMu3i97sD55nfoN66nzDCfzhtYHCZSs6aTfk4ddt536F7eeojAPyQsXEPn5s4SeL8b13UKcKli711NXEsRx7d2k9SFktfLT/NxKDPJIuWERDpdBbM8HmI2tU5jbX6Lmue2QPYnkokJUAkS3lhD81RHs795N2oiW5dfvoamkEiU/n+QpQ1CTDMzyrTSteYZY490MKWq9YLF2vMzxVdshexqpNwyDuj00vbgBO9Kpgr0T20vouSM4phTiucIg9kEJzS89g6XeS0aB5/Tzn4Z9TEKWEKJrZ8NZ8KxnHHYw6J++SUp6ywvj80hu+/476wkddOC+cym+/BOn6ukkDf41NWvfJHRwEoNGAOi4vnovmemedoEmZbTOseUlNJUFSZ4ZP+iH39pCJDKElMW3n2yVSBnrpubnW7D6FbQM7Ox5DL5zWvzLnzEZ3fopdVu30HhtHh5fP4qOHCH41EqCZ1XIAoxaHnjmE17srjVQ9bHyu5dyS7/W7WkrAhPmkz57dPz7z16AsWsZwd07ic7LaX26zeXFlesF/5Huuwml5DHolulEl2+i/rXRDJ4ZoO6PW7FHziX9y8P79wSoVUPMnMvg7xTiaKmXOz+/9f1IOQ1rt2OPuIaM787CeaLu08cQ+OkzNL62k9S7JsU/56Cp+B6ahZ7SpvwZk1Cf/BnB9/6PyLULWp6grSH02naslEl471lAUhLAdJLSfk3N2sr+fBqwwmgz78F37ZD4epmag/Lfz9D0ejGRaV0/WdhT9rES/L+UkCWE6NpZciY8u6n5XyQ5/VTvBmguq8T2TSc5V8c2WjuOq7l56Gwiui8II+IBSk1vf/VsGwZK9jAcKhj+ADYeFGqIVgTAV4h7ROtXpGRPxj10C6Hum2ZOQ8c55dI2X7ybpEl51G/bSbQiDAV9bNOJVhJ85k1CRzJJXXoWhSwAPZ1vzxvHgm6DlpMrHImuiBtnXttbZR4cGW6oDmJZ9GlUOzV3Lumz9+LfvIra8mZisTzSbm0NR32n47pi2inLsfftIlKn47x2Kg7LwD6xbrXhuC9201y+j6g1KR6gXB70tgHWMrCtJBzZHtjnx4wASUBwL9EqUKdNahdW9CmTcKyvJNafj6MOxz1lSGv4dI3GPd5L0zuVROvA1dcLjKNbCaxdTyRpOj4JWUKILpxFZ8OzlzYs89StA1YAsx6oK8H/LyVdzx8KtgQosOvKCf1lC03lRzAb2z/Np8Za/rb8mA1AtrfDic6Llg6nuQd2Gklovg5hKt2LqhqYdUHo480za+sGQipgHcOoaobs/t+OGThOpudlnulKAA7UjgM5qUDMwO5zmTqu624i5ZNfEjrgxnXLAlL70yp5sl4etKGn3hasgB8Lg8hLy6h6qatqtQ2PYaIlmwi+s5NoVbA1lAGoXuyWzd5uCGICqs/Xfn9L8aL2N8CoLftO2yr6PGAF4/tvn9aZQXjj+vhndBwhFkSClhCiEwlaPaCoPVhNIwrxfi0ftYsWAGVQS1CL7KP+yWdpiuSQPOdGXCO8qA4gVk5w+RaMkycgx+c8Zv8ADN/gySPtW7OwXnqG0No1hEZ/c2BO+APBCvHn4mN82G2LVjLfmJHFuIHYIwbigYVesGv2EakFCBPbU4lZkN/SJ7A/9B488ejBvXARKdldvZd08uEK4+3nOb6mEnViIZ5rx6Cn6igqGO+8RP02A9vsd2XPGHXUNaR/TSe0fAOhF7bgansbVQghkKDVf6oXbRDQCOrInG77etj7thKu1XH//e2kT2nTWlC7j4Z2ZXrQ0gB/gJhFmzIDmHX9rXAzpj9Mu5aruiCWpeP0ddEKdWLZpwkP6sRZpIzIgVtmE/nFJoIvluC6Z/oA3MIaAFYTa0oPnbaP1vgv9jJotdxqtM0YNrR26A72q8mxd4wjBFdtIuaZRtq1QUKvvEzd2OFkFCR2JHnV60OlElvNxDWyu1bQAM3b9mEPm4X39mvahBAD651moHWbU9I8aIDh92PT5jZfYwCrv6vUatl32vy6geEPxve1QZ0nV9CB07U06jivit/e168vp3b1m9S9NrZd534hhDgbToNnxtE3+cmiImbf9ihv1/anIC9Jk3NQarfSuK1z12W7MYBx4okpgy4O3Abht8uIWYBxohfKkJbO0OWED7a2NtmHywgf7U9d48uLbvu4TRtWmObt5djqcJyjO58w1XQPiuUnVtOzVi8lexaDrsuBig3UvVXTj1tiA0jPZOX9VxF5oJt/9/ehI7wrfkvLOljZmkOtAM0fHRmYeqd40Bxg1hw7xXo0CL/yEqEqL8nfmEfq7AV48iGy9mWCxwamCqeijJ6AK90g8s6bRDo9EWhg+MMn/99lg6l/K007wycnAcCThysbrN3bCbcJVsa27fH9oz+sI4S3tdkejUrCuwMwOAdnp/6XOuqgJGgIYPYw4OkzbiR1vI7x+ks0HOh6Xwl+tJaf/eejrPxQRkIV4kJywbZoBd9fy8s7jxNhLS+/fy8z5zr7XJZ+5TxSy54h+OIvqamYijvHA6EAxuF9RPZAyve/gycTlNH5uFK2E167krr6qTiSwhjlW2naGYyfsBuCJ1tGXF+ahWvrGhpXrsSemd8yvMNOrH73AdFRDm/g+O8CJOe1DO+wLYw6fRYpXdzqU8dOwpWyk/CaVTTUT0DTHajZeSRln7oVwzn7RlJ3PUFww0uExt59dnWMH0j6SJLy3IS3bcK/Kow7G8zdW4lGPQzI7VhXHu6xbsLb1hPwBHAN0SFlOEn58bGfrN3rqXs7gD77LtJG6YCHlIU3EvnZKkLPt9zGStSqd+WRdsMkIs8V4/95DUlfGIueZGAdPUJ0dzmxnBvJ+vt8FIbgyh9O6LViAs9B8ngvSrCK8DtbMVR3vI9UkJaWJi8p106j8XdbqV/uwPjiMDi+h6bSYyh6VxcpvaC6Md9eib95Oq4hBsYHJTTVunEvKuyyFdo1OR+1pITgyg1Y04agqknoefm4Ttn10Evq1+cT/e+XaHxhA67vz8PdLrgf4eVlj7ByJ1AMk//yAJP6f39XCHEOuGBbtDxTirg6x4Nn1Fyun9L3kAWAPhzPPfeQPjsH9pUQenk9wde3Eqnz4Jo9C/eJWxMp+aQvnofbF6T5lTXUv7SBpsMekm+/h7Sxbqg6SPTE+Tl9Gt575pHkDRDesJ7glkrUK28ibVI/O5mrw0m5/Sbcxk4a/7yext0xHF+6iYwbTzGGVlI+6bdfg0s/QOPqNdS/+BLBMn/3Jz11CKnfmIvTcYTQi28SOW9/wcdN0oJbSR3vwSzbROj1MszsuXi/OqbLvnp9KT954a2k5ulE31pP/YtrqH91ZzzCBXdS9+JW7OxCBl3X5klGTz7pCyehHN5E3YbKhHYX0ybdxJDvzMOd7ie8eQMNqzfQWHYkPgbW9NZxwZzXLiJ99hiUfcUEX1xDw1/LsEbPxfsP09HVAMah1hYeNX8eGYsKcUQ+JvTyBhp3gvuWm0ge0nUdesw3jUG3TUOpKCb48puE670k3XQX6dO63p+U3Ll4b5iEerSE4ItrqF+1nqaq0ywjfRKDFuSjHiuhfm15h3U/mMlXTsSjAUePsLepn59HCHHOUKLR6Flxd0cIIc577z/K7PuDPPzaj5mZ0DHbhBBniwu2RUsIIT5fx3n9pc1wxRwmS8gS4oJxnnaeuVCEafzdT2nY0829OdVL8uJ7GTTy86uVOJuch9uIVU7gkZcIN3fzmZImk/7QApLOlkvJYDkv/+wH/OyTL/Dwb2ZzNo0yJ4RILLl1eI6zGoNYpxkyW03zDFCfIXEuOv+2EQMr2IzVzfhbCg7UdPfZM8xC7Zv874oGrvrWDUw65a9MCCHORxK0hBBCCCES5Jy5hhVCCCGEONdI0BJCCCGESBAJWkIIIYQQCSJBSwghhBAiQWR4hzPE3r2Go09vRZt3P0Nmn+YHgK0wVsyN+nmNvWMdof7RX9KYvoCse6Z1m8Zjr/2Smo2tv+2nTPkmWX+f1+XTXvb2VVSvLMd1+w/wTZJN73R6tY2cEwIEf/EzgrXT8P3HAtynucyzm8PYSe7P72qwrpiaRzZgX3svmdd2NxR9mNDyH9Owp/UV100/IGN6Vz9LVUPDfz9OiGsY8k+zTvwOuRDiAiJnu7OcfWALtb/din7r/XjHnunadKZNm4dvRDNYVTSu2kT0TFdInANOM9YEEHv3WY6/opP2H4tIPuuOUm6S5t2F3hCD2g+oW7PzTFdICHEWO+sOYRcKZfwChj664PTfQN0RjKBx1n5Rqi8Htw+woFluRA+oHm8j5wwvnu/+J6mAcpptxTx0BCuS87nUqi+07NFo2WAf3HfazyKEuLCdN4fwc5Eia1+cxnm3jaicPYOICiHE5+B8O4wPAIPm3/8XgU8vxfejU/QjsSqpX/ZrmobdxNA7J6ECxlu/5tj6JAb9aC7Klg2Etu7FaAQ1fThJt9zFoNz4qrYPbODY/xZjWvGiHNffz5CrvZ3Kr/vJr2nyt77UvPzfaD7xR3bn/h5mRTENr20lcrAGy3SjjbiU5K/OxTOqq34jPRUm+u5LBF/fiRHSUbLzSJk/v59ltmdXleBfvp5o+iy891yDO2nAik68uhJqH1mP9eV7ySxq7dNjbXuW6t8fIXnJg6Tnxl+zt6+i+rkAqd+ZC3/bQOMnR7DwoOfPYtDXp+Nq0/+uR9sIQZpW/pK6PUPwfP8uPINPvG4QXv04/lKdlO8sZdDIHu7iLdtcc3brNt1J7RZqlm1CueFBBs/0gLWPwH88Q3TK3Qy+rJL6dSVEDwewNQ/quC/ju31ayzYapvHpH1O/u6WcpEl4f3xT55/HaSk/Zp14YSd1D/wbdS1/qTPuZujCnDZBLUykZBOhd3YSPRoEhxd9/DQ8X52Fuz+jr8eO0bh6HaEPKzGtJPSxU0lbcE3/ymwnTHjNcgLvhHHddDfeAq+ETyHOYxK0OtFxjsyEsiPE/OAe3MUkjfH39CtyOpyQ/DQ/txKDPFJuWITDZRDb8wFmY+sUStZ00u/Jw67bTv2LW7uugjqc1Nvuwh0B9m3C/9oxXPNuIiW7JVoledHaTG5uf4ma57ZD9iSSiwpRCRDdWkLwV0ewv3s3aSP6+DUffJO6qkxcV80lSQ0QeaeY4FMB+H934xnWtyLbso99XiHL4mgg3BpUu6ST5XUycBGyq2oco/G5dThnzsX7ZQ/WJ69Tv2E9dZ7hZN7QGiB6tI3gIXnhAiI/f5bQ88W4vluIUwVr93rqSoI4rr2btJ6GLAB1OM5snaaqI8SsSbi6SFrW4SMYeEnOaf9LfdZnm/BvD6IVzGLQtR4IVtG8O4Rl0fJcsxv3V+9C+1KM2OZVBA+eog7pU0m7JwfbihF7+yWCuzNJvesanC0bu+LLbBeywmuXE3griDZpGqlXDIHQQSLvbML/ZBDf9+f1eXsyS14mmJ5HctFclIZ9NBVvIfC0ge/7c3H1+4gZJrzmGQlZQlxAJGh1Qb04B40SYocNGKyDZWA1GpDiRlXBrqzEwIv74o4tUTXEzLkM/k4hjpYTlTs/v/00Li+uXC/4jxA8ZQ109JGj0QG72YNCADU7D3dXneEj5TSs3Y494hoyvjsL54kT5PQxBH76DI2v7ST1rlO0UJxOJAn3t+4ifVR8M0kZl0TNf2+i8a1yUm/p+snCnrKPleD/5efUkmXU8sAzn/Ci1c00qo+V372UWxL6ZKcBE+aTPnt0/PvIXoCxaxnB3TuJzstpDTc92kaAlDwG3TKd6PJN1L82msEzA9T9cSv2yLmkf3l4L78fHefFw2HnEWKN4PIARhizWUf16ChA7LMj2K4cnNnt57QPBNDvWoo3/0RMzSOpoP002rDRaMOArd0ccnQPrtyWEFfmADzol4zG3cUs9sG3qX+7BvVLdzP4hhMXPNNIzU+l5ufFBEsLcX+pb09q2moe6UtuIikJYDpJ3meoWV1CqGw2rmn9iOJWmPD6Zwi8E5SQJcQFRIJWF5RhOThcxfETy6Qc7B0vcXRlOa5F/4JvmpvYwSNYjuE4h3ecU8d1xbSTIevzYO/bRaROx3ntVByWgX0iTGjDcV/sprl8H1Fr0mkfpe+SL5+kNq0iyrB8koZtIrhvH1Err8tWjx45upXA2vVEkqbj+zxuF+rpfHveOBZ0G7ScXJHwZ+/dOPPatoJ6cGS4oTrYpvWnd9TcuaTP3ot/8ypqy5uJxfJIu7WwT9ugdvFwVMqIVhqQrxP+8+P4S7x4/vVuPL4gscMByCrE2fGokTmJlPEJbQvsJFq2E5PheK4YjmIYnPzB1sF5OH1baK6oxPqSt08XGGrepHbbpD5pEo6X9xHbcwB7Wh8vMKwg4bXPEHrbj3PhUglZQlxAJGh1Rc/BkQXhw0ewyCFWXglJOtE9B7CnjSR2MABZ03B2bP1QPWhDP98TjhXwY2EQeWkZVS91MYHe95M46V70dvN5UdOBin6UiUF44/r4vI4jxIJ8Dv2ynEzPy0z0QnrAgZrUYZdTgViboNBrOq7rbiLlk18SOuDGdcsCUn19K0kZnoPTUYJxMAD5MaL7YyiuI0T3hSHtCNEq0Ao63i4HhmR22E4SzcD0B8AyCC77Udetfp4gfd1EVZ+vfQhK8qAlQbQhiE0fO/NXlRA8Gv+vcegYNhK0hLhQSNDqkgfnxV4orSIWOUJkn457Tj7R/9tH1HAQqzJQJ+a06ycVp5+hp8Q8uBcuIiW7q/eScJxl37I66hrSv6YTWr6B0AtbcLW95ZkIVog/Fx/jw25btJL5xowsxg3EuupuOQlg1+wjUgsQJranErMgv4ttswdc8QuMyOEjWP4gkYYxpM4I0PjJAazsSoxmN46LMzsFBEXXz0xo0EfjWXwNzq5aIp3evq2DRFG9uBctIqliFYHSNdSNvxffxM/3okwIcWacZafgs4fz4hzUt44QrdhDtDmH1Blj4Z3XiZQnEWvQcY7sbR+YxFC9PlQqsdVMXCMH+MBdF8CwQDsZggJYdYDHg9opGJ042xmnKVTHeVUh7hE6+vXl1K5+k7rXxjKkKIHr02piTemh0/bRGv/FXgatlo9sm7F2LR1WsPtu9wPKOEJw1SZinmmkXRsk9MrL1I0dTkZBX/oneXHkeLF3VBLZE8DMnkDyZQGaV+4hciCASSZJfX2w4oQT202fW0QBdDSfF6wwpOfg6uqBlX6w/H5shrRuj81BrGZQ0zydt1G1h+tj2DQ8U4bjyL+RSMUzNK1+maaLF5HsOf2sQohz24U71N7RN/nJoiJm3/Yob9d2flu5OAedY0TeKsfMycOVNAbXSD+Rt8oxGI7j/7d3/7FR13ccx1/3o3f9dbRVRG2lSKu2SEoNgYFYdRVFUNHBtBHE4DJnNl0yTJhbYtj8Q4nBP9QtC5oM3NwiBA3YIYKhE6FUkYpSsGKZtoC0/LCl9K7t3fd+7o9irLRcodzH/no+kv7Tfu5zn7t+r33d+/Pjrr7IfzhpHjmSpMi3J+NPG7lSZJNfsfbeA4wt73q5M8OyqrbJss7+aVjhU4H+j/FUrfyHv7/f2LFa+Y9J9ry8nhUou0eOUVKspVWR8+zeOWO+0ic4Fa5YJ+/hvgLaRXCO0T+X3iLrqThfS/uxEN6dJXuKFP3myPdFrGir/Pua4t3q/PV5jYQV2LRO7ceylLpgrtJL58kzUbLK18t3sn936crLls17RB3Vh+UoyJcjJ18ufa2O6ibFLsmVa9RFPB5Jdo9HsloV9sZvZ0txSvIp0n4NZxQ3AAAJN0lEQVSOcd5QIIea1FlR17OAGPYpHHcXQXzRuhoFumXlcE2NglGnXNeN61nNG+WRQ1L4RB+v4++48zRqQYkcHbXyrvuk97clkSZVrlqh5X/Zovoer2kAQ41j2bJlzwz0IAaC74OX9ce1dfKd+ErW9Q9r9rVnTTQk2RXa87ECR9uUVDJXaeNS5Agelm9HvWJZE5R+R4Gc3f7qRg/vUcfBsFwzpnft2OqLM1Oxb3bLv79e4aBd0dPHFTotOcf88F2zLblD1kdfKNjYKiVL0dZWRTocsmeldLVzjpYrs0X+qmr59zUqYvkVPn5IgU92ybfhbflOXqH0ST2ne+KK+WRVVSsUkyI1BxWOhhU+vF/t5R8oFMlV+sI75U47+0ZpsnV8qc49BxT0OaT2kwodC8ie3W1B8on9aq9pkfOGW5VyhV1Silz5mQpVV8tfF1DS1AI5h1KN1Z4uNe2W//N6BVtiip46JP97m2T53Yq2R5U0taTr1HzpzGNv++H3JIU/3yH/sUuUPLOo5wL2Pq6R6IFytbx9SI7Sh84srnbLdc1ohXbtkP9/DrmnXt2tGnl+bK42BSo/U6gtS6n3lMqd4VHs6H/V8UWn7IUlyijudi3FWhXY/pnCWUVKv+H8rjF7ik+Bj2sUPORVTB0KH/9W0dQr5DyrGGsPH1XnpwcVanbIlmQp0tyiiNLlTOu6QGwZY+X0H5D/w2p1NrQr5vcpdOig/Lt2yPvmJlmjblTqhVbfAkfUueMrydkma/8JRSM+BT/fIW/FQcXG3KKMeQU916K50xT9arcCXxxS2OZUtLlJIW+Ski5LO/N8dMr6aJeCylfajKvlkGTLGq8kq1adu2sV9kxS6tizFilWrtCCZ/6jPZ9VqeHKn+ne61Mv7HEAGFRGbEXLM3m2ZuZ65Bk/R3dPdvVsYB8jV26yZM+Wu6ArOdmvyZPTLtnG9lLRuWDJSr3/IaUXOBXcvlFtazeo7d3anu9wPVOU8WCJXKpX+9o31LrqdZ1aX/ODqpGjuEyXPTFXyZmnFHh/s7xvbVbH3iYpZ4rSp+f2e0rOPuFeZd2ZpVDVZnk37VIorViexxbLc4515a7bypQxfYwiezZ3PZ61uxTsq1CVWayMeRNlP7lLbeW9VCcGtWSlzHtI6RM8iuzdqvaKvYrkzFHWPfm9TK32r/9zXiO+Wp1e+4liOSXKuLPbAnXPRGXeXyxb41ad3nzkwp/PzFwlZUrKzJfrSklyyl2YL5sk57j+X0vfsY0tVVbZFDna9sq3boPa3livzl6qmfaJc5Q5a6LsjdvU9trral31uk7v6F41Slbyfb/WJQ9OV5K/Th0bN8i7cZv89X45i0uVXtj/afSkOb/UqHGt8m/ZLN/OI7Jd91Nl/eqOc5yhlaX0hQuVNjYsa/OGrt9Rxdd9PO9OueeUKT0nLGtTL9XHa6doWrZLUlBHGxJUHQUwYGzBYLD/G54AAAa0aM2j92pDyZta90iPc2QADCEjtqIFAIOVVVeuDbXjdXsJIQsY6obSihhchNg3W/XtK99/fl5vbNfN1ZhfTCF9DysBdbz2grwH48zh2rOU+tgSZYz78Ub1YwlvX6XmLUfiLFR3KmnWbzW6tH+nyJvQuH2l/vzcm3I9ulKLrxno0QC4WEwdjhTRgCLeUNydUbakFDnSyN7DTbTDp2gofhv7qN6O7BgGrIAi/j6u+xSPHEY/eunCHFizQpWXL9Li27I1iIYFoJ8IWgAAAIYMx/ewAAAAgwJBCwAAwBCCFgAAgCEELQAAAEMIWgAAAIYQtAAAAAwhaAEAABhC0AIAADCEoAUAAGAIQQsAAMAQghYAAIAhBC0AAABDCFoAAACGELQAAAAMIWgBAAAYQtACAAAwhKAFAABgCEELAADAEIIWAACAIQQtAAAAQwhaAAAAhhC0AAAADCFoAQAAGELQAgAAMISgBQAAYAhBCwAAwBCCFgAAgCEELQAAAEMIWgAAAIYQtAAAAAwhaAEAABhC0AIAADCEoAUAAGAIQQsAAMAQghYAAIAhBC0AAABDCFoAAACGELQAAAAMIWgBAAAYMnKD1oltWr5wtkofXqHK5ngNgzrwryWaPbNMj6+pS1CfAABgJBixQctXXa71tS1q3leu9dXBczeMNGjTuio1Njeo8q33dSCSgD4BAMCIMGKDlmfybM3M9cgzfo7unuw6d0PHeN0xt0ijUy/VtLtuU54jAX0CAIARwRYMBmMDPQgAAIDhaMRWtAAAAEwjaAEAABhC0AIAADCEoAUAAGAIQQsAAMAQghYAAIAhBC0AAABDEhu04pyaDgAAMNIkLmhZW/TkjVNVNPkmlZYt0V93tiSsawAAgKEogSfD+9S475COHq/R2hdfVoUW6d/v/E7FcT6yBgAAYDhL4NShRzmTijRt1iI9MitbOtGgr32J6x0AAGCoMbIY3uNySwrKCpvoHQAAYGgY8F2HVmdwoIcAAABghJmgleyS1Kzm0/Eataji6fs05cZS3fd8lZhlBAAAw42RoJUzaZJyIg1a8/xKVdS1yGf10ijypbZub5IUVP32KtVzNAQAABhmjAQt99QlenHpTXJ/ulpPls3WjJ/M1vLqsxo5Jmn+z4vkSb1U0+6fo0J2JwIAgGEmgcc7dNNUrsfLnlWle6oWP/qAbi7M1lUFBcpJTfg9AQAADFpOE50273xPlb5LNf+5l7T0VpeJuwAAABj0jEwdek97JUeeCgsJWQAAYOQys+swdObIhj7WXTVvX6k/PPGUlr/ToN7WywMAAAxlRqYOz0+D1v9ttd6tk/RpUIUlL2l+5sCNBgAAINGMVLR8QUuSS253vFY5mnZrkTwOSVaTGk+YGAkAAMDASWzQsoLyHanSpp1NUs545cfdZehS8ROr9eE/FinHOVqjqWYBAIBhJnFTh9YWPXnzMlVYklLH666nH1Bxn2djBfXxxvfVXPCAbrk8YSMBAAAYFBJ4jpZPjbVN8qZ6dFVudteUYDxWkyr//qz+tCagBa++oscmskMRAAAML2YOLD0fdav1+AvNuv33v9H8As+ADAEAAMCkgQtaAAAAw5yZc7QAAABA0AIAADCFoAUAAGAIQQsAAMAQghYAAIAhBC0AAABDCFoAAACGELQAAAAMIWgBAAAYQtACAAAw5P8GJPQFw6u0eAAAAABJRU5ErkJggg==;" vertex="1" parent="1">
          <mxGeometry x="40" y="240" width="362" height="154.54" as="geometry" />
        </mxCell>
        <mxCell id="L741VaMt_AiiYlTWoruj-5" value="" style="shape=image;verticalLabelPosition=bottom;labelBackgroundColor=default;verticalAlign=top;aspect=fixed;imageAspect=0;image=data:image/png,iVBORw0KGgoAAAANSUhEUgAAAu0AAAC4CAYAAABXYtIKAAAABHNCSVQICAgIfAhkiAAAABl0RVh0U29mdHdhcmUAZ25vbWUtc2NyZWVuc2hvdO8Dvz4AAAAtdEVYdENyZWF0aW9uIFRpbWUATW9uIDA2IE1hciAyMDIzIDExOjU5OjE5IFBNIENTVKK/nzEAACAASURBVHic7N1/eFTlnfD/95w58yuTCZkxCWQwAwZKwIihmEJQLPEHSNZSi2t5LG3XdelTWW23unV97LZ9ul7tt/Vpu1ttt1XbWlfbUh9q5XFTiyVUoASNGjEpjhAKEYIESMJMkslkfp055/vHBMiPIcmEBIJ+XtfFdZHknvu+58yZcz73z2P6xcbfGwCGYQAwp9jHZUVePFOyUc1mhBBCCCGEEOePlkwS6Orh3SOt7G9uAUA9FaybzWauW7KQwnzPhayjEEIIIYQQH2iq2UyBZwoFnin4vFPZ9upulFN/lIBdCCGEEEKIyaUw38N1SxamgvY5xT4J2IUQQgghhJiECvM9KIZhcFmR90LXRQghhBBCCHEWCoBnSvaFrocQQgghhBDiLBQMQ3aJEUIIIYQQYhJTjAtdAyGEEEIIIcSwlJGTCCGEEEIIIS4k5dQ+7UIIIYQQQojJSXrahRBCCCGEmOQUpKddCCGEEEKISU0xkKBdCCGEEEKIyUyRmF0IIYQQQojJTbZ8FEIIIYQQYpKTOe1CCCGEEEJMctLTLoQQQgghxCQnPe1CCCGEEEJMcudt9xhD00gGAujhngksI0Iy0oahRSasjO5EiLZoOwldm7AyhBBCCCGE6E+d6Jg9/IufkfhLA6ZoBLOexMBE0mpFmeYl61OfQZ01+5zy12NBwnu+jxZ8G8UIo5hAN8zoJjtq7uU4r3wAxeY+pzIOhJr5TtOjtESOEjclSJp0lKSJHLOTpXlLeLDkn84pfyGEEEIIIYZj+snTvzU+96lbxj3jxK4/E352A9l6Ekd8aM93MpmkM8uF+fIrcN49tqA30vRzooc3kWs5gVUd+ve4bqczloN9xi04Su4aUxkPvv1N3uh8izZ7F5iHPkDWkbDiiTu570P/yE1TrxtTGUIIIYQQQgxnQqbHxN94jd5fPU1+tCdtwA5gNpu5JNaLeU8DPd/7TsZl9L7znySPPEeBI33ADmBVohQ42ki+9wK9+x7PuIwvNX6VuvBbtDlDaQN2gIglzlFnkIf3P8pLJ/6UcRlCCCGEEEKMZPwfrmQY9D7zC/K02KiSu7Q4ypHDxDZXj7oILfgO8ff+gNvWMar0bmsb8ZYX0AJvjbqMpw7/hj29+zhpDY0qfUd2mB/sfxzd0EddhhBCCCGEEKOhGOO8e0z454/jCnVn9JopkR4iL20edfqePd/HYz2RURkeaxs9e3446vS/PfIC7fbM3kfA1sN39j2S0WuEEEIIIYQYSfo5H+cg8fZfsFvMGb/OmoiT2PfOyAmNJEakFbPZlFH+ZrMJI3ocjOSIaf1d+4iaExnlDxC1aOw6+XrGrxNCCCGEEGI44zqn3dA0TLHRTYsZzNbTjbZv74jpEp1N2JTRTVkZUoY5SqKzacR0bwYbOc7opt4M1qOHSeiZB/xCCCGEEEKczbjOaTfCYcxjnG5jVhT0npH3cNfjIcyMbY90s9GLHh854O+In8R0loWnIzEUCGkTtxe9EEIIIYT44FEYx6jd5HSSVMYW7CZ1HcVuGzGdYnWRNDnHVoYyBcXqGjFdjsWF1bCMqQxFV3Cp2WN6rRBCCCGEEOko47kO1aSqGNaRA+90Yg4n6ofLR0xnyS0hlhxbQB3TFCy5JSOmu9qziJxk1pjKcCoOLMrY6ieEEEIIIUQ649rTDmC5vJToGHrb43YHltE8HdVkxmT3kkxmVu9k0sBknwamkRfJXj6lBKduzyh/gClaFos9V2X8OiGEEEIIIYYz7rvHOD9/NyGLI6PXdNmycNy8atTpsz/8dQLxgozKCMTyyL7ygVGn/5Tvb/FEM5uG44xa+fq8L2f0GiGEEEIIIUYy7vu0YzLh/PRn6bCMrqc6ZMtC983AtqJq1EWoOcVYL11JcJSBezA+DWvRKlT35aMu47O+T1LmmMfURO6o0uf3ZPOFD30OxTTu7SAhhBBCCPEBN65z2k+xLFlK1t/9A+32bKKKmjZNMpnkpMVO8ooryX7gqxmXkXX5lzD71tAWKSCeSP8U0rgGbZECzJd+gqzLv5BxGT9c8B0WOxdwSdiJkUxfhhLTmR528/WSL7Nq2k0ZlyGEEEIIIcRITI/87FfG3XesmbACwj9/nMTbezDFopgBA4OkWUWZOo2sT96OOnf0vd/p6JE2wm//B1rnXhQjimJKomNBx4qaW4Lzyq+g2NznVMbbXXv5j78+xnuRVhJKEgMDdINsJYsllyziq3PvO6f8hRBCCCGEGM6EB+2nGJqG3t2NyWZFcU7MloiGFkFPhFAsLkxqZvPqR6s7ESKajOK2urGcZRRBCCGEEEKI8aROxPSYdEyqitnjmeAyHJgnKFg/JcfiIscy8l7vQgghhBBCjBeF8xW1CyGEEEIIIcZEMcZ5n3YhhBBCCCHE+JL9CYUQQgghhJjkZHqMEEIIIYQQk5wiIbsQQgghhBCT2/g/EVUIIYQQQggxrmROuxBCCCGEEJOczGkXQgghhBBikpM57UIIIYQQQkxyCrJPuxBCCCGEEJOaIjG7EEIIIYQQk5tMjxFCCCGEEGKSk4WoQgghhBBCTHLS0y6EEEIIIcQkJwtRhRBCCCGEmORkIaoQQgghhBCTnEyPEUIIIYQQYpKThahCCCGEEEJMcsqFroAQQgghhBBieBK0CyGEEEIIMckphqxEFUIIIYQQYlKT3WOEEEIIIYSY5GSfdiGEEEIIISY5RTaPEUIIIYQQYnKThahCCCGEEEJMcrIQVQghhBBCiElOFqIKIYQQQggxyclCVCGEEEIIISY5mdMuhBBCCCHEJCe7xwghhBBCCDHJyfQYIYQQQgghJjmZHiOEEEIIIcQkp17oCoxVrPoRTu7QcH7pfqYUDZ/WiEQxHPZxbaEMm2dnHR3fqka/8V4KVuaPY6kXjtG4geNPt+C4+0FyZ1/o2oyP6MaHCdT7yP32WrIu2m9CP5qfwNc3EI31/ax4cT14D668C1CXTj9dz9YQaW5H14CCSvIeWI5VmWT1FEIIIS4SF3Gooo0qVeKVZzj5okrOQ+MXmE1EnkKcM3UW2evWkZVIkNyzma7XL1RFQoR/u5HwkQIcVauxuiyYHF7UUy3cSVPPcaZHean2AN/Z00lDBOwOKxXz5/B/P5qL/Vzy1UJEd26lp76JRHsIw2zHPK0Ex43LySl1A610f+/H9EQq8HxtFfZ+PQl63TMc39iEbe1DXFI+8GKl7XiCthdawFmG+2trcNj6/7Wd7n9/hJ6joFy9jqm3FWPq+0uqAe/H9pmH8CxUT/9sqMW4/nUdrtxBeSTONNhOp037Rl041j+Iew6ARu/T36RzjxfX1+7ql+e5MfZu4sTP6tFHKl9vpvNbT9LrqCTvX5ZjHU3eRzbT9mgtSd1N1pfuJ3dG+nT64Xq6t75GtLkNPQaKx4u1fCmu60uxnP6INDR/Ld0vNxBvbUdPqCi5BajFc8i68TqyCjK48ehNBL/xDJGCVUz9YgXmdHU/vJm2H9WiVN1P3rQaTjzZeOYYKSompxtLyQKyVy7F7jlTtuHfODBtf0XLyb+vEktnLe3f2kwi/UE/zbRwLdM+UwqjOUcKMsnTTWi0349IPSe/volYv3xNDhfmmSU4brwR12WugQXoIaJbqwm9fhCtU4OcAmxXVZJzUynqqcOkNRJ4cCPR4lVMvbv/8Y8S/tk36WoqYcr/93c4+33/RjxH+joGE/PXMu2O0tPfTdCI/Oo7BBsKcP3rXbg8wx8fcfFRL9aFqLZV91NYBaYRrl3J91rRY75xLXsi8hTi3Nmxzi4GQDu+ndE2bMed3krskIYy/0Zyryvpd0M5ZZLUc5wdqt/H/6jrZUGpj0d8VmKhHl7tjROFsQftWjuhpx4ntFfDPGcBWQvdKNEQif1+wq+34Cp1pzm+oxEi6m8Fhx1TpJlos4ZjXvqLqd5YT+TmYrIcI9W1mcjr7bhWjDy6aC5dSlbR4AxVLOdptEWZU0FWsWvQsTu38hN7m0liR1GDxN5uxZjhHfLZJBs30vHLRpJOH/ZF12HJTqCfaCG6rZqemaV9DRbQ6jfSscGPUVCC/eoFqLYIybZW4ntr6Z15bWZBu1KAmgeEgmg6mNMND3cG0XUVS8GZoFSZtxTnbBfoEZIt+4nuriFwoI3c+9aQ1ZfMNLUM58oCIEFiTy3Row5s11ZgdQK5xakA1VFMVtVy9GTqNUakhd6dTehTy8guKzhzjApTx+tUSDLsOZJRnpHRH6tTCkpxLfYBGnp7C9G36gn9+DDJ9V8gd/apYx8l+vwTBF4JYZ5XjnOJC/1QPZE/baCjay0Fa0vHNLo/2nNEfDCpF/NC1JECdiHEBaBHMWKAbaQo7/1Eo+5QN+T5eOJmH3P7frv+HHNN7NhIz14N9YZ15N3sOxME3FxFoi0yxoAdCDcRO6ShLluOWreZmL8VY55vaH4OO0rET6QxRFaFK11OpykuO9rrdURvHNibmY55zlJc1w6f30RSiivIGUXjYvSCxPytmIqX47RsI7RvP9rNXiz9k4Qb6XqukWRuOe4vrcbR7+3nhFqJ9wWg6C2Et/jRC5biua8Ke/8RkFiQRCTTG58L9RI7HA+i66RdyZYMhDAUN6pHhc7U78zFFbiuc/eluI74i/9Jx58aCb++nKwb+n6fV4JrRQkA0Y46osdcWK+tHDjVzebFeYP3zM+dtcR2NmEUluJaUXrWc3j4cySTPMcQtF8yB+d15acPlWv+Jtp+Vk9kWwM5s/t+31FHqC6Iac4qLvmfFX3TFq7C8tQjdO2uoWdZKTnTMyx3tOeI+MCagLC3b3jmr1fg+cbq9BdvvYWuh5+gt3ANU+8sQ0Gj96lv0Nm5nPw7ColUb6V3f1tqSHDqFUxZvxqHM/XSxJ9+TPuLrakfFDfOL97PlMHDkB3baX+4pt/QmZ/OB7566lqEcvVdTL2t/w0qSqyuhp5dfuInQmBxo84rx/WxSuy5Y80TIER02za6d/rRukEpWoDrU6twFqQZpq52MOUbVZi2b6an/iBaGJRcL47b1zHldMteI/76ZkI7+uppc6POKSN71XIc/YbBzjb/PPrsNwnsnjVoDrdGYvdmurc0EO/QME2dRdbHlsLvnyRcmBquHPCeYq30PFtNz55WdN2BWlrJlE9WYBswtH7h6UfrCW15jUhzG3okdSyt5ZXkrCg5M02jj9HeSOcLNUSbgxi2fKzXfhz3iuJ+97YQ0R3b6W04SLwjiB7RMOV4sZYtxrWiHGu/2DS68WEC+0txfzqfyH/XEj96ljz7hjdNt95D1smthE595mc5R4i107ulhnDjQbTOKOR4sX24EldV/yH18Rbn2c37eHXKNO4sK2CBc/jU0Y0PE6gLnfnFzic4trPv//3ntGci1krPS9uJ7m9FCwT7rgk+bBXLmXKtb0j8oR+to+v5WmJHghjZXmzLVmE/sYHOfaUDh8a1IL0vVtPTeJhkdxTDYsc8bRb261cxZf5YgkmFXIdKtD3KcQ3mjsdnorcQfrUVw1WG68bB73Vgr2jGWTftJ667ybqyHEtbDdH9fuK6D9vgA+q8Asfst+l99U0SFZUDg9BBLAsXkNzpp3dvFfbSD1iPSmcTsaOg3lyGQ20i9EIT0Y7KAT33Wn0dsbCK7eYbBwRjACaXl9OX0FgbWgCUhcVDr6s2N5aMr7Uq5jwXJEJo3YAnRM9PHqb7wJnpQFpnCJQCzHmcDtoH52G5fBbKn9pJtrdhMNYRnouT8qE5WG31RNvbSehgU0Db00RCV7EvWtAvkHLhKC8htKeRqL+dnOmZNQxHfY6cg1hvHFvWaCZ8icloAqbHqFhnFEBDK4kA2NMNN4ZTf1OXDLoRhZro+mkdxswKXLffiFkPEWtoJhkD+gIG9arVeIqiGE01BHeE0mQO5F5Fznofhp4gsXMjob0FZK9bjrVvMpnJUzAgYI++8DjBHSHMZeVkL8mHniPEdtUQ+EkIz32rsDsyzTNF3/08XQ4fjmXLMQWaCO+qp/vXbqz3pbv5BYj88mk0SnDeshaLTSOx/02S4TMpEjufJrCpGS4rJ/vWQgg2E6ndTvBID3x5NY4xdGzq/mpObqiHwjKct/gwdTfT++xGjDhQODh1gtgLG4gXluJcUYreXE/v7mo6XV4KbknTSzccLc6h0AjTIlQrM12Z3/z1/Zvp+HktWrYPxzXLseSqGCeaibz6GtFlJWT3P056Kz1Pt6KWlOOclyBRX0f0pY10Tr8fz6nAQw8S3dlAIq8E+zXlqLkqxnt+wrs2cfKoRt7dFQM/z84Gup6bQdaKNWR7NOI7nqd7cJ594n/cQHLeUnI+dyOmgJ/Qc9uHniNaK6HHnyR01IFtybW4Cu0Yx/yEd27gZGAN+XeUpZ2neu4UcpUoz76yj8dfOUDFrGn8/Ye9fGqmPe10D+v1a/Es0CBxkNBT20mWriL3moLUHx3uIY2lUenaT29dC6bSUrIW5qM4NJJN9fRuepJE+C7yV/abgtBZT/DxamKKD8dNS7EoQWI7N9AdCzHwA9KIVj9J5y4Ny6Jrcc3MxhTrIbG/gdiBIMb8wdMmRkOhcn4ec5va+M7rPVRenT2GNztIoIVEJ5hKS0bXKE5GSHYESfSfsxtO18uoEXvnIEbOAmzT7Vjm+TD5m4gdq8I2pGfQjm3RFUSeaqD3SOXwi/4Lr8Ixo56eOj96admwUwOMcJBEx+Dvfyq4vBi3NEvu85MgH+dcN6q5BJUaYntD/XqKo8T2t2IoXqxzRmhsWVyYbKAfeodYuAT7CI3l0VALCjDRSrILyG0lcQwghHYkCHNc6J0hyC1FHaZVZgRDGIDiPD8jJON+joz6+5FGT5BkAnC6Tk8vShxrA8WNOnXg1VApLMCsgHasDYP8DK4lGZwjp0RCJDqCA+a0J2Nnu6+eZOtX/4H7ft9B8ae+y68evIYLN9YlxmpCpscoM32YqSNxVIM8FXQNPayB046igNHSgoYb+0z3wBd2tqBfdxd5q84E8/ay8gFJTLle7LmgdzuAswTtqgvb7L7TscECuFA/VIw9TfxnHNlJ1852lGV3kXfLqXLLyS7Npv0HtYReX4p9mTujPE/RtVl47l7dN7xZgSX5fQJ1TUQDlVgGLxDR20kkq8i7ZymWvjdvLy0983etiZ6tzegFS7nkH6uwqak8nYUbaPtVPT2vVOK4YdDxHFGQ8JZ6dGcZ7rvX9AX9FThynqR9U7pjG8Uo/Dh5d/YFideWYPr3R+jZ6ye+Kk0v3XDeO8RNG49zaJgk9mkzafw7HzMzyBa9ldDztWiOUnL/aS1ZpxewVeC6MURycPCjhzAvuZdLlvUduzIXHd+uJr7nIEZp33xspYDsL3yF3Nz+H3YFtuxH6NhaR+RYBZb+DRwdrCvWkFOWuphb/3Y5cf/GgXn2MbLLyF1TkeqBLvJies9Px7aB54i2q5qeIxbsd34BT6n9dPmOvCdof2EbPUfKRtxBaWxUVt60iMMVnfy/Pcd5yt/K+o3v8aA7l9vne/nHsjzm9msAKXm+VCM9FiIMJHO92OZk2JgbbMpVeL5Wido/cLm6DOUn3yf06mvEVpwZzYvt2E4s4ibrnnXkXpb6rJxzVNp/sB29fzCitxHbG4TiVXjW9FsYdm0lZ1mhOAo6+zriRNHZXrePb/gW8tCl5xZ+GoF2kjoonlH2aoYa6Xq4ceR02kGif42ilMzBqoAypwSVzUT3pe8ZNJUsxuGpJ/JqMzlFxWfPV/HgXDKLno11hANlwy6CS2x5gvYtg19fSu7D52dxvxEJkOgYVJDNhWUMnQQQJepvwfBUYJsKMAdbXg29/iaS15b3nV8Bkp1aahQ358wr9VAQPXGmfNWpgjoL57VeYlvqCTx8GNu8Eqyzi7HOmYUtd2wHx5TvRqEJPaiB8xiJmBfb7ADx91rR8abq5nGfvvcAGL1BtACgaySP+un5vR/DWYxzydC5+hNh3M+R0X4/AKJRtEAQBdADLUQ2byOBC3tlWV+vehQ9HAUKMOUMeq0zGwUwwiF0yKBDJYNzpI+xv5qOb1cPzSrdpSe5j5odqVkKzTt20fwv11A2Mb09YgJNyOXRVOjDYqslcagVo8yHsWcjJ55uwrb2K3jK7SSOtKJbvFi9g16o+HCkGfKeSPEGP0m8uJZ4MWnamSZMXglWz3YiB1rQl7nHVCdlblm/HjIVq88Lr7SRDAFDbmgqtiXlAy6a/RnHmomHQV1S1hew95Vx5VVYnX6ifz2IfkN5ZvUMpYZ0lfKy1GjCqZosKMXyQjOJIS9QsZaVnrkIKflYptvBHzrrXMmzmurl0VW5RIdL48hmWgZZAhjH/EQ7wLysEsfgHSecrqEXUMWLraxfYyfHiyUX4p2pXqXUzcmO2j8vHQxdQy3youhNaAENCtUBeVpn9+t9seVjdoE+IM++pLNLBnzm6lQP6P3PkSCRhlRAkDVbxdC0Aa9VqSHeHIKiDPtMNI0TYS3tbE+HqjK1343BPiWX25fmcvtSnUOHjvNs43GeeuUdHn/FSuWsaXylciaVUzIrftRsLtT+DS1dw9AdWKa7oDmQGoVzALQTOxAEz1IcM87U3TR9Afap2+np/0YVC4oD6Ggm2lGOM6//Zze2ah56620+/ucoq2+6nMI39/GdF/ez5DNzWekEiPL/trewb/pMHvxQBsPSsUSqZ9Omji5IchST/bflAy7qxoFauupaByQzDu0nFlaxzp2RerueEmyFm+l5uwnthvyhNwXFS9ZiL+GX64isKubsA3oqyvzF2F54hsjrrbhWnr3b1rxoFa45g3Iyuwdc2yZScscztO8Y9Ms5q5m2PsNrKEDsILFmDaWspG/6lxfbbBfhN98hGinH6SB13iYA1YLpdAHt9Pw0tUMPAKVrmLauDAUV28p1XJK3jZ5dfmK7a4nV14JiR12wfEzTEU2efFQ0kl0hdFpJZnvJXmAn/ucWEpoDrROU6QNHi7VtT9K27dRPKub5y3GvWorjPC0WHvdzZJTfDwDe3UzHtzaf/tFUWIZrfRXZpzruSKQ+T9R+n2cfpe+8T2iZdYlmdI70mVHBlGsHdowkdj1P+HCa/M1XcuvfzmfnxlYuv62KuRKwX5Qm5hKp+rBMg+jRVnR8JJpawKES338Yo3wGiSNBmFaOdfCFx1GAZXCrdUJpJANB0DVCD38jfb+9K9VaHlPQnjNomF1NlZkmGgbFhXnqMHtMdKYCY6tnULSvelKt8lAQDUa1NdkpRneIJKB4PAPr6XSngpohHCg5A08Zk0LmFycARzYr543DFILBAqldEGzTh05XSktxYR5QDTX1YesD31Py3Vq6/1hP7HA7emxQ+sGjkYoDZfC5nSbPVFLHwHoqMOAc0YOpIe3OOgJfqUv7Fsw9IQwynNLR2sxHn00/0nH2EQ6FmTO9PDhzGnc2t/D5zS281NTKZaUTGLQTJV5XQ2iXn/ixEEb/nnDFjXHq2Oshkt3AVPeghq8bcy6D1qLlk7WinN5f1dP17W8SKvBi8fmwlpbhLPNm/l2Pd/BwbSfuK6/k/8zPxX5pMa8+c4DPv5jDn2/zMpM4bzW1UWf38eCHMsjXZkntphHThjT20qcvwLqgbOCWdvFGugadNnF/EzpeLPkJtM4EoKYaQbubiIaWkp2m/WdZdBW2rZvpfSt0en1R+jrMImuhm0D9m0SvqzhrMvP0UrIWXrjBefPCKlyXDyrfPbZRIf2An3hExXKpi2Rn6i5ivtSH6ZWDxPZrOMtUUByYLEAokTqHFQA3jlvWona3EH62dtBtwY61vApPeRXEQsSbm4jW1RLeXU0w6ch8SpzDgzkHEieDxHtaobAS+4xserpaSHTmo4fBPNU9cPeWhatwzXdBLEj8tW307m0gfu15DNrH+xwZ5fcDgOkVTLmxGFMyQnLfa/TUNxE9vLRf0G5JfZ5oA69JwOluccsoG9unZHyOgCm3mKyFg7Z8fOe/0wftuFh83y945b5MKiUmmwnq13BhnemG14+RiLUSa1axX19K/LVm4pqFxDENZb5v6EVn4lbUDU8txvX55VjTdQxZ3RM0X3hIJT5Yu+EEO3iksZvgMEkcUzys/3Au47RF85gZR2s4+dh29KllOFdXYcl3YFLAOLSdzhcOnp9KFC3F/YlSlDQRpWnKKBso/eV7eWK1J/1Ix9lGOMI9vORv5ak9Hbx0UsPuzuXej3i5cwJ3P9V2/pqTm1pQ5i/FtWIWanaqZ0vbtZGu3RrG4N0URhlxm0tXU/Cvi4n69xM/1EJsbx2h+lp6r15H/m3FmQXubZ28GlOpLO7bj93t5emV3SyubuaOV7L546IohyIKl7kzW/xl8rhTc2MDQQzOcZrRKXpramqQHiT0g4cHdVREiO2Nkr0oTeeBawGOuTV0vvYmieuHK0DFXlGGuquO3n1lE3WDOWemghKyFo7H7jEacX8zOhqx5x6hbdBf4/6DGGUlmHBh9qhwIojWA6mLmopldikWDaK/Td+XA4DNhXVeOdZ5JZh/9n26/I1EI2WpHvzRUvIxu8HoaiWRCGGeOQNlqgtVfZPE3iBJ7Kh5AwNkpbCErL5RyKwyL8b3niT8XA32+6vO24jIBZNTiKOsb8vGhSWYY4/Q+cdqeubfhasAQEVx2oEIRg8MmBwe7kEHTM5Tc+/VEa5LKiYzcC7niPjAmLB92q0zfSg7Wokf2E884iP76jmwayuxJgeJbhVrmj1sM6af64x8FbPHDXoUcn3YJvMTGXNdKAokAwGg37wiLZDaEWC668wNUlE5M3x3OiHJ8MAuYVNOarqIFggMXDATDqKPYZesjHQFeOz1kea0q9yeadDucaMoGomjbRgLx2fuZXx3I5ruw7VuzYCHvOgn+s6/idyGS3FjngKEQZmRwbqBU+nONkfbkU3lh0Yx0qFr7Dt4nKf2HOc3zb2cQKVi1jQeueHsC1IzMmw9g0R2N2MUVuK+o//OMxr6rggD7pSKC3MOfBOYHQAAIABJREFUEAie3t3hVB7JtLthpHZjcFR4cVSQ2g/9sf8k9GYd0U8Uj2HOrM7xiMapfpDcktk8fbSHm+r2cVeXnW2mXH7oy7AP31OM1QOJQ03EYmWDHn40Rh37U9PHyleR03+XHL2d3o01qV74RekWkdpxLLmC7p/W09syeF7jIIXlOGbU0vOqH2XMawQuEnor0f0hKKog98biAT2e8ZefJ9z0DjGtBLtqx1bsBX8r8f1RSNcwGpELtcAFTZHU9TmjjQdcWPLtGEeaiPWoWJa5QbVjKYwQ8beg48GSP8xJbyvGdX0x0efq6dm9FNuiD9ISRhdZK6+lx19DeGsTzrUlKKhYCgtAb0U7NnB6pH6sjaQO5sK+zhRFxWQj7Yi0kQRsp6bYjMc5It7vlInap90004dKG7EdTSR9Jdgcs7DNCBDb0YSGF8vMc2uqm3JcKIRItg87KxqTQwVCJHvS/926oAQzrfRubRoaN2ghtDRzZkbKcyKYCouxOkFraKT/4nD9L2+m5roXzzpzo811oShREkfazyQMNRBtHjSPw1WCbTroexuJ9gvStT3+EZ80d85mzqHpgY8SG+ZfV6aLUAFTYSn2PEjWbycyOFiLRFNz7zNkpFuMr7UTfvUgBlr6v48bN44FPkwd9YR3Dz0ZjXAQLTb0VUquC5MeINF+LpWL89RzdZRtaua/2q2sXjqX1+65mh2ri7lzPAL2EeuppX/uUqCeXn/0dJKUfGyz3RDwEz1y5kXGsQaiJ4bmqw8+Zqob1T3Ga1JBLktsOi+90UJd/HSGVHx0Ll/Ji/Osv5PLrvLxiUx3d1J8ZC32YQr5CW1tGXR9ihI/epaF+MPQ/E1ougvbogoc80vP/CurwD5TxWhuIpbmfAIwzV6MIy9I9PWDI9w13DiXzIID9US7M67iRcU46ifWCWppBVn9j+f8MpxXeiF0kOiRVFq1vAK7UyO2tWbA9XaoIFF/a5r7USvR/cHUTkxjmEZqzvfAiWbiYS+WS1XAhXW6i+SBZnSLG/MIT89Ur1qK3RUl9nLdgCeGfiAUXoVznh29YTvhjtSv1NISVEUj9np9v8tUiEh9E7qSj720byRHKUAtADpaiPfbDY7IYeLHgLyC0ztrjf4cGZuOHY/xv+55gG///l3O8jUXk9zEDXI5fVg8GuEDLVhXr0VBxT5vBl3PNmF4KrCc45wH04wybLn1RKp/TVe4DNVhwTS1mKwZA3sALMU+lG2NhH+3HWVRIYoCpvwZ2AtSIYep6DqmXNtEcMcG2jrLcZYWYtJ7SB5rIeY/iFL1FfKutmeU54RQS8i+sZjYplqCj2k4rzq15aMf3VPOlGvODPWaCkuxeWrp3fZrAolyLFkhEvVNJF12CPTP1I1zRTnhp+rpetyCtqQYU3cTvXXtmC7Wx24pXly3LSX201o6f/AEsSWlqS0f21uINkZxfPnvBm75OArW0hKUXXWEn9oIi4tRkkFi9XVEAyoKGslQEBjPB7UMpF6ziuyGJwk9+2PaD1yF3eeCniDa0WZi+8F53z19Q7ZnKHPKsDn9RDdtoLvrcsyqBWV6CY7pmZyjCpf5vDxe7uVTxeMTpA8pYdh65mMr9dKzpZbgLyFrnhtT6BjRXfVoij01jz0E9I2Q2ZZVYqvfRPgXT2NcX4ZFaSe6048+eA62fpCu71WjFZVgm1mI2aGhH2ok3BBFWVA27I5QaVnzePCjHrbVvMctT/fw96V5fNihs7eljac6dOwKvHu8mxNkMzXDrC3LbiX7r48T+tOTtB9ZgP1D+SiJIAl/AzHPx5l2Z1kGo0khontbwVGCdchuQ3Zss72w99TTUdO8XPGStdhHuLplxJKU+YuxVTcRDXF6u97+tH21dIcHH2gL5tKlOIv6/z5EfEcN3UPWiDiwli/FPtGPae9uJvxSzdBpZBYvjhtKMfxNJHUXWcVDv//m2T7MSm3q6aiXeTG5ysi5rYn4L+sIfq8V24dLsGQn0JoaicVAsdlTn6UeJPq7Jwn+zodtbjGWfAf0BonvaSDWpqKuWJr5OQqoeW5MeitGgRdL32dimemFHUGYkj/ylqy2EpxL8olsqSO851psZXbo8BOqb8WAVI+zHiK2swbDAeSWkF0x9o0lRn+OnA8uspYtIOSvI7y9mezbijEVVOBaVE+wbjMnf9aOo7jviaj+KEr5rWSf3j7VjbOyjPBTjXQ9+gzxhT7MhIg31BML2bGvuurMjrSjPUfG5F2e//Ev+EMTsDvO3KWPcOuFnnsqMqZOWGSmFGD12QkHPNhKUoG0MrsYVWlCKyrO/CErg9mKmXJHFcZztfRWb8LQQalYh2PGwAV5SmkVuSs0ul/fRtdTqfbwwAch2bHfsh5PYWqlfri6Dl1XUTxerGXXkTV3aKgycp4Tw3LtHXgsmwlt99PzfB3YXJjnVOK+ZfnAxWGqj5zPVqFv3EZsWw1xjw/7ik8zpePXnHx58HtZxSVrVbpeaqDnuQZMU0twfrIKbcPG4Xd2mcSU2VXkfTGf7i2vEd1ZQyQGSm4B1rLKMT0ESplTxSW3Q9eWBnqeb8RARSkqJ/fuOcR/9gyRllZ08idu1yPVi2v9esxbawg31tFTH8VQ7CiFM7BddxX2dItAHaXk3rGc4HM7CT/XhAGoN9yDfXomU4ZUKiuKqRyv95HOCPW0rlhLbqKaUH0toUYNVDvqlVW4rwnR9ePtaO+F4LK+hnpuOe7Pa3Q9X0vkxU1Esr3YrltD9v4n6D7WbyGnUoC93EfY30Svv+/7nlOAddlaXFVje/T4zLIr+LPrEN94pY3f1B3gcVRmTvPwz5+Yy8rO/Sx7+RD/tMfD/52fYdNHzcf1uS9g2VFDzxtN9G6ux1DsmItKcC7K8HrT9xRUZqZ5aA+ngswWYv4WjHnppz9Yyq/CtqXlrL3xp9lKcC50E92RftWKvreWnr1Df291XIWz/05IejC1leeQlC6yis9D0B5uIbIlTSNFLUVd5iW5tx0cpWkaQX2jo45aIvv8JFZ5sQJq2RoKcnx0b60jWreNaAyUPC+2latwXX9qi1kvjr+pxHhrP/E9tUQjGih2zIUzyFpTSU7FGKf95eVjViB5qe/0/Vcp8qEqfrRLRvccBes1S7Ht2ET05ToSZZWoJ/yEtzT2GxUIEd+5nThAkQXHOQTtoz5HzhPT7AqcRXWE3qwlfFMx2S47jtvWQc5mel5vINzU99C7G6pw3TTwOqLMv5W8dQV0b60n+nJT6pozvYTsO6tSi337GdU5MibTWbxsPv91YA+hWCtHT8AFXzAmMmZ66Ls/Mr5y710Xuh5iMtH8BL6+gfiiu5i6emIbIkJMrL6nP0aWk//l4Z/oKYQQ73t/eZSVn2vijuqf8KlMh/7EBacYF+ckCDGOBp8B+l/3E0/YsRaPYVcSIS6gIduvhZpTzyKY4Zu0O5kIIcT5Eee16pfpKLmaj0rAflGS+9gHXdt2Tj7dgnl+MdZCN6bOZnpfrscorMRZKqvXxUVEb6H70WqSM0uxFOVjJkhs5zZiug9XZbE0QN+P9CaC39qYmkJyNo4F5H5tNY7z+dS+8+GD/N5F5mKt7Pz5t/jfmy/h80+sYfrIrxCTkATtH3SOQiy5fqK7aoiENUxON+q8Ktyrlr7/9+IV7y+KC0uRnZh/J7FdUQyLHXPRFeTcXUX2ZN7OVYydMosp992La5htV01Y0j7f4KL3QX7vInOHXuI3b83ki0/+I7eWZPbMCDF5mP7tuz80/vXe9Re6HkIIIYQQQoizUJiopysJIYQQQgghxoUMnAkhhBBCCDHJSdAuhBBCCCHEJCdBuxBCCCGEEJOcIjPaz+h89EWeK3uRv+wbOW309T3U3raJTWUbee6Kjbzwb8fOufzYW49yy6I1/Mh/zlllzNi7ieP//FXat6V/guEAehR9pCciZmqEPKMbH6b1gQ30DrO72UWls46O+79K20vtGbwoxNYHV3L1+t9ydMIqJoQQQojJSHra+0kO+c9Z9L7HXx7YS3tyKnO//hGu+m4F5Z90n2PprTz76Ebal/0Df196jllNIOPwdtof+k+6Dk/uPN+fXNz4uTVcuvtJfvhy6EJXRgghhBDnkezE3c8lX7qZ1V8As3mEhO+2cTJoJv/LH2HeqvF5MHrsjV/xm7+4+NgT1+MalxwzY5q3mqnfXT3yGdHZihbSxvfEmYg8369m38LtC5/k20+9wNHrPyMPyBBCCCE+IJQhz7D/gBsxYAfojhNPgtk1XgMVcXb+7iWO5l3PDQsv3EMPTCry1MhJ7xKWr/wI+P+b55sudF2EEEIIcb5I5yYQfqqGzf/eN5fb7GTWhpv58JApKkH8t9Wwt99896Nf+B3P9f3fctu13PJvhWOrQOwNal4N4Vp6DQvSNBqSrzzJiedDZN93Lzlpu1Y1Ihu+Q7DpCjzfWI1dAW3HE7RVO5jyjSpM2zfTU38QLQxKrhfH7euYMjv10RuHN9P2o1qSet/7uPl+8m8YNNVHb6Hz20/QGzjzq8jjXyVy6ofpy8n/ciX9xxySB2rp3lJP7Eg7ejL1ZMqsj1Xhusw+5jwBjPZGOl+oIdocxLDlY73247hXFA+Y52UcraHtB3VY7vwXskM1dG9vINERBYcb6/Vr8VznPd040d+tpev3dcSOBNGxYy4qIauqCtfsfuMdnXV0fKsa/cZ7KViZf+aw7H6G479qJevuB8md3e9wHa2j6/laYkeCGNlebMtWYT+xgc59pXi+tgr7gLZeiOi2bXTv9KN1g1K0ANenVuEsOPtX07XkGubyXbZufZcvllx21nRCCCGEeP+QoB2w/005Hy1NkHi1kVd/ET9LqhxmPlRJfhh0/zu89u8ncX/pauaWpaJs87RzmNPeVE9jJ1x+xVxsaf5snuFDpZbE0ShMt6dJESRxNIrp0iKsAwLCAJFfPo1GCc5b1mKxaST2v0kyfCaFaVoFuetLMDob6Xq2Pn39FC/Zn12HPQY01xDY0oZt1Rqc0/tCaoeb/m2NZONG2n/ZCNPLyFq5FIUg8fo6Qo+1YnzxLnKK1IzzBEBvpefpVtSScpzzEiTq64i+tJHO6ffjKR18KkfRdv6aQMCCo/JWnG4V4/g7RHqip1MYR2roeGw7yZxiHFVLUQkSe7WO0E9b0e/5AlNmjOHr0VlP8PFqYooPx01LsShBYjs30B0LMaQFAui7n6fL4cOxbDmmQBPhXfV0/9qN9b6hDZbT8uayYCo8vaeeDi4jL/NaCiGEEOIiI0E7YJ7qpmAqJE/YgbMF7WacpQU4AZLNAFg+VEDBotHMpxleqOVdOnCxuOiS9Amm+lAdGvGWVoxFxZgAPRwCmwtFBSKHSbSDuWzGwJXFejuJZBV59yzF0vcHe+mgIQSbG9tsNwRaOfvSRhV1RjEqYERcmAiiTC/BPidN0lgT3S80YhQt55IvVp5pRFTMIvi9Jwlv8ZO9rgwlkzxPv58Q5iX3csmyvgZSmYuOb1cT33MQo7RkyNQe7aiFKV/+O5y5fb+YV0LW6b9G6d1ah4YP1/p1uPoi3+wyNx3fq6Z3SwPZ/7N8aMNhBLEd24lF3GTds47cy1JfL+cclfYfbEdPF7Rrs/DcvRq7DaACS/L7BOqaiAYqsXjOUojZy/TpwOF3OZqEvHM/BYUQQggxySmGTGq/4LqD3cRw4co5SwJ1BtbpKvrR1tTGNqE6Ag89TNtzTRiAcfQYCd2FZWb+4BdiW1J+OmA/H4zmd4h1qlgXX4VF1zC0vn9mL/aZdoxDzcT1MWaueLGV9RvRyPFiyQW9M5T2LFZKF5OVm+YPANphYs1RKCojq39XtWcBjmI1Vc+Mt5dsJ3YgCJ5SHP166U3TF2Cfepa3NLcM2+nhFRWrzwt6iOSwm8O4mOK2QmeITDaMFEIIIcTFS3raLwp2rDPdsKOFeAyUvzaTsNgxNTcT10swH2lFV7xYiwa9THFhnppuOs3E0YMBdDRiGx/m2MY0CdQQus7YNhtVXJizB2SWykfX0gbt5sKCsy+sjYUwIqBc4h5UFTtmtwOagmg9wNmC/nT0EMluYKp7UEPJjTkXzkzYP0PJcQ2sowqgQWKEst4v+9ULIYQQYlQkaJ8Ectw52DhE+zDPNbLMmIGSOEiiTUPZ34J50bWou/3EAxrmllaYeh1Wx+BXqZguyCfswn7bWpxpF806sJynOpmUCS7obCMGEz6yEaIrFIdcF4PHVoQQQgjx/iRBe39mUg9WOs+9mK7LLiPPvIujrSeB9PPaTb4iLEo9iUNNcEjF+j8qsHTsJLK3CctRDWW2b1J8mIrbg0ILhlKAbcb57eXPiM2FyQH6ySA69Ju7HiUZjICtGPVUr37fXHQjmcDgzLaYemhQ17niwpwDBIIkdLCdDt6DJDvHse7JVo4eBWaUMF3mswshhBAfCPJE1H7MeXbsRAm3jDQ3YZzNLqfMBc2NfyF2tjTOGVjyQWuoIxaZhb3Ijn2eF62hjnhAxVLsPbc91p0uzBZItrcNv8rB6sBEBKMnfcvGVHw5tlyN2K5txIa8GQ0tEB36ohHynBDqDGwzVTjSSG9Hv98HGog0a5iKirGeagXZ3CgO0I+0nOlc14NE/tI6KNP8vkW9fqJHzrwX41gD0RPjWPcTjTScgHkLr5SdY4QQQogPiMnQOTt5lF1K4fR3efeRXbzVfSm5OWbMxYX4Sie4x9j2ET621MUf3niDhth1LE637yNurEV2el5vxphfjlUFZc4szM/XkMCLy3eOdbSVYJ9jJ7q7mqAriC1fBacXR6l3QMvOdGkRFls9sS3PE9JLUR0qpqwCrJf1zQ23lZBzSxmxX9YS+EE7jo/MQXVo6Cdaie9tIuG7lWmfKR3QwBgxzwlhJ2vFUsJN2+l5/Bn0a+ZgVoLEdtURT+bjvGnBmd53dQaOEjvR3TUENkSxT4fk3nricReDh2Vsyyqx1W8i/IunMa4vw6K0E93pR3eOX807Xq1nH5dxxzLZo10IIYT4oJCe9v5shVz5H2VMz+vm0Hd38+ZX3uAvz3efh4KtLLptJdM7XuYPb5xty0kV60wvJlQsJX0PE/LMwZoH5PiwnHOXq52s2z5NdolKfEc1Xc9uousP/qEzhVzlTLl9KVaa6Xl2A8EnnyHwfGNqV5s+5rI15N+zCntugOjLm+l+bjPhhlaYXk52hW/oiMAo8pwIpqLl5P1jFfYpbUQ2V9P9Yj2asxTX59cx5bL+7Vk7jtWfJnuei2RDDT1bG0hOr8L9sVkog79BueW4P78KhydI5MVNdG9rxnTtGrJ9gDIeT5w9SU3NG3Dlx7m15JwzE0IIIcRFwvS/H37E+No/332h6yFo5Tef+yQ/cn2dP/5gJa6RXyAuGiF6fvIw3ZH0T3nNyIHHWLPmBS77wW/5P8vkLBFCCCE+KKSnfdLwcus/rSF/1y/4L/+Fros4F8bgXWVCzcSOgjLjXBcLh9j68xd4b9E6/kkCdiGEEOIDRea0TyK2K7/EC69/6UJXQ5wLvYXuR6tJzizFUpSPmSCxnduI6T5clcXnOD3GxY0Pv8SN41RVIYQQQlw8VAx5IqoQ40ZxYSmyE/PvJLYrimGxYy66gpy7q8iWrV6EEEIIMUbS0y7EuHKTdds6si50NYQQQgjxviJz2oUQQgghhJjkJGgXQgghhBBikpOgXQghhBBCiElOgnYhhBBCCCEmOQnahRBCCCGEmORk9xhxmh6JYnLYz3Ev8dFLbPkx7S+1nv7ZtPDvmPaZkvNWvsiMsXcTJ35Wj3nV/eRf5x4+sR5FT9hRbOenbgDRZ79JoLEE9zfX4Bjmyma8W82JH9Vx+hlYnqVc8q9V2NJ0YRiNGzj+dBO2O76Op2yUl8vObfyvNV/j6J2/5Vef8mb6NvrlU0fHt6rRb7yXgpX5Y89nEpmU33m9meBDTxItXsu0O0rPqS5GJIrhsE/K3jB99zMc/1UbWV+8n9zLhkmo+Ql8fQPRWN/PihfXg/fgOl9b1obq6HioGq3iLqbe5pP7wSic9/NOb6Xruz8mnLuaaevLJ6BcjdjO5+ne5ifRqQFg/8xDeBZOspA19gbfvu1eGlb+go33lJyXIifZERAXRojeDU/S3VlB/t0VmM9TqebyVXiKIqAfI7yhhvh5KldMLOPwdjp+UY/66ftxz7nQtRnKNG0puevnQFIjtmUD4dD45r/3mcf4E7fw41vPIWB/n3o/f+cTrzzDyRdVch5aS9bFfGdVZ5G9bh1ZiQTJPZvpev1CV0gM531z3vVjHK6h84VGjHmV5PxNASbAXHwe3lxsH/ur/xdvN9TRGQFH4Urm/M13ueryqenT2z7C5z9bxsofPsbztz3CrWdJNp7eJx+xODchtKPt6PbzW6ri8WH3ADpEJmPXlBjANG81U7+7euSrRmcrWkibvBcXhxv7HDegkXwFGM+gPbSNn/7uXaav+SaLz+Mow8Xi/fydT77Xih7zXehqjAM71tnFAGjHtwPaBa2NGN7757w7QzvQTBIfrtXLyfacr1JPsP/pFdS+DZdU3MeiqRFa6x6n8af7iK/fwZK56QOkvKpPcsOPH+DpDU3cet/E97a/zy6bQoiJZFKR4ephdGz5LTtDJdx80/kZKhVCiPcbvTcBqJgc56/MZPN/8ObbJ3Bd/QwfW/sgV9zwECvueZRLbQ3s/8N/nb1vx3UNH1vqonnzb3ktdrZE42fSdoaJNPrmXsYX3kXelS10/Xcd8aNBDLMLZe6NeO4ox3Iqbayd3i01hBsPonVGIceL7cOVuKpKsfR96nrdMxzf2NSvgGpO/HN13/9V7Kfm8cb8BL61gfjstRTcUTqwpdexnfaHa9CX3UPBKi8mQPNvJ/SKn/h7AfRwFGxu1DllOG++jqy8i/OUM47W0PaDOix3/gvZoRq6tzeQ6IiCw431+rV4rku9d6Otke4t9cQOtZPsDmFgx1xUQtaNVWTPc2FCI/Kr7xD86xV4vrEae7pms95C18NP0Fu4hql3lo2qZZ185UlOPB8i+757yZmeLoVGZMN3CDadKVfb8QRt1Q6mfKMK0/bN9NQfRAuDkuvFcfs6psxOfVbG4c20/aiWZN8kcMvN95N/w6A57XoLnd9+gt7AmV9FHv8qkVM/TF9O/pcrz5yfQPJAbepYHWlHT9oxF11B1seqcF12LkM+Gsnm7QSq64gdi2Dy+LBdX8WUCu+49VAYx+oIPF5NPLcS9/rl2E/fWEL8+eVGYlPXsHi4OcMAepDothp63mgm0RHCsLhQi0vJWrmc7KLB7z9EdNs2unf60bpBKVqA61OrcBb0+y7FWul5aTvR/a1ogSB6QkWZ6sNWsZwp1/r6vfdWur/3Y8KFa7hkbgvdWxpIBKKYPMU4Vq0hZ77rdKPMaNzA8V8Gyb6nCv68mfC+VnRcqKWVTPlkBbZBIwkT83mON43E7s10b2kg3qFhyptF1qrL06QLEd2xnd6Gg8Q7gugRDVOOF2vZYlwryrGe+sz7rn+J0wsk/HQ+8FU6+35Sru4/L3uUeU60oJ+urTVE/tqOYcvHWr6cnJvP3BcyZXQ2Efr9diJNrSQjoOT5sH20iilXp/nOhVoI/XE7kXcOk+xOXT8tpRVk37wUu2uYQmItdP/0aXravLjW34Fr+gTfR0b7/dSC9G7eTM9bB0l2a5Djxlp2HTk3lw04ntGNDxOo95H77X5TWE7NC89ZxdRT01L71rGYbr2HrJNbCZ26Jg/+zmd03k2kKPFXNhLa6kfrUTFNL8H58Y8P+M6n1gW14Lj7QXJn93vls98ksHvWmWPS997jp99TO91f/SrdfT9N9Jz2k40vEVEWcMXVlZhbHub3f5rJDXd+gjlzc3mvcROHO9dzRW66V1pZsLQc2+9r+dNfYPFHzl5GrDeOLct6TvW8OCOoDzj9UA2BxhDmRZVMWeGC0DEie3vQdVJjJ1orocefJHTUgW3JtbgK7RjH/IR3buBkYA35d5RhBkylN+JZvxQI0LtxE1FbBbm39AXlioq5sO/0sJXgKLET3dtINFZKVr+bdWKPnwT5OBd6+y4QGom3dhLrnIFtYSlqvh26jxF9dTudj7bDA2vJGu7ifG5HhhPB6JlAMS2VaW4rYwsjomg7f00gYMFReStOt4px/B0iPdHTKYwD9fT+NYptfhmOqW5Meoh4fR2hJ1tIfv5ecueoWGcUQEMriQDY0y3uCqf+pi7xjTrQNM/woVJL4mgUpqd7d0ESR6OYLi3COiDTAJFfPo1GCc5b1mKxaST2v0kyfCaFaVoFuetLMDob6Xq2Pn0FFC/Zn12HPQY01xDY0oZt1Rqc0/vCdId7wFqJZONG2n/ZCNPLyFq5FIVg6jg91orxxbvIKRrjpSlxkP+/vbsPj6o8Ez/+nTNn3jI5IZM3TJABAibQiKEYIVVQcIWV7VKU7bJWq2wXL9+7v7rbbXf766+9utsX19qrtletutvUohXZlJKyaKPiCiywRoyYaCMMCxGDGQoJM0lOJpmXM2d+fySQyfsLCY56f64rf8CcOfNynuec+9zP/TzT+Ywf2+JlaJ8xiL1ZQ3dlBabyFbKXXHjDS5wZLmAHIm/z+h+iOJYUM3+kiSFmkM6Kn9FxGNSFZaRfm4slFiTWUE/oUCnumf0vtuah7bS7vLiuW4Ul4CN0oJaOZz3YH0y6CWo/SldNE5aSEtIW56K4DOK+WrqqKoiF7ib3xoJ++0z4qgkGS0jfsIkMawtd27cT2lKF+o07cCd/TeYZQs/8J/bla/DcoGEeeYX26p20aQXkret7n1N2PCeZ+c52zm6phxllpK/Lh7ajdG2tJjEwQ2YGCe+rI5ZTjPOaMtRMlcQHDYQOVHG22SDnvvKe7z7zSjLu8ZIwY8T2VaIfziN90yrsvcffkpXX972PdZ9TSidctR1LYTnumzQSJ96ka+8WznbfQd4txeO/se1upP3nT9Ol5+K8ehXubAOjroaubU8SjzyF0USaAAAY5ElEQVRA9srcvs+vNxD4yRbCHR4cS5bjujQdOk4RPbSfrhPlOBcO00YiTegXOWAfW//U6Xr2SdrqY6hl5aTP1kg0vUnX3krOtkLOptIJB1jRl7YQX7CMjDtvwBJoQN+2p3+fH0+7m0ond9N2Kg/HtWtwKUEiB/aj/1sQ/vZutPxx7iujhIx78jBNMA5W0lGn4d645nxyQJnS497G2VMnwHoT2fmg76nmzJEFnI7dQvali+Ctw7T5gSGDdtBK5lNo3U3dW+/BVUNlbM7yyv/9Gx58vpXCLzzMr//xGiZ6NUqNM6kYl8T7QdRND+ApORecFeNa0ve4cWAnnSdtOL/0AFnntynHlfMkLTt203mylGkzwaIV9GY3nEQdgDMXR1HhEBNRVRylxSiHfISPGKSdX0UjSLjODzkrcOUnbfvnXyEvU+t3AXAXqpx5ooauOp205VMUtRutfK3iCFvNEbZRstj85cu5ZYL1xkazjWl/fwfuc513QTFpSY9bFm4gb4mGNblnLckj8P1Kul/zkVFUgjLbi5UaYs0G5KhgGpghA9xOFAUSTU0YeHDOHmWFlmTTvagug2iTn8SSQiyAGdLBoaGoQPf7xFrAWjqr/4XZbCEWX0PO/cuw9T7gLCnpv2+HB8c8DwT8I5R/q6izClGBRLeGhSDKjGKcQ01Ejfjo2FFPYuYqsr+8ou8monwuwR9WEHq5gfRNYxthGMQMY11+D1mre4OFK71YflRB1yv7iZQNvULMWCXO1BB4bJiAHeD0ezTrkFMwh5Gal1lXTedhA3X13eTcmJSNvG4lcd0YdLE1jblk3XczTgdAObb4IwRqfIQDK7Cdq/ecdiVZ31yB6k564tWlKD9/BP2114msHjCqE8kl7fa1ve24ANvaRsJP1BH2GbjLkhuvAZ/6HJkrC3ve54ybMd59CP1wA9G13p7vcyqP56RqofPlekx3KZ57bsblAijHlfEkLTua+m+q5JH+wD+RmZn8XZTjSH+U1ldq6D5Vji0fUDUc83rPZ3U2QEO9rBDnUFfWse5zShkkZqwl50tlPRf/qxehmj+krXYPodXFaOOsHzYO7qKr1Ynjlk1knbspLi9C+fFjdL66m/DVG3A5el43XL2TcJsH110P4ClKSizcsIJ493ABux/93zajX6yAnbH3z8TJGvR3dJQld5Bz7obn6jLs6qMEanYRer+UabMm9h4S6aVkbijv6UszC7B80EDr7qQ+P552N5UiLpx3biJzTs8Lu+e7aPnRLkJ7faTfMs5VoRQNe+9nivicgBPrvMLB59kp8Ue62gH3JaRZoTP4R4g46QzBTC0TaKerIwzDpfumz2GGA/Y1niDCEOf/+BF27e1ZNatx7wEa/+EaSie44seHfx4V45dXinvBcLniIN11TSSySkibp5IwjPN/yrxiVFqINo5/5p1SVIrdHSb6jq9vqbzWBsLNoC4q6Ze9VQYE7AnDwDIjH5sC8UCQxLhffYzUTO5dO5//GPHvUlZeQDpLKVlK2jB32wAWrX/AnjAMErYCbDmQCLQQByz53p6M9gk/CcB8p5LT3/4BbYd6Mvaxk35MWwH28Sw+os7CPkPFbPYTB9BrCHznIc5s85EAEs2niJkattkDlw5UcXym7HzAfjEkGt8l0qZiX3olNrOvfSasBThnO0mcaEwaIh0npQDn4qTsnqMQ5wIPBJqIto30xFGcriX4xE4irvKhA3YA/SytQEbGSDelBuF6H6ZjLu7rBpYPqFi1wf1amV+aVIqiYvcWgKkTT+7GDq1/wG4aJAwXthkahALEB2aSp8/FmdSOLTm5WBUDs33gucGJvTh5xEfDlu0EXe8Z2WOKj+dk0o8TPQXKgtJ+x09dXDpE+3eiJgfXZk9fVmcWoJg6RmAikzOnYp/jpWJffHlSts6Jq7QYi+kneiw8wvOGEiZyzA+OubhKk9q8UoBrUQGEmoicW93TbKK7QYeZ5WhFA9q4omF1M1i0Cb2iAt2fR/pFCtjH0z/jxxqJmxqOxckjFCqOq0qwEiTia5nwu1DmFfdrk+r0rMF9PhVkleCa1XdcLPkluPLBbEyRPj9WZpi4GQaF/klLE7D1HPO4MUL/UNPJTYNIW8fQK2JZr2D9XyxES8tm6efXjDwSOwrJtH8U5eahDhdkmUHi7UBbDYF/qhlyE2unTgJtfHfBjrm4FjgJNzQQiZTgcoDRWxqTXto/uky0+eh8fg9dPj/xUP8LkRKbyguTnfLivCncP1jzRxl2NFroemkXobeOYwTC/W9Q8mM9/1a92C6BcLMfEy8xXxO4VKJH3ydRNovYySBcUoZ9XKMBTuyzPbC3iWgElP9tJGZzYmlsJGoWYz3px1QKsM8c8DRFwzr94tYcm8EAJgaRyoc4VTnEBqreV+o1XooH64CbKjVL67ngtQMTWonAIPzizp73Y/MT0xkl+zPSbKQg8YAB0/KxjfH4KhkD+qra856IJf9nmGjNLvQDDURP6SSSL5iKh8TAbjdwTefefyQG9U8bysBF7xUgZpxv21N6PCdRokMnDihZWf2/T7cHZYjjGX9vPx0v1RJ5vwWz3yFVJ7ygylTsc3xcWLMG9PdMD4piEG/TGTaTOCQds80AzYN1QCJEzfFg4Qxm0IA5KnSfIR4CZUHumJcUNmur6VQA8wzGqW6YMWV1lUnG3j+NNh0UDXXAOcWS1VMKaLTpJMidUJmK4nL1f54Cg/t8Csj0DIhFPCiZwLHU6PNjpjixKk4wIQ6kZ88GayZ2NxDrCdat6sh9Y+Q5qBpLH/wl//Pghb9VCdo/giyqOvqJYOYyPDeVoAzRaSzTJlLvpuL4dE+JTPdRA9dCne63myB/VVJpDBDprXGMeEm7fj2OmR4UGxDzoT+xB2Mq777NTn63/wxvjVgek8YXrr6E+RNs+RZlpCfqdD1bQds7Ko7lq5hWlIeSpmIxdbq3baHr/HZaT4B98BSxiJ9Io4rz+hKirzcSNWzEThkoC73jXi/fNmsWSuw4sTMGytEmrEuWox5qIBowsDb5YfrKISa7qVg+lLOAhvPzt+IectKsa8KT4qaKMmcVmTepdD5RTedze3Akl4Gc48kmB2jt6BxxX1Mx0mTse5azVU0oC5ehrZ6Lmq5iUcA4UEn7IYNEfApetJ+P1vEcTaJ5F2cf34M5vRT3zWuw5bqwKJA4sYe2HcdTZp+TI0WXdNSKybhzBWZlBZ07qugsvOOiLP83ZSPBIoVdQto0oPWPdMUhf245mTM85DmgS28DpuHIGCFoNzrp0MGRmcGFTTMd3UfsVCpGpXiwTgNCoMzyjrGGd2z1IsplpTjc9UTqfZj5QcInQV1d0u/ZicZawq0qzi9uJHNxUiNvbTw/C3z417/Ai4fZRdXBD0ataV+wdOJB+4i6G+lu0FGWbCJrXWHSBLQmwjH6fc322V6UvX6ix44S7faSfnURHHiFiM9FrEPFPqtg3DdWFu9MbEotsRM+OKFi/6tybK376D7sw9ZsoMzzpkSHVzxZKDSRUPJwzJrkLL8ZJN4GJE3wNQI9GTHrtMGbW1ABY5QLtYr92mU4Z6qon/XRum03bS8XDZrcSfYc5mpwpKmZCAuHqWv3oGapcPQUsQiTtGJIkO5DjSTyV+DZuCrpZsLAPNANE57yNDYTO56T1OfHwZKh9WRAA4H+GdBQEHPA7PXooXoM04u2aQNa0siNebo3qJvATdBU7HP8uokHBtTmtumYpoo9a4h2cq4tDXlO1VAyVTgWJB6D5AZvtAZJoKF4es84rjysboiebiFO8ZjOQ8rCFbhneuGWlUR+sgt9aw2Oe8qnuJRv7P1TzdTADGIE6He+SQSCPSM6mUkjZLae8wxxkqIuHTMEZEz6h7h42oIYJljPH5MgZhugaX0JQ0UFYiT6jRIYg0bhP1yZZOfPhqNHOHsK5s7+Duu+AlbCnPigDpRFZI9Urup/j2YDCgtnjzifaTJ8VAYvxJh5cC3yYmmtJXRocAFcIhTEGDSOo2KxA2F95OuGOhfXAg3TV0+otoEYBbgWDaiRNobKVBg9qyaYgDHE+J6iYc2AxNnghV231Dw2f/VaIl8b4e+rE5+EOioz1r8s4dx/N9TQ3UpPSUHv45bZXlTOENnrI+4txuGai2NWgMheHwYF2GZPILx2z8KWC0ZdDZHuuThnOnEuKMCoqyEaULEVjv9GoP/+Naw2iLecGTnItbuw0E2ic+iTsqXwUzgyDSIHdhMZ1BYNjMB4a2uTmH7Ch1r63p/RRPhwEHK82AfNRVBRprmgI0h85CWH+p5x9XrSF6gYr1TS8f6Az+e4gtLL7USOvM2RYRuyinNhMUrkOKFX/QNiod4JyeNmDB37Bmrpagif32SqTOh4jqfPt77B5kce5pHf+kYZgh6FVoxjBpiH6wknHW/jUH3S0nk9BpUTARgthF47TgJjyMctLhXQiQ8z0DKRfRL3s6/iYb7/0xdpnJQ1oA2ih/6Q1BzCdNf7SCgF2AuHmE+RqWExA8RahnpzThzzCiBynO76pGuN6ae7zg9uL45zgY7ixbVAg5M16IcHtAczPOimKZllxgqm/akXjlXTtrdl6HPPZLWRcfRP67xCrIpO5FDSPC8MIm80EDc92C/ruzaqmRoYZ4j6+55vHn6XSNIqXRM1WrtLpr+9g0e+9zCb35qk4vhAA91J58HEqQa6T4FSWNiXPMjUUJQwsZNJNf56HeHGyTgpRWmsfpzvf++X7Dt9YXvKvvxGXGYd79fsIU7vjUjb7zh6pA2r92ZmjTCXTW84QmM8m0WfHn6t39a9j/P1+7/G959/74LaaCok3sQkU69ZS3pdBfrWx2g5diVOrwadQYzmRiJHwf3g/Wj9Sr89vfXQb9Kx00NaoYZFAeulxdj7JV/Unkk3tXV0vmrAjFU4B5SQWwpLcLjrCe/YTFv7ldhcYQxfLV0NOooLzA6dBAN/oCcXZ2kBnS/uJrgN0rxOULJwlBV+tBqoey7OQpWOg9sJOMpx5jsxT71LV81xcKsQSqrzc3uxZRmEjjVhv/lWFFScC2bRvtVHIqsc2wgniOF5sM900nmwkcTCMuwqKEVzsW7fRYwCNO8FZrUdxTiLnIQP7SSoBXHkquAuwFXSf8KW5dKZ2By1RF7ejm6WoLpULGl52Od4erZzFJOxrpTIM/sJ/LgF11VFqC4D87Sf6GEfMe96LvliycRuMBQn8X2bCXSX48g1MN6soavVifPWZUOOOjkWlaDU1KBvrsYsy0VRXKjFJTiGTU57SP/LzxH9USWh56pxPLi2d1UXAI1rr78Kx2u1/PcxKB3m95WUxWtIr2+i478qaDlTRlpxLpZ4J8aROqJ568ldN971lXNxlBTQ+fJ+gs9A2gIPFv0U4QO1GIqzbwLbUMuLToYJHc+x9/n6X32XR57xg/VtMhb/mrtGWwN/WB7cq8sIPVVL+xM2jKX5cPYoXQfPYFH7JxvsJcUoB2oIPVUJSwtR4kEitTWEAyoKBnE9CPRPWNgKvSi76wn9dg/KknwUBSy5s3DmOSe8T/Y/ztd/+iI6O2iccRW/+IvsiX74XiqW5mrOPhUkrbh3ycdDYZTyFbiHKD1RikpxuBsIV22ho/1TWFUbyoxiXL3LyqpLVpF2oIKuqgoCLWXYPWDU7aerWcW2dmVS31BxfnYtzmNb6H7qZ5hLyrBfmo4l1EK0rgFWf4Ws4ZZ8BOwr15P+7s/QqyvpLLp70KTUyWsjY++flpnlaAvfpO1gJa1mOa5CDU7UEzoYRCm5mfSk96DOL0Z9YRddz27Bck0RSlcT3fV+FG2YQYxxGK3d9fGz/aHvsrkB2A+Lnv/ahFcwOc/VTfhXFbRdW4rau+SjYfOiXd+3cowlvwRH1n66dj9LIFaGLU0nVusjrjkhMOLeR9dWzSPf/iX7IvC8PofdD62ccKbbetnfceXlz7F//x1UG3/H7OlBztQ8wQeRRSz4s78eYbwyyuuv1RKZfiN/csVw27zH9sd+ye99wKEo85c9yvoJXeMl0/7xpBag3XMPmSu90FhD5/ad6K/UEmnTcKxcgXOIMgHH6g1oiz0YNTtpq3ia4L9voXOIO2FLYSkOd09WyHZF6eDCGncJmXetxZml0/1CFe2V1XQ1a6RtvIeMIiecOkl0iBts+/UbmFaeR/zNatq3VtG+tWbI7VKbh/TbN6ItdBGr6fkcem0A2w0byVrtxRLxEzuXDVDysHudoBTgKO45HSjzClEVsMwsHFwvPSYq9tkFWFCxFfcu0ZdVhD0HyPBiu+CgzUna528jvVglundnz3H6fcPgJK5WxrRblmGnkc6tWwhWPE1ge32/jKq1dAO596/FmRkg/Go1HduqCdX5e9bPLr+AHwXJKmPa7WVYju1H376bcLsH14ZNZJYNfcq1zFuDZ10pyuka9K1VtG/ZSdepUV4js5RpN5egnKmhfYev30U3Z/U6/kR7j1de8g37dBQP6V+6m6zPFmM9XU/n9io6fl9DJD4L16KJra9sX30rmSvnYmncj761io6X6jAL1+D5m3JUJYjxwdQuOzGR4znWPl941TUUpgFxP8ebBj8+HkrJWrJvXYYt8gc6t1cTagDnLRtIGxArK0VryL6lHLXbR+f2Ktp37CeqLCLzvg04MyHeNDALC0rJGjJXl6A076b9qacJVjxN23/3jUpNZJ9cVsbSAjsQ5YP3/AMfncAXUIB74wacRgOh3+0kdDiG7boNZK8fZo12VwmZG1fhUN8ntK2K9q2V6HWBvhscVyHT7ruD9Pk2ov+zi47tuwh35OL6/N3912gH0ErI+j93o5V5iL+7G31bFfqeBuLTy0gbbR1/JZf0L6zBbvPTuXU3kQHtZDLbyNj7p0babXeTuXIWHNuPvm0nnYe7sS3fQNYXy/rffOYvw7OhDJt5nNALuwgdA9dtt+GahBvp0dpdnxwWXbMQzQqc9nO8a/C+xv3aCz6H5089xA5U0/FCDTF3KdpdG/snBVUvGbevwZmjE9m9i9BrfpSVtzFt0SSU7WlXsHRxNg5Ab2qm9YJ2Np2ijS+zbNmnib7zAw7ufILT6o2U3vWffGb+CAkv/QAv7NUp/PN1LB32jmEGS6/r/e4jfpovYFTA8q0f/Djxzb+/f+J7EEIIcd7hx77I7Tvm8+PffZPlaaNvL8agazcPrn6UGT/fwVeHzWZ9XJ3luTs/R9Wy31D51+NZB/YT5hPdRsbhjYdZ+VWdf375X1g+1QXYF8nhxzZw+7u3sfuxdVM8g2ew5sr7WPdTO9/47aOsnz7Kxm//hBvv9LFx58/5wmjbDkMy7UIIMYkW3HEvn6WaJ387CZlRAUDz87/hdc81rBqm5OjjLOLbQVXDHG5YJgH7SD7JbWTszvJK5avwmetZ9DEJ2NHfoOrFVhZdv+yiB+xE3mDzM/UU3nHv6AE7UV7f+SqtxVdz7QQDdpCadiFSWuLkLlqe2E98hMJHS9Fa8r5U9rG7A//IfnbtGr7z8oEP+118TJyl/lf/ytd/0cH6H95L6ccl0Bij5r2P8+3v/Qb7nY+zcd6H/W5S1Se7jYyZ7mP7I/+PR45cxT//YuXFD3CnQOS9F/nRtx5m15x7qbjpQud7TIDjKr6xcwzn+oiffb/4Lt+qzuauJzcw5Mq4YyRBuxApzDJjOdn/UD7iai0Wmyu1gtZJ8kn+7OKcDo63zuFvf/Vd/mzeVK+AnHo6/DpL/vHXbLy+YMqXkvvo+mS3kTGL+GnWbuPxZ9ZROsFJkKkm+kc/rP5XfnPrVeRc6KTaqXTiRZ57azZfrriX9cUX1kalpl0IIYQQQogUJ0kqIYQQQgghUpwE7UIIIYQQQqQ4BcsF/UaiEEIIIYQQYopJpl0IIYQQQogUJ0G7EEIIIYQQKU6CdiGEEEIIIVKcBO1CCCGEEEKkOAnahRBCCCGESHEStAshhBBCCJHiJGgXQgghhBAixUnQLoQQQgghRIqToF0IIYQQQogUp1iQX0QVQgghhBAilUmmXQghhBBCiBQnQbsQQgghhBApToJ2IYQQQgghUpwiJe1CCCGEEEKkNsm0CyGEEEIIkeIkaBdCCCGEECLFKVIdI4QQQgghRGqTTLsQQgghhBApToJ2IYQQQgghUpwE7UIIIYQQQqQ4BYtUtQshhBBCCJHKJNMuhBBCCCFEipOgXQghhBBCiBQnQbsQQgghhBApTrEgNe1CCCGEEEKkMsm0CyGEEEIIkeIUSbQLIYQQQgiR2iTTLoQQQgghRIpTkFS7EEIIIYQQKU2R31YSQgghhBAitUl5jBBCCCGEEClOgnYhhBBCCCFSnATtQgghhBBCpDiZiCqEEEIIIUSKk4moQgghhBBCpDgpjxFCCCGEECLFSXmMEEIIIYQQKU7KY4QQQgghhEhxUh4jhBBCCCFEipOgXQghhBBCiBQnQbsQQgghhBApTiaiCiGEEEIIkeJkIqoQQgghhBApTspjhBBCCCGESHFSHiOEEEIIIUSKUyRmF0IIIYQQIrUpFonahRBCCCGESGn/H+s47Jynt2zEAAAAAElFTkSuQmCC;" vertex="1" parent="1">
          <mxGeometry x="398" y="170" width="429" height="105.39" as="geometry" />
        </mxCell>
      </root>
    </mxGraphModel>
  </diagram>
</mxfile>
